<?xml version="1.0" encoding="utf-8"?>
<!-- Generator: Adobe Illustrator 22.1.0, SVG Export Plug-In . SVG Version: 6.00 Build 0)  -->
<svg preserveAspectRatio="xMinYMid" version="1.1" id="about" xmlns="http://www.w3.org/2000/svg" xmlns:xlink="http://www.w3.org/1999/xlink" x="0px" y="0px"
	 viewBox="0 0 455 59" style="enable-background:new 0 0 455 59;" xml:space="preserve">
<g>
	<path d="M109.4,39.8c-0.6,0.1-1.3,0.1-1.9,0.1c-1.3,0-2.3-0.4-2.3-2.9v-6h3.9v-4h-3.9v-5h-5.3v5h-2.7v4h2.7v7.2c0,5.6,3.5,6,6,6
		c1.2,0,2.4-0.1,3.6-0.3L109.4,39.8z M89.5,27v8.5c0,2.6-1.1,4.3-3.2,4.3s-3-1.7-3-4.1V27H78v10c0,2.4,0.2,4.1,1.3,5.4
		c1.2,1.3,2.9,2.1,4.7,1.9c2.6,0,4.6-1.1,5.5-2.8v2.4h5.4V27H89.5z M66.6,39.7c-2.4-0.2-4.1-2.3-3.9-4.7c0.2-2.1,1.8-3.8,3.9-3.9
		c2.4,0.1,4.2,2.1,4.1,4.5C70.6,37.8,68.8,39.6,66.6,39.7 M66.6,44.3c5.9,0,9.4-4.1,9.4-8.9s-3.5-8.9-9.4-8.9s-9.3,4.1-9.3,8.9
		S60.8,44.3,66.6,44.3 M46.1,39.7c-2.4,0.2-4.5-1.6-4.6-4s1.6-4.5,4-4.6s4.5,1.6,4.6,4c0,0.1,0,0.2,0,0.3
		C50.2,37.7,48.5,39.6,46.1,39.7C46.2,39.7,46.1,39.7,46.1,39.7 M42,41.5c1.1,1.8,3.1,2.8,5.2,2.8c4.9,0,8.2-3.8,8.2-8.9
		s-3.3-8.9-8.2-8.9c-2.1,0-4.1,1.1-5.2,2.8v-10h-5.4v24.5h5.3L42,41.5z M34.8,43.8l-8.9-24.5h-5.2L12,43.8h6l1-3h8.7l1,3H34.8z
		 M26.3,36.4h-6l3-10.1L26.3,36.4z"/>
</g>
</svg>
