<?xml version="1.0" encoding="utf-8"?>
<!-- Generator: Adobe Illustrator 22.1.0, SVG Export Plug-In . SVG Version: 6.00 Build 0)  -->
<svg version="1.1" id="Isolation_Mode" xmlns="http://www.w3.org/2000/svg" xmlns:xlink="http://www.w3.org/1999/xlink" x="0px"
	 y="0px" viewBox="0 0 190 158" style="enable-background:new 0 0 190 158;" xml:space="preserve">
<g>
	<g>
		<path d="M23.297,101.047c-1.04,0-1.885,0.842-1.885,1.884v0.664c-1.355-1.821-3.938-2.877-6.446-2.877
			c-5.47,0-9.896,3.561-9.896,9.95c0,6.505,4.23,10.066,9.818,10.066c2.145,0,5.124-0.951,6.553-3.034l-0.03,0.853v1.034
			c0,0.347,0.281,0.627,0.628,0.627h2.517c0.346,0,0.628-0.28,0.628-0.627v-16.655C25.185,101.889,24.341,101.047,23.297,101.047
			 M16.005,116.98c-3.735,0.371-6.937-2.129-6.937-6.313c0-4.144,3.202-6.645,6.939-6.274
			C23.498,105.139,23.498,116.235,16.005,116.98"/>
		<path d="M72.394,101.047c-1.042,0-1.887,0.842-1.887,1.884v0.664c-1.355-1.821-3.938-2.877-6.444-2.877
			c-5.472,0-9.897,3.561-9.897,9.95c0,6.505,4.23,10.066,9.82,10.066c2.144,0,5.122-0.951,6.551-3.034l-0.03,0.853v1.034
			c0,0.347,0.281,0.627,0.628,0.627h2.517c0.347,0,0.63-0.28,0.63-0.627v-16.655C74.283,101.889,73.437,101.047,72.394,101.047
			 M65.103,116.98c-3.736,0.371-6.939-2.129-6.939-6.313c0-4.144,3.202-6.645,6.939-6.274
			C72.594,105.139,72.594,116.235,65.103,116.98"/>
		<path d="M142.433,101.047c-1.04,0-1.887,0.842-1.887,1.884v0.664c-1.353-1.821-3.938-2.877-6.444-2.877
			c-5.472,0-9.896,3.561-9.896,9.95c0,6.505,4.23,10.066,9.818,10.066c2.144,0,5.122-0.951,6.553-3.034l-0.031,0.853v1.034
			c0,0.347,0.281,0.627,0.63,0.627h2.517c0.346,0,0.628-0.28,0.628-0.627v-16.655C144.321,101.889,143.477,101.047,142.433,101.047
			 M135.141,116.98c-3.736,0.371-6.937-2.129-6.937-6.313c0-4.144,3.202-6.645,6.939-6.274
			C142.634,105.139,142.634,116.235,135.141,116.98"/>
		<path d="M171.874,100.756c-2.633,0-4.997,0.962-6.549,3.777c-0.004,0.007-0.015,0.006-0.018-0.002
			c-1.166-2.813-3.528-3.814-6.008-3.814c-1.855,0-4.152,0.621-5.355,2.38v-0.166c0-1.041-0.844-1.884-1.889-1.884
			c-1.04,0-1.887,0.842-1.887,1.884v16.655c0,0.345,0.281,0.627,0.63,0.627h2.517c0.347,0,0.628-0.282,0.628-0.627v-9.931
			c0.002-2.739,1.719-5.039,4.367-5.176c2.58-0.135,4.716,1.989,4.716,4.564v10.543c0,0.345,0.281,0.627,0.63,0.627h2.768
			c0.346,0,0.628-0.282,0.628-0.627l0.009-10.307c0-2.708,2.264-4.929,4.973-4.757c2.587,0.162,3.916,2.343,3.916,5.061
			l-0.002,10.003c0,0.345,0.283,0.627,0.63,0.627h2.768c0.347,0,0.63-0.282,0.63-0.627l0.009-10.003
			C179.986,104.046,177.192,100.756,171.874,100.756"/>
		<path d="M121.336,101.98c-1.096-0.767-2.655-1.408-4.274-1.408c-1.988,0-4.221,0.47-5.627,2.702v-0.343
			c0-1.041-0.844-1.884-1.889-1.884c-1.04,0-1.887,0.842-1.887,1.884v16.655c0,0.345,0.281,0.627,0.628,0.627h2.519
			c0.346,0,0.628-0.282,0.628-0.627v-3.856v-0.004v-5.834c0-3.524,2.406-5.227,5.163-5.227c1.166,0,1.964,0.23,2.715,0.691
			c0.37,0.229,0.854,0.1,1.057-0.284l1.177-2.251C121.7,102.53,121.607,102.17,121.336,101.98"/>
		<path d="M96.581,117.751c3.415-1.355,5.084-4.026,5.084-7.434c0-2.352-0.732-4.053-2.314-5.904l1.02-1.248
			c0.636-0.78,0.519-1.922-0.262-2.555c-0.78-0.634-1.927-0.518-2.563,0.26l-0.941,1.152c-1.321-0.922-3.563-1.307-5.146-1.307
			c-5.163,0-10.363,3.213-10.363,9.601c0,5.961,4.154,9.524,10.363,9.524c3.57,0,6.015,1.471,6.015,4.142
			c0,2.671-3.143,3.909-6.093,3.909c-3.184,0-6.209-1.663-6.094-4.606c0-1.1-0.894-1.994-1.998-1.994
			c-1.105,0-1.999,0.894-1.999,1.994c-0.194,5.305,3.882,8.479,10.091,8.479c5.122,0,10.247-2.593,10.247-7.782
			C101.628,121.7,100.502,119.106,96.581,117.751 M91.459,116.164c-3.454,0-6.327-2.051-6.327-5.847
			c0-3.987,3.066-5.884,6.327-5.884c3.298,0,6.209,2.129,6.209,5.884C97.668,113.763,95.029,116.164,91.459,116.164"/>
		<path d="M45.433,119.586c0,0.345,0.281,0.627,0.63,0.627h2.777c0.347,0,0.63-0.282,0.63-0.627v-9.616
			c0-5.961-3.611-9.214-8.231-9.214c-2.43,0-4.527,1.005-6.324,3.008v-0.833c0-1.041-0.846-1.884-1.889-1.884
			s-1.887,0.842-1.887,1.884v16.655c0,0.345,0.281,0.627,0.626,0.627h2.519c0.347,0,0.63-0.282,0.63-0.627v-9.36
			c0.006-3.093,2.086-5.731,5.241-5.791c2.912-0.057,5.276,2.354,5.276,5.261V119.586z"/>
		<path d="M138.508,80.641L110.2,13.952c-2.502-5.891-8.264-9.699-14.68-9.699H79.382c-1.207,0-2.291,0.717-2.763,1.827
			L44.969,80.641c-0.351,0.829-0.131,1.806,0.612,2.411c0.373,0.304,0.856,0.448,1.338,0.448h20.2h2.99
			c0.61,0,1.172-0.312,1.506-0.822l0.004-0.006c0.043-0.064,0.085-0.127,0.128-0.19c0.172-0.256,0.347-0.509,0.527-0.756
			l0.028-0.039c0.423-0.577,0.87-1.137,1.342-1.674c4.407-5.034,10.884-8.223,18.098-8.223c7.212,0,13.689,3.189,18.098,8.223
			c0.469,0.536,0.918,1.097,1.342,1.674c0.009,0.013,0.017,0.026,0.026,0.039c0.181,0.247,0.357,0.5,0.529,0.756l0.124,0.188
			l0.013,0.02c0.333,0.505,0.896,0.809,1.502,0.809h2.988h20.166c0.578,0,1.153-0.205,1.556-0.618
			C138.672,82.276,138.828,81.399,138.508,80.641 M79.711,7.738H95.52c5.01,0,9.509,2.971,11.463,7.572l19.658,46.315
			c-6.66-6.772-15.277-11.625-24.93-13.627l-8.362-19.7c-0.275-0.645-0.909-1.063-1.61-1.063c-0.7,0-1.334,0.418-1.61,1.063
			l-8.362,19.7C72.113,50,63.494,54.853,56.834,61.625L79.711,7.738z M91.739,50.462c19.492,0,36.145,12.315,42.578,29.552h-7.776
			c-6.022-13.183-19.355-22.373-34.802-22.373c-15.449,0-28.779,9.19-34.802,22.373h-7.776
			C55.592,62.777,72.248,50.462,91.739,50.462 M85.844,47.333l5.895-13.887l5.895,13.887c-1.935-0.232-3.899-0.356-5.895-0.356
			C89.743,46.977,87.777,47.1,85.844,47.333 M114.267,80.015c-4.986-7.074-13.222-11.708-22.528-11.708
			c-9.308,0-17.544,4.634-22.528,11.708h-8.384c5.762-11.199,17.448-18.887,30.912-18.887c13.464,0,25.15,7.688,30.91,18.887
			H114.267z"/>
		<path d="M91.762,151.547c-5.889,0-11.52-1.832-16.284-5.299c-0.848-0.617-1.035-1.804-0.416-2.651
			c0.619-0.848,1.809-1.034,2.659-0.417c4.108,2.99,8.962,4.569,14.04,4.569c5.078,0,9.933-1.58,14.042-4.567
			c0.848-0.617,2.038-0.431,2.657,0.415c0.619,0.846,0.432,2.033-0.414,2.651C103.282,149.715,97.653,151.547,91.762,151.547"/>
	</g>
	<g>
		<path d="M185.602,103.069c0,1.294-0.843,2.385-2.359,2.385c-1.509,0-2.358-1.091-2.358-2.385c0-1.307,0.85-2.385,2.358-2.385
			C184.758,100.684,185.602,101.762,185.602,103.069z M185.111,103.063c0-1.098-0.679-1.947-1.869-1.947
			c-1.176,0-1.862,0.836-1.869,1.941c0.006,1.098,0.693,1.947,1.869,1.947C184.432,105.003,185.111,104.141,185.111,103.063z
			 M183.7,103.357l0.692,0.81v0.098h-0.49l-0.693-0.856h-0.418v0.856h-0.45v-2.463h1.117c0.581,0.007,0.875,0.412,0.875,0.81
			C184.334,102.945,184.125,103.278,183.7,103.357z M183.452,103.024c0.288,0,0.431-0.202,0.431-0.399
			c0-0.196-0.144-0.392-0.424-0.392h-0.667v0.791H183.452z"/>
	</g>
</g>
</svg>
