<?xml version="1.0" encoding="utf-8"?>
<!-- Generator: Adobe Illustrator 22.1.0, SVG Export Plug-In . SVG Version: 6.00 Build 0)  -->
<svg version="1.1" id="Layer_1" xmlns="http://www.w3.org/2000/svg" xmlns:xlink="http://www.w3.org/1999/xlink" x="0px" y="0px"
	 viewBox="0 0 286 89" style="enable-background:new 0 0 286 89;" xml:space="preserve">
<style type="text/css">
	.st0{fill:#F48132;}
	.st1{clip-path:url(#SVGID_2_);fill:#231F20;}
</style>
<rect y="0.3" class="st0" width="286" height="88.7"/>
<g>
	<defs>
		<rect id="SVGID_1_" y="0.3" width="286" height="88.7"/>
	</defs>
	<clipPath id="SVGID_2_">
		<use xlink:href="#SVGID_1_"  style="overflow:visible;"/>
	</clipPath>
	<path class="st1" d="M212.3,60.1h3v-2.9h-3V60.1z M212.2,48.9l0.3,7.2h2.5l0.4-7.2H212.2z M207.1,49.5h-3v6l-3.9-6h-3v10.6h3v-5.9
		l3.9,5.9h3V49.5z M187.9,52.1c0.8,0,1.3,0.2,1.8,0.7c0.4,0.5,0.6,1.1,0.6,2c0,0.8-0.2,1.5-0.6,2c-0.4,0.5-1,0.7-1.8,0.7
		c-0.8,0-1.3-0.2-1.8-0.7c-0.4-0.5-0.6-1.1-0.6-2c0-0.8,0.2-1.5,0.6-2C186.5,52.3,187.1,52.1,187.9,52.1 M187.9,49.4
		c-1,0-1.9,0.2-2.7,0.7s-1.5,1.1-2,1.9c-0.5,0.8-0.7,1.8-0.7,2.8s0.2,2,0.7,2.8c0.5,0.8,1.1,1.5,2,1.9s1.7,0.7,2.7,0.7
		c1,0,1.9-0.2,2.7-0.7s1.5-1.1,2-1.9c0.5-0.8,0.7-1.8,0.7-2.8s-0.2-2-0.7-2.8c-0.5-0.8-1.1-1.5-1.9-1.9S188.9,49.4,187.9,49.4
		 M173.3,52.1c0.8,0,1.3,0.2,1.8,0.7c0.4,0.5,0.6,1.1,0.6,2c0,0.8-0.2,1.5-0.6,2c-0.4,0.5-1,0.7-1.8,0.7c-0.8,0-1.3-0.2-1.8-0.7
		c-0.4-0.5-0.6-1.1-0.6-2c0-0.8,0.2-1.5,0.6-2C172,52.3,172.6,52.1,173.3,52.1 M173.3,49.4c-1,0-1.9,0.2-2.7,0.7s-1.5,1.1-2,1.9
		s-0.7,1.8-0.7,2.8s0.2,2,0.7,2.8c0.5,0.8,1.1,1.5,2,1.9s1.7,0.7,2.7,0.7c1,0,1.9-0.2,2.7-0.7s1.5-1.1,2-1.9
		c0.5-0.8,0.7-1.8,0.7-2.8s-0.2-2-0.7-2.8c-0.5-0.8-1.1-1.5-1.9-1.9S174.3,49.4,173.3,49.4 M164.2,57.1c0-0.7-0.2-1.3-0.5-1.7
		c-0.3-0.4-0.7-0.8-1.1-1s-1-0.5-1.7-0.7c-0.6-0.2-1.1-0.4-1.3-0.6c-0.3-0.2-0.4-0.4-0.4-0.7c0-0.2,0.1-0.4,0.2-0.5
		c0.1-0.1,0.3-0.2,0.5-0.2c0.3,0,0.5,0.1,0.7,0.2c0.2,0.2,0.3,0.4,0.3,0.7h3.2c-0.1-1-0.5-1.8-1.2-2.4c-0.7-0.6-1.7-0.9-2.9-0.9
		c-0.8,0-1.4,0.1-2,0.4c-0.6,0.2-1.1,0.6-1.4,1.1c-0.3,0.5-0.5,1-0.5,1.7c0,0.7,0.2,1.3,0.5,1.7c0.3,0.4,0.7,0.8,1.1,1
		s1,0.4,1.7,0.7c0.6,0.2,1.1,0.4,1.4,0.6c0.3,0.2,0.4,0.4,0.4,0.7c0,0.2-0.1,0.4-0.2,0.6c-0.1,0.1-0.3,0.2-0.6,0.2
		c-0.3,0-0.5-0.1-0.7-0.3c-0.2-0.2-0.3-0.5-0.3-0.8H156c0.1,1.1,0.5,1.9,1.3,2.5s1.8,0.9,3,0.9c0.8,0,1.5-0.1,2.1-0.4
		c0.6-0.3,1-0.7,1.3-1.1S164.2,57.7,164.2,57.1 M141.8,49.4c-1.1,0-2,0.2-2.8,0.7c-0.8,0.5-1.4,1.1-1.9,1.9
		c-0.4,0.8-0.7,1.7-0.7,2.8s0.2,2,0.7,2.8s1.1,1.5,1.9,1.9c0.8,0.5,1.8,0.7,2.8,0.7c1.3,0,2.3-0.3,3.2-0.9c0.8-0.6,1.4-1.4,1.8-2.3
		v-2.9h-5.4v2.1h2.9c-0.2,0.5-0.5,0.8-0.9,1.1c-0.4,0.2-0.8,0.4-1.3,0.4c-0.9,0-1.5-0.2-2-0.7c-0.5-0.5-0.7-1.2-0.7-2.1
		c0-0.8,0.2-1.5,0.6-1.9c0.4-0.5,1-0.7,1.7-0.7c0.4,0,0.8,0.1,1.1,0.3c0.3,0.2,0.5,0.4,0.7,0.7h3.1c-0.2-1.1-0.7-2-1.6-2.7
		C144.3,49.8,143.2,49.4,141.8,49.4 M132.4,49.5h-3v6l-3.9-6h-3v10.6h3v-5.9l3.9,5.9h3V49.5z M115.3,60.1h3V49.5h-3V60.1z
		 M107.4,49.6l-2.5,6.9l-2.6-6.9h-3.6v10.6h3v-6l2,6h2.5l2-6v6h2.9V49.6H107.4z M89.2,52.1c0.8,0,1.3,0.2,1.8,0.7
		c0.4,0.5,0.6,1.1,0.6,2c0,0.8-0.2,1.5-0.6,2c-0.4,0.5-1,0.7-1.8,0.7c-0.8,0-1.3-0.2-1.8-0.7c-0.4-0.5-0.6-1.1-0.6-2
		c0-0.8,0.2-1.5,0.6-2C87.9,52.3,88.5,52.1,89.2,52.1 M89.2,49.4c-1,0-1.9,0.2-2.7,0.7s-1.5,1.1-2,1.9c-0.5,0.8-0.7,1.8-0.7,2.8
		s0.2,2,0.7,2.8c0.5,0.8,1.1,1.5,2,1.9s1.7,0.7,2.7,0.7c1,0,1.9-0.2,2.7-0.7c0.8-0.5,1.5-1.1,2-1.9c0.5-0.8,0.7-1.8,0.7-2.8
		s-0.2-2-0.7-2.8s-1.1-1.5-1.9-1.9C91.2,49.6,90.2,49.4,89.2,49.4 M75,49.4c-1.1,0-2,0.2-2.8,0.7c-0.8,0.5-1.4,1.1-1.8,1.9
		c-0.4,0.8-0.6,1.8-0.6,2.8s0.2,2,0.6,2.8c0.4,0.8,1,1.5,1.8,1.9C73,60,74,60.2,75,60.2c1.4,0,2.5-0.4,3.4-1.1
		c0.9-0.7,1.5-1.7,1.7-3H77c-0.2,0.4-0.4,0.8-0.8,1c-0.4,0.2-0.8,0.4-1.2,0.4c-0.7,0-1.2-0.2-1.6-0.7c-0.4-0.5-0.6-1.1-0.6-2
		s0.2-1.5,0.6-1.9c0.4-0.5,0.9-0.7,1.6-0.7c0.5,0,0.9,0.1,1.2,0.4c0.4,0.2,0.6,0.6,0.8,1h3.1c-0.2-0.8-0.5-1.5-0.9-2.1
		c-0.5-0.6-1-1.1-1.7-1.4C76.7,49.6,75.9,49.4,75,49.4"/>
	<path class="st1" d="M228.4,39.1c0-0.7-0.2-1.3-0.5-1.7c-0.3-0.4-0.7-0.8-1.1-1s-1-0.5-1.7-0.7c-0.6-0.2-1.1-0.4-1.3-0.6
		c-0.3-0.2-0.4-0.4-0.4-0.7c0-0.2,0.1-0.4,0.2-0.5s0.3-0.2,0.5-0.2c0.3,0,0.5,0.1,0.7,0.2c0.2,0.2,0.3,0.4,0.3,0.7h3.2
		c-0.1-1-0.5-1.8-1.2-2.4c-0.7-0.6-1.7-0.9-2.9-0.9c-0.8,0-1.4,0.1-2,0.4c-0.6,0.2-1.1,0.6-1.4,1.1c-0.3,0.5-0.5,1-0.5,1.7
		c0,0.7,0.2,1.3,0.5,1.7s0.7,0.8,1.1,1c0.4,0.2,1,0.4,1.7,0.7c0.6,0.2,1.1,0.4,1.4,0.6c0.3,0.2,0.4,0.4,0.4,0.7
		c0,0.2-0.1,0.4-0.2,0.6c-0.1,0.1-0.3,0.2-0.6,0.2c-0.3,0-0.5-0.1-0.7-0.3c-0.2-0.2-0.3-0.5-0.3-0.8h-3.1c0.1,1.1,0.5,1.9,1.3,2.5
		s1.8,0.9,3,0.9c0.8,0,1.5-0.1,2.1-0.4c0.6-0.3,1-0.7,1.3-1.1S228.4,39.7,228.4,39.1 M208.2,31.5v2.4h2.8v8.3h2.9v-8.3h2.9v-2.4
		H208.2z M204.5,31.5h-3v6l-3.9-6h-3v10.6h3v-5.9l3.9,5.9h3V31.5z M190.6,33.9v-2.4h-6.8v10.6h6.8v-2.4h-3.9v-1.9h3.4v-2.2h-3.4
		v-1.8H190.6z M175.9,31.6l-2.5,6.9l-2.6-6.9h-3.6v10.6h3v-6l2,6h2.5l2-6v6h2.9V31.6H175.9z M163.1,33.9v-2.4h-6.8v10.6h6.8v-2.4
		h-3.9v-1.9h3.4v-2.2h-3.4v-1.8H163.1z M147.1,31.4c-1.1,0-2,0.2-2.8,0.7c-0.8,0.5-1.4,1.1-1.8,1.9s-0.6,1.8-0.6,2.8
		c0,1,0.2,2,0.6,2.8s1,1.5,1.8,1.9c0.8,0.5,1.7,0.7,2.8,0.7c1.4,0,2.5-0.4,3.4-1.1c0.9-0.7,1.5-1.7,1.7-3h-3.1
		c-0.2,0.4-0.4,0.8-0.8,1c-0.4,0.2-0.8,0.4-1.2,0.4c-0.6,0-1.2-0.2-1.6-0.7c-0.4-0.5-0.6-1.1-0.6-1.9c0-0.8,0.2-1.5,0.6-1.9
		c0.4-0.5,0.9-0.7,1.6-0.7c0.5,0,0.9,0.1,1.2,0.4c0.4,0.2,0.6,0.6,0.8,1h3.1c-0.2-0.8-0.5-1.5-0.9-2.1c-0.4-0.6-1-1.1-1.7-1.4
		C148.8,31.6,148,31.4,147.1,31.4 M137.9,31.5h-3v6l-3.9-6h-3v10.6h3v-5.9l3.9,5.9h3V31.5z M114.7,31.5v6.1c0,1,0.2,1.9,0.6,2.6
		c0.4,0.7,0.9,1.2,1.6,1.6c0.7,0.3,1.5,0.5,2.3,0.5c0.9,0,1.7-0.2,2.4-0.5c0.7-0.4,1.3-0.9,1.7-1.6c0.4-0.7,0.6-1.5,0.6-2.5v-6.1
		h-2.9v6.1c0,0.6-0.1,1-0.4,1.4c-0.3,0.3-0.7,0.5-1.2,0.5s-0.9-0.2-1.2-0.5c-0.3-0.3-0.4-0.8-0.4-1.4v-6.1H114.7z M105.3,34.1
		c0.8,0,1.3,0.2,1.8,0.7c0.4,0.5,0.6,1.1,0.6,2c0,0.8-0.2,1.5-0.6,2c-0.4,0.5-1,0.7-1.8,0.7c-0.8,0-1.3-0.2-1.8-0.7
		c-0.4-0.5-0.6-1.1-0.6-2c0-0.8,0.2-1.5,0.6-2C104,34.3,104.6,34.1,105.3,34.1 M105.3,31.4c-1,0-1.9,0.2-2.7,0.7
		c-0.8,0.5-1.5,1.1-2,1.9c-0.5,0.8-0.7,1.8-0.7,2.8c0,1,0.2,2,0.7,2.8c0.5,0.8,1.1,1.5,2,1.9c0.8,0.5,1.7,0.7,2.7,0.7
		c1,0,1.9-0.2,2.7-0.7c0.8-0.5,1.5-1.1,2-1.9c0.5-0.8,0.7-1.8,0.7-2.8c0-1-0.2-2-0.7-2.8c-0.5-0.8-1.1-1.5-1.9-1.9
		C107.2,31.6,106.3,31.4,105.3,31.4 M95.9,31.5h-3v6l-3.9-6h-3v10.6h3v-5.9l3.9,5.9h3V31.5z M81.7,31.5h-3v6l-3.9-6h-3v10.6h3v-5.9
		l3.9,5.9h3V31.5z M61.6,38.2l1.2-3.5l1.1,3.5H61.6z M65.2,42.1h3.1l-3.9-10.6h-3.4l-3.9,10.6h3.1l0.6-1.8h3.8L65.2,42.1z"/>
</g>
</svg>
