<?xml version="1.0" encoding="utf-8"?>
<!-- Generator: Adobe Illustrator 22.1.0, SVG Export Plug-In . SVG Version: 6.00 Build 0)  -->
<svg version="1.1" id="Layer_1" xmlns="http://www.w3.org/2000/svg" xmlns:xlink="http://www.w3.org/1999/xlink" x="0px" y="0px"
	 viewBox="0 0 286 89" style="enable-background:new 0 0 286 89;" xml:space="preserve">
<style type="text/css">
	.st0{fill:#EF4123;}
	.st1{fill:#020202;}
</style>
<rect x="0" y="0.1" class="st0" width="286" height="88.7"/>
<g>
	<path class="st1" d="M64.6,48.9v3.9H56V37.4h4.6v11.5H64.6z"/>
	<path class="st1" d="M69.4,48.3c0,1,0.5,2,2,2c1,0,1.6-0.5,1.7-1.1h4.2c-0.4,2.2-2.5,3.9-5.9,3.9c-4,0-6.3-2.3-6.3-5.8
		c0-3.2,2.1-5.8,6.2-5.8c4,0,6.2,2.5,6.2,5.1c0,0.5,0,1-0.1,1.6H69.4z M69.4,46.2h3.8c0-1.2-0.7-1.9-1.9-1.9
		C70.2,44.3,69.4,45,69.4,46.2z"/>
	<path class="st1" d="M91.5,41.9v10.9h-4.3v-1.6c-0.4,0.9-1.8,1.9-3.3,1.9c-3,0-5.1-2.3-5.1-5.7s2.1-5.7,5.1-5.7
		c1.6,0,2.9,1,3.3,1.9v-1.6H91.5z M87.2,47.4c0-1.2-0.8-2.2-2.1-2.2c-1.2,0-2,1-2,2.2c0,1.2,0.8,2.2,2,2.2
		C86.3,49.5,87.2,48.5,87.2,47.4z"/>
	<path class="st1" d="M93.8,37.4h4.1v6.1c0.6-1.1,1.8-1.9,3.5-1.9c1.3,0,2.2,0.4,2.7,1c0.8,0.9,1,2.2,1,3.8v6.4h-4.1v-5.5
		c0-1.3-0.4-2.1-1.5-2.1s-1.7,0.8-1.7,2.3v5.3h-4.1V37.4z"/>
	<path class="st1" d="M112.4,37.4h7.4c3.5,0,5.8,2.6,5.8,5.7c0,2.1-1.1,4-2.8,5l3.1,4.7h-5.4l-2.6-3.9H117v3.9h-4.6V37.4z
		 M120.9,43.2c0-1.2-0.8-2.2-2-2.2H117v4.4h1.9C120.1,45.3,120.9,44.4,120.9,43.2z"/>
	<path class="st1" d="M126.4,47.4c0-3.2,2.3-5.8,6.4-5.8c4.1,0,6.4,2.6,6.4,5.8c0,3.1-2.3,5.8-6.4,5.8
		C128.7,53.1,126.4,50.5,126.4,47.4z M134.8,47.4c0-1.2-0.8-2.2-2-2.2c-1.2,0-2,0.9-2,2.2c0,1.2,0.8,2.2,2,2.2
		C134,49.5,134.8,48.6,134.8,47.4z"/>
	<path class="st1" d="M151.3,49.5c0,2.9-2.5,3.7-5.5,3.7c-3.9,0-5.6-1.5-5.6-4h4.3c0,0.9,0.5,1.3,1.4,1.3c0.7,0,1.1-0.3,1.1-0.8
		c0-0.6-0.6-0.8-2.5-1.3c-2.1-0.5-4.1-1-4.1-3.3c0-2.5,1.9-3.5,5.5-3.5c4,0,5.2,1.6,5.2,3.7h-4.3c0-0.8-0.5-1.2-1.1-1.2
		c-0.5,0-1,0.2-1,0.8c0,0.6,0.9,0.8,2.6,1.3C149.5,46.7,151.3,47.2,151.3,49.5z"/>
	<path class="st1" d="M156.7,48.3c0,1,0.5,2,2,2c1,0,1.6-0.5,1.7-1.1h4.2c-0.4,2.2-2.5,3.9-5.9,3.9c-4,0-6.3-2.3-6.3-5.8
		c0-3.2,2.1-5.8,6.2-5.8c4,0,6.2,2.5,6.2,5.1c0,0.5,0,1-0.1,1.6H156.7z M156.7,46.2h3.8c0-1.2-0.7-1.9-1.9-1.9
		C157.4,44.3,156.7,45,156.7,46.2z"/>
	<path class="st1" d="M166.5,41.9h4.3v1.6c0.6-1.1,1.8-1.9,3.6-1.9c1.3,0,2.3,0.4,2.9,1c0.8,0.9,1,2.1,1,3.7v6.5H174v-5.5
		c0-1.3-0.4-2.1-1.5-2.1c-1.1,0-1.7,0.8-1.7,2.3v5.3h-4.3V41.9z"/>
	<path class="st1" d="M184.8,52.8h-4.3V37.4h4.3v6.1c0.4-0.9,1.8-1.9,3.3-1.9c3,0,5.1,2.3,5.1,5.7s-2.1,5.7-5.1,5.7
		c-1.5,0-2.9-1-3.3-1.9V52.8z M188.9,47.4c0-1.2-0.8-2.2-2-2.2c-1.2,0-2,1-2,2.2c0,1.2,0.8,2.2,2,2.2
		C188.1,49.5,188.9,48.5,188.9,47.4z"/>
	<path class="st1" d="M198.6,48.3c0,1,0.5,2,2,2c1,0,1.6-0.5,1.7-1.1h4.2c-0.4,2.2-2.5,3.9-5.9,3.9c-4,0-6.3-2.3-6.3-5.8
		c0-3.2,2.1-5.8,6.2-5.8c4,0,6.2,2.5,6.2,5.1c0,0.5,0,1-0.1,1.6H198.6z M198.6,46.2h3.8c0-1.2-0.7-1.9-1.9-1.9
		C199.4,44.3,198.6,45,198.6,46.2z"/>
	<path class="st1" d="M217.2,45.8c-0.6-0.2-0.9-0.2-1.5-0.2c-1.7,0-2.9,0.8-2.9,3.4v3.9h-4.3V41.9h4.3v1.7c0.5-1,1.7-2,3.3-2
		c0.5,0,0.8,0,1.1,0.2V45.8z"/>
	<path class="st1" d="M230.3,52.2c0,2.1-0.6,3.4-1.8,4.2c-1,0.7-2.4,1.1-4.6,1.1c-2.3,0-3.6-0.4-4.5-1.1c-1-0.8-1.7-1.9-1.7-3.1h4.3
		c0,0.7,0.7,1.4,1.9,1.4c1.3,0,2.1-0.6,2.1-2V51c-0.5,0.9-1.8,1.7-3.3,1.7c-3,0-5.1-1.9-5.1-5.3c0-3.4,1.9-5.7,5-5.7
		c1.5,0,2.8,0.7,3.4,1.9v-1.6h4.3V52.2z M221.9,47.4c0,1.2,0.8,2.2,2,2.2s2-1,2-2.2c0-1.2-0.8-2.2-2-2.2S221.9,46.2,221.9,47.4z"/>
</g>
</svg>
