<?xml version="1.0" encoding="utf-8"?>
<!-- Generator: Adobe Illustrator 22.1.0, SVG Export Plug-In . SVG Version: 6.00 Build 0)  -->
<svg version="1.1" id="Layer_1" xmlns="http://www.w3.org/2000/svg" xmlns:xlink="http://www.w3.org/1999/xlink" x="0px" y="0px"
	 viewBox="0 0 286 89" style="enable-background:new 0 0 286 89;" xml:space="preserve">
<style type="text/css">
	.st0{fill:#00ADEF;}
	.st1{clip-path:url(#SVGID_2_);fill:#020001;}
</style>
<rect x="0" y="0.1" class="st0" width="286" height="88.7"/>
<g>
	<defs>
		<rect id="SVGID_1_" x="0" y="0.1" width="286" height="88.7"/>
	</defs>
	<clipPath id="SVGID_2_">
		<use xlink:href="#SVGID_1_"  style="overflow:visible;"/>
	</clipPath>
	<path class="st1" d="M247.2,47.3c0-0.7-0.2-1.3-0.5-1.7c-0.3-0.4-0.7-0.8-1.1-1s-1-0.5-1.7-0.7c-0.6-0.2-1.1-0.4-1.3-0.6
		c-0.3-0.2-0.4-0.4-0.4-0.7c0-0.2,0.1-0.4,0.2-0.5c0.1-0.1,0.3-0.2,0.5-0.2c0.3,0,0.5,0.1,0.7,0.2c0.2,0.2,0.3,0.4,0.3,0.7h3.2
		c-0.1-1-0.5-1.8-1.2-2.4c-0.7-0.6-1.7-0.9-2.9-0.9c-0.8,0-1.4,0.1-2,0.4c-0.6,0.2-1.1,0.6-1.4,1.1c-0.3,0.5-0.5,1-0.5,1.7
		c0,0.7,0.2,1.3,0.5,1.7c0.3,0.4,0.7,0.8,1.1,1c0.4,0.2,1,0.4,1.7,0.7c0.6,0.2,1.1,0.4,1.4,0.6c0.3,0.2,0.4,0.4,0.4,0.7
		c0,0.2-0.1,0.4-0.2,0.6c-0.1,0.1-0.3,0.2-0.6,0.2c-0.3,0-0.5-0.1-0.7-0.3s-0.3-0.5-0.3-0.8H239c0.1,1.1,0.5,1.9,1.3,2.5
		s1.8,0.9,3,0.9c0.8,0,1.5-0.1,2.1-0.4c0.6-0.3,1-0.7,1.3-1.1S247.2,47.9,247.2,47.3 M235,39.8h-3v6l-3.9-6h-3v10.6h3v-5.9l3.9,5.9
		h3V39.8z M215.7,42.3c0.8,0,1.3,0.2,1.8,0.7c0.4,0.5,0.6,1.1,0.6,2c0,0.8-0.2,1.5-0.6,2c-0.4,0.5-1,0.7-1.8,0.7
		c-0.8,0-1.3-0.2-1.8-0.7c-0.4-0.5-0.6-1.1-0.6-2c0-0.8,0.2-1.5,0.6-2C214.4,42.6,215,42.3,215.7,42.3 M215.7,39.6
		c-1,0-1.9,0.2-2.7,0.7c-0.8,0.5-1.5,1.1-2,1.9c-0.5,0.8-0.7,1.8-0.7,2.8c0,1,0.2,2,0.7,2.8c0.5,0.8,1.1,1.5,2,1.9s1.7,0.7,2.7,0.7
		c1,0,1.9-0.2,2.7-0.7s1.5-1.1,2-1.9c0.5-0.8,0.7-1.8,0.7-2.8c0-1-0.2-2-0.7-2.8c-0.5-0.8-1.1-1.5-1.9-1.9
		C217.6,39.8,216.7,39.6,215.7,39.6 M201.2,42.3c0.8,0,1.3,0.2,1.8,0.7c0.4,0.5,0.6,1.1,0.6,2c0,0.8-0.2,1.5-0.6,2
		c-0.4,0.5-1,0.7-1.8,0.7c-0.8,0-1.3-0.2-1.8-0.7c-0.4-0.5-0.6-1.1-0.6-2c0-0.8,0.2-1.5,0.6-2C199.9,42.6,200.4,42.3,201.2,42.3
		 M201.2,39.6c-1,0-1.9,0.2-2.7,0.7c-0.8,0.5-1.5,1.1-2,1.9c-0.5,0.8-0.7,1.8-0.7,2.8c0,1,0.2,2,0.7,2.8c0.5,0.8,1.1,1.5,2,1.9
		c0.8,0.5,1.7,0.7,2.7,0.7c1,0,1.9-0.2,2.7-0.7s1.5-1.1,2-1.9c0.5-0.8,0.7-1.8,0.7-2.8c0-1-0.2-2-0.7-2.8c-0.5-0.8-1.1-1.5-2-1.9
		C203.1,39.8,202.2,39.6,201.2,39.6 M189,39.7h-3v10.6h6.3v-2.2H189V39.7z M178.9,39.7h-3v10.6h6.3v-2.2h-3.3V39.7z M165.6,46.4
		l1.2-3.5l1.1,3.5H165.6z M169.2,50.4h3.1l-3.9-10.6h-3.4l-3.9,10.6h3.1l0.6-1.8h3.8L169.2,50.4z M153.8,48h-1.7V46h1.7
		c0.8,0,1.2,0.3,1.2,1C155,47.7,154.6,48,153.8,48 M152.2,42.1h1.5c0.8,0,1.1,0.3,1.1,1c0,0.6-0.4,0.9-1.1,0.9h-1.5V42.1z M156,44.9
		c0.5-0.1,1-0.4,1.3-0.8c0.3-0.4,0.5-1,0.5-1.6c0-0.9-0.3-1.6-0.9-2c-0.6-0.5-1.4-0.7-2.5-0.7h-5.1v10.6h5.2c1.1,0,2-0.3,2.6-0.8
		c0.6-0.5,0.9-1.2,0.9-2.1c0-0.6-0.2-1.2-0.5-1.6C157.1,45.4,156.6,45.1,156,44.9 M134.3,42.3c0.8,0,1.3,0.2,1.8,0.7
		c0.4,0.5,0.6,1.1,0.6,2c0,0.8-0.2,1.5-0.6,2c-0.4,0.5-1,0.7-1.8,0.7c-0.8,0-1.3-0.2-1.8-0.7c-0.4-0.5-0.6-1.1-0.6-2
		c0-0.8,0.2-1.5,0.6-2C133,42.6,133.6,42.3,134.3,42.3 M134.3,39.6c-1,0-1.9,0.2-2.7,0.7c-0.8,0.5-1.5,1.1-2,1.9
		c-0.5,0.8-0.7,1.8-0.7,2.8c0,1,0.2,2,0.7,2.8c0.5,0.8,1.1,1.5,2,1.9c0.8,0.5,1.7,0.7,2.7,0.7c1,0,1.9-0.2,2.7-0.7s1.5-1.1,2-1.9
		c0.5-0.8,0.7-1.8,0.7-2.8c0-1-0.2-2-0.7-2.8c-0.5-0.8-1.1-1.5-1.9-1.9C136.2,39.8,135.3,39.6,134.3,39.6 M121.3,39.8l-2.5,6.9
		l-2.6-6.9h-3.6v10.6h3v-6l2,6h2.5l2-6v6h2.9V39.8H121.3z M105.2,50.4h3V39.7h-3V50.4z M100.9,39.8h-3v6l-3.9-6h-3v10.6h3v-5.9
		l3.9,5.9h3V39.8z M81.7,42.3c0.8,0,1.3,0.2,1.8,0.7c0.4,0.5,0.6,1.1,0.6,2c0,0.8-0.2,1.5-0.6,2c-0.4,0.5-1,0.7-1.8,0.7
		c-0.8,0-1.3-0.2-1.8-0.7c-0.4-0.5-0.6-1.1-0.6-2c0-0.8,0.2-1.5,0.6-2C80.3,42.6,80.9,42.3,81.7,42.3 M81.7,39.6
		c-1,0-1.9,0.2-2.7,0.7c-0.8,0.5-1.5,1.1-2,1.9c-0.5,0.8-0.7,1.8-0.7,2.8c0,1,0.2,2,0.7,2.8c0.5,0.8,1.1,1.5,2,1.9s1.7,0.7,2.7,0.7
		c1,0,1.9-0.2,2.7-0.7c0.8-0.5,1.5-1.1,2-1.9c0.5-0.8,0.7-1.8,0.7-2.8c0-1-0.2-2-0.7-2.8c-0.5-0.8-1.1-1.5-2-1.9
		C83.6,39.8,82.7,39.6,81.7,39.6 M67,42.2h1.5c0.4,0,0.7,0.1,0.9,0.3c0.2,0.2,0.3,0.5,0.3,0.8c0,0.7-0.4,1.1-1.2,1.1H67V42.2z
		 M72.7,50.4l-2.4-4.1c0.8-0.2,1.4-0.6,1.8-1.1c0.4-0.5,0.6-1.2,0.6-1.9c0-0.7-0.1-1.2-0.4-1.8s-0.7-0.9-1.3-1.2
		c-0.6-0.3-1.3-0.4-2.2-0.4h-4.7v10.6h3v-3.9h0.3l2.1,3.9H72.7z M60,42.1v-2.4h-6.8v10.6H60V48h-3.9v-1.9h3.4v-2.2h-3.4v-1.8H60z
		 M44.1,39.7c-1.1,0-2,0.2-2.8,0.7c-0.8,0.5-1.4,1.1-1.9,1.9C39,43.1,38.8,44,38.8,45s0.2,2,0.7,2.8c0.4,0.8,1.1,1.5,1.9,1.9
		c0.8,0.5,1.8,0.7,2.8,0.7c1.3,0,2.3-0.3,3.2-0.9c0.8-0.6,1.4-1.4,1.8-2.3v-2.9h-5.4v2.1h2.9c-0.2,0.5-0.5,0.8-0.9,1.1
		c-0.4,0.2-0.8,0.4-1.3,0.4c-0.9,0-1.5-0.2-2-0.7C42,46.7,41.8,46,41.8,45c0-0.8,0.2-1.5,0.6-1.9s1-0.7,1.7-0.7
		c0.4,0,0.8,0.1,1.1,0.3c0.3,0.2,0.5,0.4,0.7,0.7h3.1c-0.2-1.1-0.7-2-1.6-2.7C46.6,40,45.5,39.7,44.1,39.7"/>
</g>
</svg>
