<?xml version="1.0" encoding="utf-8"?>
<!-- Generator: Adobe Illustrator 22.1.0, SVG Export Plug-In . SVG Version: 6.00 Build 0)  -->
<svg version="1.1" id="Layer_1" xmlns="http://www.w3.org/2000/svg" xmlns:xlink="http://www.w3.org/1999/xlink" x="0px" y="0px"
	 viewBox="0 0 161 161" style="enable-background:new 0 0 161 161;" xml:space="preserve">
<style type="text/css">
	.st0{fill:#FDFEFE;}
</style>
<rect x="26.6" y="26.1" transform="matrix(0.7071 -0.7071 0.7071 0.7071 -33.3444 80.4994)" width="107.9" height="108.8"/>
<g>
	<path d="M80.8,160.7L0.3,80.2L80.2,0.3l80.5,80.5L80.8,160.7z M7.4,80.2l73.4,73.4l72.7-72.7L80.2,7.4L7.4,80.2z"/>
</g>
<g>
	<path class="st0" d="M57.1,73.9l-0.4-1.2h-3.5l-0.4,1.2h-2.4l3.5-9.8H56l3.5,9.8H57.1z M55,66.9l-1.2,4h2.4L55,66.9z"/>
	<path class="st0" d="M65.9,69.1C65.6,69,65.4,69,65.1,69c-1.2,0-1.9,0.6-1.9,2.3v2.6h-2.1v-6.8h2.1v1.1c0.3-0.6,1.1-1.2,2.1-1.2
		c0.3,0,0.4,0,0.6,0.1V69.1z"/>
	<path class="st0" d="M71.7,73.9C71.3,74,70.9,74,70.2,74c-1,0-2.4-0.1-2.4-2.4v-2.9h-1.1v-1.6h1.1v-2H70v2h1.5v1.6H70v2.4
		c0,1,0.4,1.1,0.9,1.1c0.3,0,0.6,0,0.8,0V73.9z"/>
	<path class="st0" d="M74.4,63.5c0.8,0,1.4,0.6,1.4,1.4c0,0.7-0.6,1.4-1.4,1.4c-0.8,0-1.4-0.6-1.4-1.4
		C73.1,64.1,73.7,63.5,74.4,63.5z M73.4,67.1h2.1v6.8h-2.1V67.1z"/>
	<path class="st0" d="M83.6,71.9c0,1.6-1.4,2.2-3.1,2.2c-1.9,0-3.1-0.9-3.1-2.4h2.1c0,0.7,0.4,1,1.1,1c0.5,0,0.9-0.2,0.9-0.6
		c0-0.5-0.5-0.6-1.8-1c-1.1-0.4-2.1-0.7-2.1-2c0-1.4,1.2-2.1,3-2.1c2,0,2.9,1,2.9,2.3h-2.1c0-0.6-0.3-0.9-0.9-0.9
		c-0.4,0-0.8,0.2-0.8,0.6c0,0.5,0.6,0.6,1.7,1C82.6,70.3,83.6,70.6,83.6,71.9z"/>
	<path class="st0" d="M89.6,73.9C89.3,74,88.8,74,88.1,74c-1,0-2.4-0.1-2.4-2.4v-2.9h-1.1v-1.6h1.1v-2h2.1v2h1.5v1.6h-1.5v2.4
		c0,1,0.4,1.1,0.9,1.1c0.3,0,0.6,0,0.8,0V73.9z"/>
	<path class="st0" d="M97,71.9c0,1.6-1.4,2.2-3.1,2.2c-1.9,0-3.1-0.9-3.1-2.4h2.1c0,0.7,0.4,1,1.1,1c0.5,0,0.9-0.2,0.9-0.6
		c0-0.5-0.5-0.6-1.8-1C92,70.6,91,70.3,91,69c0-1.4,1.2-2.1,3-2.1c2,0,2.9,1,2.9,2.3h-2.1c0-0.6-0.3-0.9-0.9-0.9
		c-0.4,0-0.8,0.2-0.8,0.6c0,0.5,0.6,0.6,1.7,1C96,70.3,97,70.6,97,71.9z"/>
	<path class="st0" d="M105.4,72.9v-2.1h-2.1V69h2.1v-2.1h1.8V69h2.1v1.7h-2.1v2.1H105.4z"/>
</g>
<g>
	<path class="st0" d="M40.4,85.4c-0.4,2.1-2.2,3.8-4.9,3.8c-3.3,0-5.3-2.4-5.3-5.2c0-2.7,1.9-5.1,5.1-5.1c3,0,4.7,1.8,5,4.1h-2.4
		c-0.2-1.1-1.1-2-2.5-2c-1.9,0-3,1.5-3,3.1c0,1.7,1.1,3.1,3.1,3.1c1.1,0,2.1-0.7,2.4-1.7H40.4z"/>
	<path class="st0" d="M41.9,85.5c0-1.9,1.4-3.6,3.7-3.6c2.4,0,3.8,1.6,3.8,3.6c0,1.9-1.4,3.6-3.8,3.6C43.3,89.1,41.9,87.4,41.9,85.5
		z M47.2,85.5c0-0.9-0.6-1.7-1.6-1.7c-1,0-1.6,0.8-1.6,1.7c0,1,0.6,1.7,1.6,1.7C46.6,87.2,47.2,86.5,47.2,85.5z"/>
	<path class="st0" d="M51.3,79.1h2.1v9.8h-2.1V79.1z"/>
	<path class="st0" d="M55.8,79.1h2.1v9.8h-2.1V79.1z"/>
	<path class="st0" d="M67.4,82.1v6.8h-2.1v-1c-0.3,0.6-1.2,1.1-2.1,1.1c-1.9,0-3.3-1.5-3.3-3.5c0-2,1.3-3.5,3.3-3.5
		c0.9,0,1.7,0.5,2.1,1.1v-1H67.4z M65.2,85.5c0-0.9-0.6-1.7-1.6-1.7c-1,0-1.6,0.8-1.6,1.7c0,0.9,0.6,1.7,1.6,1.7
		C64.6,87.2,65.2,86.5,65.2,85.5z"/>
	<path class="st0" d="M71.9,88.9h-2.1v-9.8h2.1v4c0.3-0.6,1.2-1.1,2.1-1.1c1.9,0,3.3,1.5,3.3,3.5c0,2-1.3,3.5-3.3,3.5
		c-0.9,0-1.8-0.5-2.1-1.1V88.9z M75.1,85.5c0-0.9-0.6-1.7-1.6-1.7c-1,0-1.6,0.8-1.6,1.7c0,0.9,0.6,1.7,1.6,1.7
		C74.5,87.2,75.1,86.5,75.1,85.5z"/>
	<path class="st0" d="M78.7,85.5c0-1.9,1.4-3.6,3.7-3.6c2.4,0,3.8,1.6,3.8,3.6c0,1.9-1.4,3.6-3.8,3.6C80.2,89.1,78.7,87.4,78.7,85.5
		z M84.1,85.5c0-0.9-0.6-1.7-1.6-1.7c-1,0-1.6,0.8-1.6,1.7c0,1,0.6,1.7,1.6,1.7C83.5,87.2,84.1,86.5,84.1,85.5z"/>
	<path class="st0" d="M93,84.1C92.7,84,92.5,84,92.2,84c-1.2,0-1.9,0.6-1.9,2.3v2.6h-2.1v-6.8h2.1v1.1c0.3-0.6,1.1-1.2,2.1-1.2
		c0.3,0,0.4,0,0.6,0.1V84.1z"/>
	<path class="st0" d="M101.4,82.1v6.8h-2.1v-1c-0.3,0.6-1.2,1.1-2.1,1.1c-1.9,0-3.3-1.5-3.3-3.5c0-2,1.3-3.5,3.3-3.5
		c0.9,0,1.7,0.5,2.1,1.1v-1H101.4z M99.3,85.5c0-0.9-0.6-1.7-1.6-1.7s-1.6,0.8-1.6,1.7c0,0.9,0.6,1.7,1.6,1.7S99.3,86.5,99.3,85.5z"
		/>
	<path class="st0" d="M108,88.9c-0.3,0.1-0.8,0.1-1.4,0.1c-1,0-2.4-0.1-2.4-2.4v-2.9h-1.1v-1.6h1.1v-2h2.1v2h1.5v1.6h-1.5v2.4
		c0,1,0.4,1.1,0.9,1.1c0.3,0,0.6,0,0.8,0V88.9z"/>
	<path class="st0" d="M109.2,85.5c0-1.9,1.4-3.6,3.7-3.6c2.4,0,3.8,1.6,3.8,3.6c0,1.9-1.4,3.6-3.8,3.6
		C110.6,89.1,109.2,87.4,109.2,85.5z M114.6,85.5c0-0.9-0.6-1.7-1.6-1.7c-1,0-1.6,0.8-1.6,1.7c0,1,0.6,1.7,1.6,1.7
		C113.9,87.2,114.6,86.5,114.6,85.5z"/>
	<path class="st0" d="M123.4,84.1c-0.3-0.1-0.5-0.1-0.8-0.1c-1.2,0-1.9,0.6-1.9,2.3v2.6h-2.1v-6.8h2.1v1.1c0.3-0.6,1.1-1.2,2.1-1.2
		c0.3,0,0.4,0,0.6,0.1V84.1z"/>
	<path class="st0" d="M130.6,86.9c0,1.6-1.4,2.2-3.1,2.2c-1.9,0-3.1-0.9-3.1-2.4h2.1c0,0.7,0.4,1,1.1,1c0.5,0,0.9-0.2,0.9-0.6
		c0-0.5-0.5-0.6-1.8-1c-1.1-0.4-2.1-0.7-2.1-2c0-1.4,1.2-2.1,3-2.1c2,0,2.9,1,2.9,2.3h-2.1c0-0.6-0.3-0.9-0.9-0.9
		c-0.4,0-0.8,0.2-0.8,0.6c0,0.5,0.6,0.6,1.7,1C129.6,85.3,130.6,85.6,130.6,86.9z"/>
</g>
</svg>
