<?xml version="1.0" encoding="utf-8"?>
<!-- Generator: Adobe Illustrator 22.1.0, SVG Export Plug-In . SVG Version: 6.00 Build 0)  -->
<svg version="1.1" id="Layer_1" xmlns="http://www.w3.org/2000/svg" xmlns:xlink="http://www.w3.org/1999/xlink" x="0px" y="0px"
	 viewBox="0 0 286 89" style="enable-background:new 0 0 286 89;" xml:space="preserve">
<style type="text/css">
	.st0{fill:#FFDB00;}
	.st1{clip-path:url(#SVGID_2_);}
</style>
<rect x="0" y="0.1" class="st0" width="286" height="88.7"/>
<g>
	<defs>
		<rect id="SVGID_1_" x="0" y="0.1" width="286" height="88.7"/>
	</defs>
	<clipPath id="SVGID_2_">
		<use xlink:href="#SVGID_1_"  style="overflow:visible;"/>
	</clipPath>
	<path class="st1" d="M221.5,59.7V30.4h-2.8v18.3l-0.5-4l-2.4-14.3h-3.5v29.3h2.9V41.3l0.7,4l2.9,14.5H221.5z M208.7,59.7v-3.5H205
		v-9.8h2.5v-3.5H205v-8.9h3.7v-3.5h-7.1v29.3H208.7z M194.2,42.6c0,0.9-0.2,1.2-0.6,1.2h-0.9v-9.9h0.9c0.4,0,0.6,0.4,0.6,1.2V42.6z
		 M198.1,59.7v-0.1c-0.2-1.4-0.4-2.9-0.4-4.8v-6.2c0-1.4-0.7-2.3-1.7-3c0.9-0.8,1.6-1.7,1.6-3V35c0-3.7-2.2-4.6-3.9-4.6h-4.4v29.3
		h3.4V47.1h0.8c0.5,0,0.7,0.5,0.7,1.1v6.9c0,1.5,0.3,4.5,0.8,4.5H198.1z M185.5,59.7V45.4h-4.2v3.1h0.8v7.1c0,0.7-0.4,1.1-0.9,1.1
		c-0.6,0-0.9-0.4-0.9-1.1V34.8c0-0.7,0.4-1.1,0.9-1.1c0.6,0,1,0.4,1,1.1v6.2h3.1v-6c0-2.9-1.7-5-4.1-5c-2.4,0-4.2,2.1-4.2,5v20
		c0,3.3,1.5,5,3.8,5c0.9,0,1.8-0.4,2.3-1.5l0.3,1.1H185.5z M174,59.7v-3.4h-3.5V30.4h-3.4v29.3H174z M163,59.7V30.4h-3.4v13h-1.8
		v-13h-3.4v29.3h3.4V47.1h1.8v12.6H163z M147.1,50.6h-1.5l0.9-12.9L147.1,50.6z M151,59.7l-2.7-29.3h-3.8l-2.6,29.3h3l0.4-5.3h2
		l0.2,5.3H151z M135.5,55c0,0.8-0.3,1.2-0.8,1.2h-0.9V33.9h0.9c0.6,0,0.8,0.4,0.8,1.2V55z M138.9,55.1V35c0-3.7-2.2-4.6-3.9-4.6
		h-4.7v29.3h4.7C136.8,59.7,138.9,58.8,138.9,55.1 M116.9,55c0,0.8-0.2,1.2-0.7,1.2h-0.9v-9.7h0.9c0.4,0,0.7,0.4,0.7,1.2V55z
		 M116.9,42.1c0,0.8-0.2,1.2-0.7,1.2h-0.9v-9.3h0.9c0.4,0,0.7,0.4,0.7,1.2V42.1z M120.2,55.1v-7.3c0-1.4-0.6-2.2-1.6-3
		c1-0.7,1.6-1.6,1.6-3V35c0-3.7-2.2-4.6-3.9-4.6h-4.4v29.3h4.4C118.1,59.7,120.2,58.8,120.2,55.1 M104.4,55.3c0,0.7-0.3,1.1-0.9,1.1
		s-0.9-0.4-0.9-1.1V34.8c0-0.7,0.3-1.1,0.9-1.1s0.9,0.4,0.9,1.1V55.3z M107.9,55v-20c0-2.9-1.9-5-4.4-5c-2.4,0-4.4,2.1-4.4,5v20
		c0,3,2,5,4.4,5C105.9,60.1,107.9,58,107.9,55 M95.7,55v-5.6h-2.9v5.8c0,0.7-0.3,1.2-1,1.2c-0.7,0-1-0.5-1-1.2V34.9
		c0-0.7,0.3-1.2,1-1.2c0.7,0,1,0.5,1,1.2v5.7h2.9v-5.6c0-2.9-1.4-5-3.9-5c-2.4,0-4.4,2.1-4.4,5v20c0,3,2.1,5,4.4,5
		C94.3,60.1,95.7,58,95.7,55 M80.4,50.6h-1.5l0.9-12.9L80.4,50.6z M84.3,59.7l-2.7-29.3h-3.8l-2.6,29.3h3l0.4-5.3h2l0.2,5.3H84.3z
		 M72.2,55.3V30.4h-3.4v24.9c0,0.7-0.3,1.1-0.9,1.1S67,56,67,55.3v-7.3h-3.1v7.3c0,2.8,1.8,4.8,4.2,4.8S72.2,58.1,72.2,55.3"/>
</g>
</svg>
