<?xml version="1.0" encoding="utf-8"?>
<!-- Generator: Adobe Illustrator 22.1.0, SVG Export Plug-In . SVG Version: 6.00 Build 0)  -->
<svg version="1.1" id="Layer_1" xmlns="http://www.w3.org/2000/svg" xmlns:xlink="http://www.w3.org/1999/xlink" x="0px" y="0px"
	 viewBox="0 0 286 89" style="enable-background:new 0 0 286 89;" xml:space="preserve">
<style type="text/css">
	.st0{fill:#A0643E;}
	.st1{clip-path:url(#SVGID_2_);}
</style>
<rect x="0" y="0.1" class="st0" width="286" height="88.7"/>
<g>
	<defs>
		<rect id="SVGID_1_" x="0" y="0.1" width="286" height="88.7"/>
	</defs>
	<clipPath id="SVGID_2_">
		<use xlink:href="#SVGID_1_"  style="overflow:visible;"/>
	</clipPath>
	<path class="st1" d="M188.9,40.4c-1.1,0-2,0.2-2.8,0.7c-0.8,0.5-1.4,1.1-1.9,1.9s-0.7,1.7-0.7,2.8s0.2,2,0.7,2.8s1.1,1.5,1.9,1.9
		c0.8,0.5,1.8,0.7,2.8,0.7c1.3,0,2.3-0.3,3.2-0.9c0.8-0.6,1.4-1.4,1.8-2.3v-2.9h-5.4v2.1h2.9c-0.2,0.5-0.5,0.8-0.9,1.1
		c-0.4,0.2-0.8,0.4-1.3,0.4c-0.9,0-1.5-0.2-2-0.7c-0.5-0.5-0.7-1.2-0.7-2.1c0-0.8,0.2-1.5,0.6-1.9c0.4-0.5,1-0.7,1.7-0.7
		c0.4,0,0.8,0.1,1.1,0.3c0.3,0.2,0.5,0.4,0.7,0.7h3.1c-0.2-1.1-0.7-2-1.6-2.7C191.4,40.7,190.3,40.4,188.9,40.4 M179.6,40.5h-3v6
		l-3.9-6h-3v10.6h3v-5.9l3.9,5.9h3V40.5z M159.5,47.1l1.2-3.5l1.1,3.5H159.5z M163.1,51.1h3.1l-3.9-10.6h-3.4L155,51.1h3.1l0.6-1.8
		h3.8L163.1,51.1z M148.6,40.5v7.1c0,0.7-0.3,1-0.8,1c-0.6,0-0.9-0.4-0.9-1.3h-2.9c0,1.3,0.4,2.3,1.1,3c0.7,0.7,1.7,1,2.9,1
		c1.1,0,2-0.3,2.7-0.9c0.6-0.6,0.9-1.5,0.9-2.7v-7.1H148.6z M134.7,40.5h-3v6l-3.9-6h-3v10.6h3v-5.9l3.9,5.9h3V40.5z M117.6,51.1h3
		V40.5h-3V51.1z M108.1,43h1.5c0.4,0,0.7,0.1,0.9,0.3s0.3,0.5,0.3,0.8c0,0.7-0.4,1.1-1.2,1.1h-1.5V43z M113.8,51.1l-2.4-4.1
		c0.8-0.2,1.4-0.6,1.8-1.1c0.4-0.5,0.6-1.2,0.6-1.9c0-0.7-0.2-1.2-0.4-1.8c-0.3-0.5-0.7-0.9-1.3-1.2c-0.6-0.3-1.3-0.4-2.2-0.4h-4.7
		v10.6h3v-3.9h0.3l2.1,3.9H113.8z M101.1,42.8v-2.4h-6.8v10.6h6.8v-2.4h-3.9v-1.9h3.4v-2.2h-3.4v-1.8H101.1z"/>
</g>
</svg>
