<?xml version="1.0" encoding="utf-8"?>
<!-- Generator: Adobe Illustrator 22.1.0, SVG Export Plug-In . SVG Version: 6.00 Build 0)  -->
<svg version="1.1" id="Layer_1" xmlns="http://www.w3.org/2000/svg" xmlns:xlink="http://www.w3.org/1999/xlink" x="0px" y="0px"
	 viewBox="0 0 286 89" style="enable-background:new 0 0 286 89;" xml:space="preserve">
<style type="text/css">
	.st0{fill:#FFFFFF;}
	.st1{clip-path:url(#SVGID_2_);}
</style>
<rect x="0" y="0.1" class="st0" width="286" height="88.7"/>
<g>
	<defs>
		<rect id="SVGID_1_" x="0" y="0.1" width="286" height="88.7"/>
	</defs>
	<clipPath id="SVGID_2_">
		<use xlink:href="#SVGID_1_"  style="overflow:visible;"/>
	</clipPath>
	<path class="st1" d="M228.9,51.1c0.1,0,0.3-0.1,0.3-0.3v-5c0-0.2,0-0.3,0.1-0.5l5.5-8c0.1-0.1,0-0.2-0.1-0.2h-5.3
		c-0.2,0-0.3,0.1-0.4,0.3l-2.3,3.7l-2.6-3.7c-0.1-0.1-0.3-0.2-0.4-0.2h-5.4c-0.1,0-0.2,0.1-0.1,0.2l5.9,8c0.1,0.1,0.2,0.4,0.2,0.5v5
		c0,0.2,0.1,0.3,0.3,0.3H228.9z M212.2,45.5h-2.5l1.2-3.9L212.2,45.5z M214.2,37.4c-0.1-0.1-0.2-0.3-0.4-0.3h-5.9
		c-0.2,0-0.3,0.1-0.4,0.3l-4.8,13.5c-0.1,0.1,0,0.3,0.2,0.3h4.8c0.1,0,0.3-0.1,0.4-0.3l0.6-1.7c0.1-0.1,0.2-0.3,0.4-0.3h3.8
		c0.1,0,0.3,0.1,0.4,0.3l0.6,1.7c0.1,0.1,0.2,0.3,0.4,0.3h4.8c0.2,0,0.3-0.1,0.2-0.3L214.2,37.4z M192.4,47.2v-6.2h0.7
		c0.7,0,2.8,0,2.8,3.1c0,3.1-2.5,3.1-2.5,3.1H192.4z M192.4,37.1h-4.6c-0.1,0-0.3,0.1-0.3,0.3v13.4c0,0.2,0.1,0.3,0.3,0.3h4.6
		c4.1,0,8.4-0.7,8.4-7S195.2,37.1,192.4,37.1 M172,51.1c0.1,0,0.3-0.1,0.3-0.3v-5c0-0.2,0-0.3,0.1-0.5l5.5-8c0.1-0.1,0-0.2-0.1-0.2
		h-5.3c-0.2,0-0.3,0.1-0.4,0.3l-2.3,3.7l-2.6-3.7c-0.1-0.1-0.3-0.2-0.4-0.2h-5.4c-0.1,0-0.2,0.1-0.1,0.2l5.9,8
		c0.1,0.1,0.2,0.4,0.2,0.5v5c0,0.2,0.1,0.3,0.3,0.3H172z M153.7,43.6h-1.4v-2.5h1.4c0.7,0,1.4,0.4,1.4,1.3S154.4,43.6,153.7,43.6
		 M147.7,37.1c-0.1,0-0.3,0.1-0.3,0.3v13.4c0,0.2,0.1,0.3,0.3,0.3h4.4c0.1,0,0.3-0.1,0.3-0.3v-3.6h1.7c2.8,0,6-1.4,6-4.9
		s-3.2-5.2-6-5.2H147.7z M138,43.6h-1.4v-2.5h1.4c0.7,0,1.4,0.4,1.4,1.3S138.7,43.6,138,43.6 M132,37.1c-0.1,0-0.3,0.1-0.3,0.3v13.4
		c0,0.2,0.1,0.3,0.3,0.3h4.4c0.1,0,0.3-0.1,0.3-0.3v-3.6h1.7c2.8,0,6-1.4,6-4.9s-3.2-5.2-6-5.2H132z M122,45.5h-2.5l1.2-3.9
		L122,45.5z M123.9,37.4c-0.1-0.1-0.2-0.3-0.4-0.3h-5.9c-0.2,0-0.3,0.1-0.4,0.3l-4.8,13.5c-0.1,0.1,0,0.3,0.2,0.3h4.8
		c0.1,0,0.3-0.1,0.4-0.3l0.6-1.7c0.1-0.1,0.2-0.3,0.4-0.3h3.8c0.1,0,0.3,0.1,0.4,0.3l0.6,1.7c0.1,0.1,0.2,0.3,0.4,0.3h4.8
		c0.2,0,0.3-0.1,0.2-0.3L123.9,37.4z M96.3,50.9c0,0.2,0.1,0.3,0.3,0.3h4.3c0.1,0,0.3-0.1,0.3-0.3v-5h3.6v5c0,0.2,0.1,0.3,0.3,0.3
		h4.3c0.2,0,0.3-0.1,0.3-0.3V37.4c0-0.1-0.1-0.3-0.3-0.3h-4.3c-0.1,0-0.3,0.1-0.3,0.3v4.5h-3.6v-4.5c0-0.1-0.1-0.3-0.3-0.3h-4.3
		c-0.2,0-0.3,0.1-0.3,0.3V50.9z M71.7,50.9c0,0.2,0.1,0.3,0.3,0.3h4.3c0.1,0,0.3-0.1,0.3-0.3v-5h3.6v5c0,0.2,0.1,0.3,0.3,0.3h4.3
		c0.2,0,0.3-0.1,0.3-0.3V37.4c0-0.1-0.1-0.3-0.3-0.3h-4.3c-0.1,0-0.3,0.1-0.3,0.3v4.5h-3.6v-4.5c0-0.1-0.1-0.3-0.3-0.3H72
		c-0.2,0-0.3,0.1-0.3,0.3V50.9z M60.4,47.3c-2,0-3.1-1.5-3.1-3.2s1.1-3.1,3.1-3.1c2,0,3.1,1.4,3.1,3.1
		C63.5,45.8,62.3,47.3,60.4,47.3 M60.4,36.9c-4.5,0-7.9,3.1-7.9,7.3s3.4,7.4,7.9,7.4c4.5,0,7.9-3.2,7.9-7.4S64.8,36.9,60.4,36.9"/>
</g>
</svg>
