<?xml version="1.0" encoding="utf-8"?>
<!-- Generator: Adobe Illustrator 22.1.0, SVG Export Plug-In . SVG Version: 6.00 Build 0)  -->
<svg version="1.1" id="Layer_1" xmlns="http://www.w3.org/2000/svg" xmlns:xlink="http://www.w3.org/1999/xlink" x="0px" y="0px"
	 viewBox="0 0 118 118" style="enable-background:new 0 0 118 118;" xml:space="preserve">
<style type="text/css">
	.st0{fill:#FFFFFF;}
</style>
<g>
	<path d="M59,115c30.9,0,56-25.1,56-56S89.9,3,59,3S3,28.1,3,59S28.1,115,59,115"/>
	<path d="M59,117.5C26.7,117.5,0.5,91.3,0.5,59S26.7,0.5,59,0.5s58.5,26.3,58.5,58.5C117.5,91.3,91.3,117.5,59,117.5z M59,5.5
		C29.5,5.5,5.5,29.5,5.5,59s24,53.5,53.5,53.5s53.5-24,53.5-53.5S88.5,5.5,59,5.5z"/>
</g>
<g>
	<g>
		<g>
			<path class="st0" d="M42.8,44.7h4.6c2.6,0,3,1.6,3,2.6c0,1.2-0.9,2-1.6,2.1c0.6,0.1,1.7,0.8,1.7,2.2c0,1-0.5,2.6-3.1,2.6h-4.6
				C42.8,54.2,42.8,44.7,42.8,44.7z M46.5,48.4c0.8,0,1.1-0.5,1.1-1c0-0.4-0.2-0.9-1.1-0.9h-0.9v1.9H46.5z M45.6,50.2v1.9h0.9
				c0.8,0,1.1-0.5,1.1-1c0-0.4-0.2-1-1.1-1L45.6,50.2L45.6,50.2z"/>
			<path class="st0" d="M53.9,44.7h2.8v6.1c0,0.6,0.5,1.2,1.1,1.2c0.7,0,1.1-0.5,1.1-1.2v-6.1h2.8v6.2c0,2.1-1.5,3.5-3.9,3.5
				s-3.9-1.5-3.9-3.5C53.9,50.9,53.9,44.7,53.9,44.7z"/>
			<path class="st0" d="M69.2,54.1h-3.1l1.6-3.3l-3.1-6.1h3.3l1.5,3.4l1.4-3.4h3.1L69.2,54.1z"/>
		</g>
	</g>
	<g>
		<g>
			<path class="st0" d="M25.8,64h-1.9v-2.4h6.6V64h-1.9v7h-2.8C25.8,71,25.8,64,25.8,64z"/>
			<path class="st0" d="M33.8,61.6h2.8V71h-2.8V61.6z"/>
			<path class="st0" d="M50.1,67.3c-0.3,2.2-2,4-4.9,4c-3.2,0-5.1-2.3-5.1-5c0-2.6,1.9-5,5-5c3,0,4.7,1.9,5,4.1h-2.9
				c-0.2-0.9-0.8-1.6-2-1.6c-1.5,0-2.3,1.1-2.3,2.4c0,1.4,0.9,2.4,2.3,2.4c1,0,1.8-0.6,1.9-1.4L50.1,67.3L50.1,67.3z"/>
			<path class="st0" d="M56.2,67.2V71h-2.8v-9.5h2.8v3.9l2.6-3.9h3.3l-3.4,4.7l3.4,4.7h-3.3L56.2,67.2z"/>
			<path class="st0" d="M67.9,63.7v1.6h3.2v2h-3.2v1.6h3.2V71h-6v-9.5h6v2.1h-3.2V63.7z"/>
			<path class="st0" d="M76.3,64h-1.9v-2.4H81V64h-1.9v7h-2.8C76.3,71,76.3,64,76.3,64z"/>
			<path class="st0" d="M86.8,67.9c0,0.9,0.5,1.3,1.2,1.3c0.6,0,0.9-0.3,0.9-0.8s-0.4-0.7-1.4-1.1c-1.7-0.7-3.3-1.2-3.3-3.2
				c0-1.9,1.8-2.7,3.7-2.7c2.7,0,3.6,1.6,3.6,3.1h-2.8c0-0.8-0.3-1.2-0.9-1.2c-0.5,0-0.9,0.2-0.9,0.7s0.4,0.8,1.3,1.1
				c1.6,0.6,3.4,1.2,3.4,3.1s-1.5,3.1-3.8,3.1S84,70.1,84,67.9H86.8z"/>
		</g>
	</g>
</g>
</svg>
