<?xml version="1.0" encoding="utf-8"?>
<!-- Generator: Adobe Illustrator 22.1.0, SVG Export Plug-In . SVG Version: 6.00 Build 0)  -->
<svg preserveAspectRatio="xMinYMid" version="1.1" id="contact" xmlns="http://www.w3.org/2000/svg" xmlns:xlink="http://www.w3.org/1999/xlink" x="0px" y="0px"
	 viewBox="0 0 455 59" style="enable-background:new 0 0 455 59;" xml:space="preserve">
<style type="text/css">
	.st0{display:none;}
	.st1{display:inline;}
</style>
<g class="st0">
	<rect x="10.9" y="47.7" class="st1" width="130.8" height="5"/>
	<path class="st1" d="M141.7,40.3c-0.5,0.1-1.3,0.1-1.9,0.1c-1.3,0-2.3-0.4-2.3-2.9v-6h3.9v-4h-3.9v-5h-5.3v5h-2.7v4h2.7v7.2
		c0,5.6,3.5,5.9,6,5.9c1.6,0,2.8-0.1,3.6-0.3v-4H141.7z M128.4,34.2c-0.4-3.6-3-7.1-8.7-7.1c-5.9,0-9.1,4.2-9.1,8.9s3.2,8.9,9.1,8.9
		c5.4,0,8.2-3,8.8-6.8h-5.4c-0.5,1.4-1.3,2.2-3.1,2.2c-2.8,0-4-2-4-4.3s1.2-4.3,3.7-4.3c2.2,0,3.1,1,3.3,2.5
		C123,34.2,128.4,34.2,128.4,34.2z M103.3,27.6V30c-0.8-1.5-3-2.8-5.1-2.8c-4.9,0-8.2,3.8-8.2,8.9s3.4,8.9,8.2,8.9
		c2.2,0,4.3-1.3,5.1-2.8v2.4h5.4v-17H103.3z M99.2,40.3c-2.4,0-4-2-4-4.3s1.6-4.3,4-4.3s4,2,4,4.3C103.3,38.3,101.6,40.3,99.2,40.3
		 M88.7,40.3c-0.5,0.1-1.3,0.1-1.9,0.1c-1.3,0-2.3-0.4-2.3-2.9v-6h3.8v-4h-3.8v-5h-5.3v5h-2.7v4h2.7v7.2c0,5.6,3.5,5.9,6,5.9
		c1.6,0,2.8-0.1,3.6-0.3L88.7,40.3L88.7,40.3z M58,44.4h5.4V36c0-2.6,1.1-4.3,3.3-4.3c2.2,0,3,1.7,3,4.1v8.6h5.4v-10
		c0-2.4-0.3-4.1-1.3-5.4c-0.9-1.2-2.6-1.9-4.7-1.9c-2.6,0-4.6,1.1-5.5,2.9v-2.5H58V44.4z M46.6,40.3c-2.4,0-4-1.9-4-4.3
		c0-2.3,1.6-4.3,4-4.3c2.5,0,4.1,2,4.1,4.3C50.7,38.4,49,40.3,46.6,40.3 M46.6,44.9c5.9,0,9.4-4.1,9.4-8.9s-3.5-8.9-9.4-8.9
		c-5.8,0-9.3,4.1-9.3,8.9C37.2,40.8,40.8,44.9,46.6,44.9 M29.4,35.6c-0.7,2.5-3.1,4.3-5.9,4.3c-4.9,0-7.7-3.5-7.7-7.8
		c0-4,2.6-7.7,7.4-7.7c3.5,0,5.7,2.2,6.2,5h5.9c-0.7-5.6-4.9-10.1-12.5-10.1c-8,0-12.8,6.2-12.8,12.8C10,39,14.9,45,23.2,45
		c6.8,0,11.3-4.2,12.2-9.4H29.4z"/>
</g>
<g>
	<path d="M143,39.6c-0.5,0.1-1.3,0.1-1.9,0.1c-1.3,0-2.3-0.4-2.3-2.9v-6h3.9v-4h-3.9v-5h-5.3v5h-2.7v4h2.7V38c0,5.6,3.5,5.9,6,5.9
		c1.6,0,2.8-0.1,3.6-0.3v-4H143z M129.7,33.4c-0.4-3.6-3-7.1-8.7-7.1c-5.9,0-9.1,4.2-9.1,8.9s3.2,8.9,9.1,8.9c5.4,0,8.2-3,8.7-6.8
		h-5.4c-0.5,1.4-1.3,2.2-3.1,2.2c-2.8,0-4-2-4-4.3s1.2-4.3,3.7-4.3c2.2,0,3.1,1,3.3,2.5H129.7z M104.5,26.8v2.4
		c-0.8-1.5-3-2.8-5.1-2.8c-4.9,0-8.2,3.8-8.2,8.9s3.4,8.9,8.2,8.9c2.2,0,4.3-1.3,5.1-2.8v2.4h5.4v-17H104.5z M100.5,39.6
		c-2.4,0-4-2-4-4.3s1.6-4.3,4-4.3s4,2,4,4.3S102.9,39.6,100.5,39.6 M90,39.6c-0.5,0.1-1.3,0.1-1.9,0.1c-1.3,0-2.3-0.4-2.3-2.9v-6
		h3.8v-4h-3.8v-5h-5.3v5h-2.7v4h2.7V38c0,5.6,3.5,5.9,6,5.9c1.6,0,2.8-0.1,3.6-0.3L90,39.6L90,39.6z M59.2,43.7h5.4v-8.5
		c0-2.6,1.1-4.3,3.3-4.3c2.2,0,3,1.7,3,4.1v8.6h5.4v-10c0-2.4-0.3-4.1-1.3-5.4c-0.9-1.2-2.6-1.9-4.7-1.9c-2.6,0-4.6,1.1-5.5,2.9
		v-2.5h-5.4v17H59.2z M47.9,39.6c-2.4,0-4-1.9-4-4.3c0-2.3,1.6-4.3,4-4.3c2.5,0,4.1,2,4.1,4.3C51.9,37.6,50.3,39.6,47.9,39.6
		 M47.9,44.2c5.9,0,9.4-4.1,9.4-8.9s-3.5-8.9-9.4-8.9c-5.8,0-9.3,4.1-9.3,8.9C38.5,40.1,42.1,44.2,47.9,44.2 M30.6,34.9
		c-0.7,2.5-3.1,4.3-5.9,4.3c-4.9,0-7.7-3.5-7.7-7.8c0-4,2.6-7.7,7.4-7.7c3.5,0,5.7,2.2,6.2,5h5.9c-0.7-5.6-4.9-10.1-12.5-10.1
		c-8,0-12.8,6.2-12.8,12.8c0,6.9,4.9,12.9,13.2,12.9c6.8,0,11.3-4.2,12.2-9.4H30.6z"/>
</g>
</svg>
