<?xml version="1.0" encoding="utf-8"?>
<!-- Generator: Adobe Illustrator 22.1.0, SVG Export Plug-In . SVG Version: 6.00 Build 0)  -->
<svg version="1.1" id="Layer_1" xmlns="http://www.w3.org/2000/svg" xmlns:xlink="http://www.w3.org/1999/xlink" x="0px" y="0px"
	 viewBox="0 0 286 89" style="enable-background:new 0 0 286 89;" xml:space="preserve">
<style type="text/css">
	.st0{fill:#374148;}
	.st1{clip-path:url(#SVGID_2_);fill:#FFFFFF;}
</style>
<rect y="0.3" class="st0" width="286" height="88.7"/>
<g>
	<defs>
		<rect id="SVGID_1_" y="0.3" width="286" height="88.7"/>
	</defs>
	<clipPath id="SVGID_2_">
		<use xlink:href="#SVGID_1_"  style="overflow:visible;"/>
	</clipPath>
	<path class="st1" d="M217.4,57.2l-2.5,6.9l-2.6-6.9h-3.6v10.6h3v-6l2,6h2.5l2-6v6h2.9V57.2H217.4z M195.3,57.1v6.1
		c0,1,0.2,1.9,0.6,2.6c0.4,0.7,0.9,1.2,1.6,1.6c0.7,0.3,1.5,0.5,2.3,0.5s1.7-0.2,2.4-0.5c0.7-0.4,1.3-0.9,1.7-1.6
		c0.4-0.7,0.6-1.5,0.6-2.5v-6.1h-2.9v6.1c0,0.6-0.1,1-0.4,1.4c-0.3,0.3-0.7,0.5-1.2,0.5c-0.5,0-0.9-0.2-1.2-0.5
		c-0.3-0.3-0.4-0.8-0.4-1.4v-6.1H195.3z M191.3,59.5v-2.4h-6.8v10.6h6.8v-2.4h-3.9v-1.9h3.4v-2.2h-3.4v-1.8H191.3z M180.5,64.7
		c0-0.7-0.2-1.3-0.5-1.7c-0.3-0.4-0.7-0.8-1.1-1c-0.4-0.2-1-0.5-1.7-0.7c-0.6-0.2-1.1-0.4-1.3-0.6c-0.3-0.2-0.4-0.4-0.4-0.7
		c0-0.2,0.1-0.4,0.2-0.5c0.1-0.1,0.3-0.2,0.5-0.2c0.3,0,0.5,0.1,0.7,0.2c0.2,0.2,0.3,0.4,0.3,0.7h3.2c-0.1-1-0.5-1.8-1.2-2.4
		c-0.7-0.6-1.7-0.9-2.9-0.9c-0.8,0-1.4,0.1-2,0.4c-0.6,0.2-1.1,0.6-1.4,1.1c-0.3,0.5-0.5,1-0.5,1.7c0,0.7,0.2,1.3,0.5,1.7
		s0.7,0.8,1.1,1c0.4,0.2,1,0.4,1.7,0.7c0.6,0.2,1.1,0.4,1.4,0.6s0.4,0.4,0.4,0.7c0,0.2-0.1,0.4-0.2,0.6c-0.1,0.1-0.3,0.2-0.6,0.2
		c-0.3,0-0.5-0.1-0.7-0.3s-0.3-0.5-0.3-0.8h-3.1c0.1,1.1,0.5,1.9,1.3,2.5c0.8,0.6,1.8,0.9,3,0.9c0.8,0,1.5-0.1,2.1-0.4
		c0.6-0.3,1-0.7,1.3-1.1C180.3,65.8,180.5,65.3,180.5,64.7 M159.2,57.1v6.1c0,1,0.2,1.9,0.6,2.6c0.4,0.7,0.9,1.2,1.6,1.6
		s1.5,0.5,2.3,0.5c0.9,0,1.7-0.2,2.4-0.5c0.7-0.4,1.3-0.9,1.7-1.6c0.4-0.7,0.6-1.5,0.6-2.5v-6.1h-2.9v6.1c0,0.6-0.1,1-0.4,1.4
		c-0.3,0.3-0.7,0.5-1.2,0.5c-0.5,0-0.9-0.2-1.2-0.5c-0.3-0.3-0.4-0.8-0.4-1.4v-6.1H159.2z M151.3,57.2l-2.5,6.9l-2.6-6.9h-3.6v10.6
		h3v-6l2,6h2.5l2-6v6h2.9V57.2H151.3z M132.7,57.1h-3v6l-3.9-6h-3v10.6h3v-5.9l3.9,5.9h3V57.1z M113.9,57c-1.1,0-2,0.2-2.8,0.7
		c-0.8,0.5-1.4,1.1-1.9,1.9c-0.4,0.8-0.7,1.7-0.7,2.8c0,1,0.2,2,0.7,2.8c0.4,0.8,1.1,1.5,1.9,1.9c0.8,0.5,1.8,0.7,2.8,0.7
		c1.3,0,2.3-0.3,3.2-0.9c0.8-0.6,1.4-1.4,1.8-2.3v-2.9h-5.4v2.1h2.9c-0.2,0.5-0.5,0.8-0.9,1.1c-0.4,0.2-0.8,0.4-1.3,0.4
		c-0.9,0-1.5-0.2-2-0.7c-0.5-0.5-0.7-1.2-0.7-2.1c0-0.8,0.2-1.5,0.6-1.9c0.4-0.5,1-0.7,1.7-0.7c0.4,0,0.8,0.1,1.1,0.3
		c0.3,0.2,0.5,0.4,0.7,0.7h3.1c-0.2-1.1-0.7-2-1.6-2.7C116.4,57.4,115.3,57,113.9,57 M101.6,67.8h3V57.1h-3V67.8z M97.6,64.7
		c0-0.7-0.2-1.3-0.5-1.7c-0.3-0.4-0.7-0.8-1.1-1c-0.4-0.2-1-0.5-1.7-0.7c-0.6-0.2-1.1-0.4-1.3-0.6c-0.3-0.2-0.4-0.4-0.4-0.7
		c0-0.2,0.1-0.4,0.2-0.5c0.1-0.1,0.3-0.2,0.5-0.2c0.3,0,0.5,0.1,0.7,0.2c0.2,0.2,0.3,0.4,0.3,0.7h3.2c-0.1-1-0.5-1.8-1.2-2.4
		c-0.7-0.6-1.7-0.9-2.9-0.9c-0.8,0-1.4,0.1-2,0.4c-0.6,0.2-1.1,0.6-1.4,1.1c-0.3,0.5-0.5,1-0.5,1.7c0,0.7,0.2,1.3,0.5,1.7
		c0.3,0.4,0.7,0.8,1.1,1c0.4,0.2,1,0.4,1.7,0.7c0.6,0.2,1.1,0.4,1.4,0.6s0.4,0.4,0.4,0.7c0,0.2-0.1,0.4-0.2,0.6
		c-0.1,0.1-0.3,0.2-0.6,0.2c-0.3,0-0.5-0.1-0.7-0.3c-0.2-0.2-0.3-0.5-0.3-0.8h-3.1c0.1,1.1,0.5,1.9,1.3,2.5s1.8,0.9,3,0.9
		c0.8,0,1.5-0.1,2.1-0.4c0.6-0.3,1-0.7,1.3-1.1C97.4,65.8,97.6,65.3,97.6,64.7 M85.6,59.5v-2.4h-6.8v10.6h6.8v-2.4h-3.9v-1.9h3.4
		v-2.2h-3.4v-1.8H85.6z M69,65.1h-1v-5.4h1c0.9,0,1.6,0.2,2.1,0.7c0.5,0.5,0.8,1.1,0.8,2c0,0.9-0.2,1.5-0.8,2
		C70.5,64.9,69.8,65.1,69,65.1 M74.8,62.4c0-1-0.2-1.9-0.7-2.7c-0.4-0.8-1.1-1.4-1.9-1.9c-0.8-0.4-1.8-0.7-2.9-0.7H65v10.6h4.2
		c1.1,0,2.1-0.2,2.9-0.7c0.8-0.5,1.5-1.1,1.9-1.9C74.5,64.4,74.8,63.4,74.8,62.4"/>
	<path class="st1" d="M209.5,39.1h-3v6l-3.9-6h-3v10.6h3v-5.9l3.9,5.9h3V39.1z M189.4,45.8l1.2-3.5l1.1,3.5H189.4z M193,49.8h3.1
		l-3.9-10.6h-3.4L185,49.8h3.1l0.6-1.8h3.8L193,49.8z M178.5,49.8h3V39.1h-3V49.8z M174.1,39.1h-3v6l-3.9-6h-3v10.6h3v-5.9l3.9,5.9
		h3V39.1z M154.9,41.7c0.8,0,1.3,0.2,1.8,0.7c0.4,0.5,0.6,1.1,0.6,2c0,0.8-0.2,1.5-0.6,2c-0.4,0.5-1,0.7-1.8,0.7
		c-0.8,0-1.3-0.2-1.8-0.7c-0.4-0.5-0.6-1.1-0.6-2c0-0.8,0.2-1.5,0.6-2C153.6,41.9,154.1,41.7,154.9,41.7 M154.9,39
		c-1,0-1.9,0.2-2.7,0.7c-0.8,0.5-1.5,1.1-2,1.9c-0.5,0.8-0.7,1.8-0.7,2.8s0.2,2,0.7,2.8c0.5,0.8,1.1,1.5,2,1.9
		c0.8,0.5,1.7,0.7,2.7,0.7c1,0,1.9-0.2,2.7-0.7c0.8-0.5,1.5-1.1,2-1.9c0.5-0.8,0.7-1.8,0.7-2.8s-0.2-2-0.7-2.8
		c-0.5-0.8-1.1-1.5-1.9-1.9C156.8,39.2,155.9,39,154.9,39 M145.8,46.7c0-0.7-0.2-1.3-0.5-1.7c-0.3-0.4-0.7-0.8-1.1-1
		c-0.4-0.2-1-0.5-1.7-0.7c-0.6-0.2-1.1-0.4-1.3-0.6c-0.3-0.2-0.4-0.4-0.4-0.7c0-0.2,0.1-0.4,0.2-0.5c0.1-0.1,0.3-0.2,0.5-0.2
		c0.3,0,0.5,0.1,0.7,0.2c0.2,0.2,0.3,0.4,0.3,0.7h3.2c-0.1-1-0.5-1.8-1.2-2.4c-0.7-0.6-1.7-0.9-2.9-0.9c-0.8,0-1.4,0.1-2,0.4
		c-0.6,0.2-1.1,0.6-1.4,1.1c-0.3,0.5-0.5,1-0.5,1.7c0,0.7,0.2,1.3,0.5,1.7c0.3,0.4,0.7,0.8,1.1,1c0.4,0.2,1,0.4,1.7,0.7
		c0.6,0.2,1.1,0.4,1.4,0.6c0.3,0.2,0.4,0.4,0.4,0.7c0,0.2-0.1,0.4-0.2,0.6c-0.1,0.1-0.3,0.2-0.6,0.2c-0.3,0-0.5-0.1-0.7-0.3
		c-0.2-0.2-0.3-0.5-0.3-0.8h-3.1c0.1,1.1,0.5,1.9,1.3,2.5s1.8,0.9,3,0.9c0.8,0,1.5-0.1,2.1-0.4c0.6-0.3,1-0.7,1.3-1.1
		C145.6,47.8,145.8,47.3,145.8,46.7 M130.6,39.1v4H127v-4h-3v10.6h3v-4.3h3.6v4.3h2.9V39.1H130.6z M111.7,39.1v2.4h2.8v8.3h2.9v-8.3
		h2.9v-2.4H111.7z M105.1,49.8h3V39.1h-3V49.8z M97.2,39.2L94.6,46L92,39.2h-3.6v10.6h3v-6l2,6h2.5l2-6v6h2.9V39.2H97.2z M84.4,46.7
		c0-0.7-0.2-1.3-0.5-1.7c-0.3-0.4-0.7-0.8-1.1-1c-0.4-0.2-1-0.5-1.7-0.7c-0.6-0.2-1.1-0.4-1.3-0.6c-0.3-0.2-0.4-0.4-0.4-0.7
		c0-0.2,0.1-0.4,0.2-0.5c0.1-0.1,0.3-0.2,0.5-0.2c0.3,0,0.5,0.1,0.7,0.2c0.2,0.2,0.3,0.4,0.3,0.7h3.2c-0.1-1-0.5-1.8-1.2-2.4
		c-0.7-0.6-1.7-0.9-2.9-0.9c-0.8,0-1.4,0.1-2,0.4c-0.6,0.2-1.1,0.6-1.4,1.1c-0.3,0.5-0.5,1-0.5,1.7c0,0.7,0.2,1.3,0.5,1.7
		c0.3,0.4,0.7,0.8,1.1,1c0.4,0.2,1,0.4,1.7,0.7c0.6,0.2,1.1,0.4,1.4,0.6c0.3,0.2,0.4,0.4,0.4,0.7c0,0.2-0.1,0.4-0.2,0.6
		c-0.1,0.1-0.3,0.2-0.6,0.2c-0.3,0-0.5-0.1-0.7-0.3c-0.2-0.2-0.3-0.5-0.3-0.8h-3.1c0.1,1.1,0.5,1.9,1.3,2.5c0.8,0.6,1.8,0.9,3,0.9
		c0.8,0,1.5-0.1,2.1-0.4c0.6-0.3,1-0.7,1.3-1.1C84.3,47.8,84.4,47.3,84.4,46.7"/>
	<path class="st1" d="M223,30h-2.3v2.6h1.2v0.2c0,0.4-0.1,0.6-0.2,0.7c-0.1,0.1-0.3,0.2-0.6,0.2v1.1c0.9,0,1.5-0.2,1.9-0.7
		c0.4-0.5,0.6-1.1,0.6-1.9c0-0.4,0-0.7-0.1-1.1C223.3,30.6,223.2,30.3,223,30 M208.8,21.1v2.4h2.8v8.3h2.9v-8.3h2.9v-2.4H208.8z
		 M197.1,21.1v2.4h2.8v8.3h2.9v-8.3h2.9v-2.4H197.1z M190.5,31.8h3V21.1h-3V31.8z M183.3,21.1l-1.2,7.2l-1.6-7.2h-3.2l-1.6,7.2
		l-1.2-7.2h-3.2l2.5,10.6h3.7l1.5-6.6l1.5,6.6h3.7l2.5-10.6H183.3z M167.6,23.5v-2.4h-6.8v10.6h6.8v-2.4h-3.9v-1.9h3.4v-2.2h-3.4
		v-1.8H167.6z M153.4,21.1v4h-3.6v-4h-3v10.6h3v-4.3h3.6v4.3h2.9V21.1H153.4z M131.9,23.6h1.5c0.4,0,0.7,0.1,0.9,0.3
		c0.2,0.2,0.3,0.5,0.3,0.8c0,0.7-0.4,1.1-1.2,1.1h-1.5V23.6z M137.6,31.8l-2.4-4.1c0.8-0.2,1.4-0.6,1.8-1.1c0.4-0.5,0.6-1.2,0.6-1.9
		c0-0.7-0.1-1.2-0.4-1.8c-0.3-0.5-0.7-0.9-1.3-1.2c-0.6-0.3-1.3-0.4-2.2-0.4h-4.7v10.6h3v-3.9h0.3l2.1,3.9H137.6z M124.9,23.5v-2.4
		H118v10.6h6.8v-2.4H121v-1.9h3.4v-2.2H121v-1.8H124.9z M109.9,25.9h-1.1v-2.4h1.1c0.9,0,1.3,0.4,1.3,1.2
		C111.2,25.5,110.8,25.9,109.9,25.9 M110.2,28.2c0.8,0,1.6-0.2,2.2-0.5s1-0.7,1.3-1.3c0.3-0.5,0.4-1.1,0.4-1.8c0-1.1-0.3-1.9-1-2.6
		c-0.7-0.6-1.7-1-2.9-1h-4.4v10.6h3v-3.6H110.2z M96.4,23.7c0.8,0,1.3,0.2,1.8,0.7s0.6,1.1,0.6,2c0,0.8-0.2,1.5-0.6,2
		c-0.4,0.5-1,0.7-1.8,0.7c-0.8,0-1.3-0.2-1.8-0.7c-0.4-0.5-0.6-1.1-0.6-2c0-0.8,0.2-1.5,0.6-2C95.1,23.9,95.7,23.7,96.4,23.7
		 M96.4,21c-1,0-1.9,0.2-2.7,0.7c-0.8,0.5-1.5,1.1-2,1.9S91,25.4,91,26.4s0.2,2,0.7,2.8c0.5,0.8,1.1,1.5,2,1.9
		c0.8,0.5,1.7,0.7,2.7,0.7s1.9-0.2,2.7-0.7c0.8-0.5,1.5-1.1,2-1.9c0.5-0.8,0.7-1.8,0.7-2.8s-0.2-2-0.7-2.8c-0.5-0.8-1.1-1.5-2-1.9
		C98.3,21.2,97.4,21,96.4,21 M81.9,23.7c0.8,0,1.3,0.2,1.8,0.7c0.4,0.5,0.6,1.1,0.6,2c0,0.8-0.2,1.5-0.6,2c-0.4,0.5-1,0.7-1.8,0.7
		c-0.8,0-1.3-0.2-1.8-0.7c-0.4-0.5-0.6-1.1-0.6-2c0-0.8,0.2-1.5,0.6-2S81.1,23.7,81.9,23.7 M81.9,21c-1,0-1.9,0.2-2.7,0.7
		c-0.8,0.5-1.5,1.1-2,1.9c-0.5,0.8-0.7,1.8-0.7,2.8s0.2,2,0.7,2.8c0.5,0.8,1.1,1.5,2,1.9c0.8,0.5,1.7,0.7,2.7,0.7
		c1,0,1.9-0.2,2.7-0.7c0.8-0.5,1.5-1.1,2-1.9c0.5-0.8,0.7-1.8,0.7-2.8s-0.2-2-0.7-2.8s-1.1-1.5-1.9-1.9C83.8,21.2,82.9,21,81.9,21
		 M67.6,21c-1.1,0-2,0.2-2.8,0.7c-0.8,0.5-1.4,1.1-1.8,1.9s-0.6,1.8-0.6,2.8s0.2,2,0.6,2.8s1,1.5,1.8,1.9c0.8,0.5,1.7,0.7,2.8,0.7
		c1.4,0,2.5-0.4,3.4-1.1c0.9-0.7,1.5-1.7,1.7-3h-3.1c-0.2,0.4-0.4,0.8-0.8,1c-0.4,0.2-0.8,0.4-1.2,0.4c-0.7,0-1.2-0.2-1.6-0.7
		c-0.4-0.5-0.6-1.1-0.6-2s0.2-1.5,0.6-1.9c0.4-0.5,0.9-0.7,1.6-0.7c0.5,0,0.9,0.1,1.2,0.4c0.4,0.2,0.6,0.6,0.8,1h3.1
		c-0.2-0.8-0.5-1.5-0.9-2.1c-0.5-0.6-1-1.1-1.7-1.4C69.4,21.2,68.5,21,67.6,21"/>
</g>
</svg>
