<?xml version="1.0" encoding="utf-8"?>
<!-- Generator: Adobe Illustrator 22.1.0, SVG Export Plug-In . SVG Version: 6.00 Build 0)  -->
<svg preserveAspectRatio="xMinYMid" version="1.1" id="faq" xmlns="http://www.w3.org/2000/svg" xmlns:xlink="http://www.w3.org/1999/xlink" x="0px" y="0px"
	 viewBox="0 0 455 59" style="enable-background:new 0 0 455 59;" xml:space="preserve">
<g>
	<path d="M441,33.8c-2.8-0.9-4.3-1.2-4.3-2.4c0-1,0.9-1.5,2-1.5c1.5,0,2.2,0.8,2.2,2.2h5.3c0-3.2-2.4-5.7-7.3-5.7
		c-4.6,0-7.5,1.6-7.5,5.1c0,3.3,2.4,4.1,5.2,4.9c3.2,1.1,4.5,1.2,4.5,2.5c0,1.1-0.9,1.6-2.2,1.6c-1.6,0-2.7-0.7-2.7-2.5H431
		c0,3.9,3,6.1,7.8,6.1c4.2,0,7.6-1.4,7.6-5.4C446.4,35.5,444,34.7,441,33.8 M411.9,43.7h5.4v-8.5c0-2.6,1.1-4.3,3.3-4.3
		c2.2,0,3,1.7,3,4.1v8.6h5.4v-10c0-2.4-0.3-4.1-1.3-5.4c-0.9-1.2-2.6-1.9-4.7-1.9c-2.6,0-4.6,1-5.5,2.9v-2.4h-5.4V43.7z M400.6,39.6
		c-2.4,0-4-1.9-4-4.3c0-2.3,1.6-4.3,4-4.3c2.5,0,4.1,2,4.1,4.3C404.6,37.7,403,39.6,400.6,39.6 M400.6,44.2c5.9,0,9.4-4.1,9.4-8.9
		s-3.5-8.9-9.4-8.9c-5.8,0-9.3,4.1-9.3,8.9S394.8,44.2,400.6,44.2 M383.7,43.7h5.4V26.9h-5.4V43.7z M382.9,21.3
		c0,1.9,1.5,3.4,3.4,3.4c2,0,3.5-1.5,3.5-3.4c0-1.9-1.5-3.4-3.5-3.4C384.4,17.9,382.9,19.4,382.9,21.3 M381.2,39.7
		c-0.5,0.1-1.3,0.1-1.9,0.1c-1.3,0-2.3-0.4-2.3-2.9v-6h3.9v-4h-3.9v-5h-5.3v5H369v4h2.7v7.2c0,5.6,3.5,5.9,6,5.9
		c1.6,0,2.8-0.1,3.6-0.3V39.7z M362.2,33.8c-2.8-0.9-4.3-1.2-4.3-2.4c0-1,0.9-1.5,2-1.5c1.5,0,2.2,0.8,2.2,2.2h5.3
		c0-3.2-2.4-5.7-7.3-5.7c-4.6,0-7.5,1.6-7.5,5.1c0,3.3,2.4,4.1,5.2,4.9c3.2,1.1,4.5,1.2,4.5,2.5c0,1.1-0.9,1.6-2.2,1.6
		c-1.6,0-2.7-0.7-2.7-2.5h-5.2c0,3.9,3,6.1,7.8,6.1c4.2,0,7.6-1.4,7.6-5.4C367.6,35.5,365.1,34.7,362.2,33.8 M341.8,30
		c2,0,3.5,1.4,3.5,3.5h-7.1C338.2,31.3,339.7,30,341.8,30 M350.4,36.6c0.2-1,0.2-1.8,0.2-2.5c0-4.1-3.4-7.7-8.7-7.7
		c-5.8,0-9,4-9,8.9c0,5.2,3.2,8.9,9.1,8.9c4.8,0,7.8-2.6,8.3-5.8h-5.2c-0.4,1.1-1.3,1.9-3.1,1.9c-2.8,0-3.6-1.7-3.7-3.7H350.4z
		 M325.5,26.9v8.5c0,2.6-1,4.3-3.3,4.3c-2.2,0-3-1.7-3-4.1v-8.6h-5.3v10c0,2.4,0.2,4.1,1.3,5.4c0.9,1.2,2.6,1.9,4.7,1.9
		c2.6,0,4.6-1.1,5.5-2.8v2.4h5.4V26.9H325.5z M301.8,31c2.5,0,4.1,2,4.1,4.3s-1.6,4.3-4.1,4.3c-2.4,0-4-2-4-4.3S299.4,31,301.8,31
		 M305.8,29.3c-0.8-1.5-3-2.8-5.2-2.8c-4.9,0-8.2,3.8-8.2,8.9s3.4,8.9,8.2,8.9c2.2,0,4.3-1.3,5.2-2.8v10.7h5.3V26.9h-5.3V29.3z
		 M278.9,43.7h5.4V19.2h-5.4v10c-0.8-1.5-3-2.8-5.1-2.8c-4.9,0-8.2,3.8-8.2,8.9s3.4,8.9,8.2,8.9c2.2,0,4.3-1.3,5.1-2.8V43.7z
		 M274.8,39.6c-2.4,0-4-2-4-4.3c0-2.3,1.6-4.3,4-4.3s4,2,4,4.3C278.9,37.7,277.3,39.6,274.8,39.6 M254.9,30c2,0,3.5,1.4,3.5,3.5
		h-7.1C251.3,31.3,252.8,30,254.9,30 M263.4,36.6c0.2-1,0.2-1.8,0.2-2.5c0-4.1-3.4-7.7-8.7-7.7c-5.8,0-9,4-9,8.9
		c0,5.2,3.2,8.9,9.1,8.9c4.8,0,7.8-2.6,8.3-5.8h-5.2c-0.4,1.1-1.3,1.9-3.1,1.9c-2.8,0-3.6-1.7-3.7-3.7H263.4z M246.4,26.9h-6.4
		l-5.2,7.1V19.2h-5.4v24.5h5.4v-7.1l5.2,7.1h6.4l-6.5-8.4L246.4,26.9z M221.9,33.8c-2.8-0.9-4.3-1.2-4.3-2.4c0-1,0.9-1.5,2-1.5
		c1.5,0,2.2,0.8,2.2,2.2h5.3c0-3.2-2.4-5.7-7.3-5.7c-4.6,0-7.5,1.6-7.5,5.1c0,3.3,2.4,4.1,5.2,4.9c3.2,1.1,4.5,1.2,4.5,2.5
		c0,1.1-0.9,1.6-2.2,1.6c-1.6,0-2.7-0.7-2.7-2.5h-5.2c0,3.9,3,6.1,7.8,6.1c4.2,0,7.6-1.4,7.6-5.4C227.3,35.5,224.9,34.7,221.9,33.8
		 M204.4,26.9v2.4c-0.8-1.5-3-2.8-5.1-2.8c-4.9,0-8.2,3.8-8.2,8.9s3.4,8.9,8.2,8.9c2.2,0,4.3-1.3,5.1-2.8v2.4h5.4V26.9H204.4z
		 M200.3,39.6c-2.4,0-4-2-4-4.3c0-2.3,1.6-4.3,4-4.3s4,2,4,4.3C204.4,37.7,202.7,39.6,200.3,39.6 M174,52.7c2.9,0,4.9-0.8,6.4-2
		c1.4-1.2,2.3-3.3,2.3-5.9V26.9h-5.4v8.5c0,2.6-1.1,4.3-3.3,4.3c-2.2,0-3-1.7-3-4.1v-8.6h-5.3v9.8c0,2.4,0.2,3.9,1.3,5.2
		c0.9,1.2,2.6,2,4.9,2c2.6,0,4.4-1,5.4-2.8v3.8c0,2.6-1.2,3.5-3.3,3.5c-1.8,0-3.2-1-3.3-2.9h-5.4c0,2.3,1.1,4,2.4,5.1
		C169.4,51.7,171.3,52.7,174,52.7 M157.2,43.7h5.4V19.2h-5.4V43.7z M154.5,39.7c-0.5,0.1-1.3,0.1-1.9,0.1c-1.3,0-2.3-0.4-2.3-2.9v-6
		h3.9v-4h-3.9v-5h-5.3v5h-2.7v4h2.7v7.2c0,5.6,3.5,5.9,6,5.9c1.6,0,2.8-0.1,3.6-0.3V39.7z M123.6,43.7h5.4v-8.5
		c0-2.6,1.1-4.3,3.3-4.3c2.2,0,3,1.7,3,4.1v8.6h5.4v-10c0-2.4-0.3-4.1-1.3-5.4c-0.9-1.2-2.6-1.9-4.7-1.9c-2.6,0-4.6,1-5.5,2.9v-2.4
		h-5.4V43.7z M112.3,30c2,0,3.5,1.4,3.5,3.5h-7.1C108.7,31.3,110.2,30,112.3,30 M120.8,36.6c0.2-1,0.2-1.8,0.2-2.5
		c0-4.1-3.4-7.7-8.7-7.7c-5.8,0-9,4-9,8.9c0,5.2,3.2,8.9,9.1,8.9c4.8,0,7.8-2.6,8.3-5.8h-5.2c-0.3,1.1-1.3,1.9-3.1,1.9
		c-2.8,0-3.6-1.7-3.7-3.7H120.8z M95.8,26.9v8.5c0,2.6-1,4.3-3.3,4.3c-2.2,0-3-1.7-3-4.1v-8.6h-5.3v10c0,2.4,0.2,4.1,1.3,5.4
		c0.9,1.2,2.6,1.9,4.7,1.9c2.6,0,4.6-1.1,5.5-2.8v2.4h5.4V26.9H95.8z M72,31c2.4,0,4.1,2,4.1,4.3s-1.6,4.3-4.1,4.3c-2.4,0-4-2-4-4.3
		S69.6,31,72,31 M76.1,29.3c-0.8-1.5-3-2.8-5.2-2.8c-4.9,0-8.2,3.8-8.2,8.9s3.4,8.9,8.2,8.9c2.2,0,4.3-1.3,5.2-2.8v10.7h5.3V26.9
		h-5.3V29.3z M52,30c2,0,3.5,1.4,3.5,3.5h-7.1C48.4,31.3,49.9,30,52,30 M60.6,36.6c0.2-1,0.2-1.8,0.2-2.5c0-4.1-3.4-7.7-8.7-7.7
		c-5.8,0-9,4-9,8.9c0,5.2,3.2,8.9,9.1,8.9c4.8,0,7.8-2.6,8.3-5.8h-5.2c-0.3,1.1-1.3,1.9-3.1,1.9c-2.8,0-3.6-1.7-3.7-3.7H60.6z
		 M41.7,26.9c-0.5-0.2-0.9-0.3-1.6-0.3c-2.3,0-4.4,1.4-5.1,3v-2.7h-5.4v16.9H35v-6.6c0-4.1,1.9-5.7,4.9-5.7c0.7,0,1.2,0.1,1.9,0.2
		V26.9z M26.9,24v-4.8H12v24.5h5.7v-8.5h9.3v-4.7h-9.3V24H26.9z"/>
	<rect x="12" y="47.1" width="60.4" height="5"/>
	<rect x="85.3" y="47.1" width="77.2" height="5"/>
	<rect x="315.1" y="47.1" width="131.3" height="5"/>
	<rect x="186" y="47.1" width="116" height="5"/>
</g>
</svg>
