<?xml version="1.0" encoding="utf-8"?>
<!-- Generator: Adobe Illustrator 22.1.0, SVG Export Plug-In . SVG Version: 6.00 Build 0)  -->
<svg version="1.1" id="Layer_1" xmlns="http://www.w3.org/2000/svg" xmlns:xlink="http://www.w3.org/1999/xlink" x="0px" y="0px"
	 viewBox="0 0 166 166" style="enable-background:new 0 0 166 166;" xml:space="preserve">
<style type="text/css">
	.st0{fill:#DEFF00;}
</style>
<polygon class="st0" points="150.1,56.9 118.3,60.5 134.7,31.8 106.7,48 110.4,16.6 91.8,42.9 83,10.7 75.7,42.4 54.1,14.7 59,47 
	29.7,29.4 46.7,58.7 15.6,54 40.6,74.9 10.1,82.3 41.2,91.6 15,109.9 47.4,106.9 31.3,134.4 60,121.3 57.4,152 77,129.2 87.8,157.6 
	96.3,128.8 115.4,151.9 109.3,120.8 138.4,133.3 120.6,108.1 151,110.9 128.1,91.9 155.9,85.4 127.3,76.5 "/>
<g>
	<path d="M88.1,165.5L76.2,134l-21.9,25.5l2.9-34.2l-32.1,14.6l17.7-30.1l-37,3.4l29.7-20.7l-35-10.4l34.7-8.4l-28-23.5L42,55.4
		L22.7,22.2l33.1,19.9L50.2,5.7l24.2,31l8.3-36.2l10.1,36.6l21.3-30l-4.3,36.2L141.4,25l-18.5,32.4l35-3.9l-25.5,21.9l33.1,10.2
		l-31.9,7.5l25.3,20.9l-33.1-3l19.7,28l-32.8-14l7.1,36l-22.5-27L88.1,165.5z M77.9,124.3l9.6,25.4l7.7-26.2l15.8,19.2l-5.1-26
		l25.3,10.9l-15.7-22.4l27.7,2.5l-20.6-17l23.8-5.6l-24.2-7.5l20.1-17.3l-28.6,3.2l14.2-24.9l-24.3,14.1l3.2-26.6l-16,22.6L83.2,21
		L77,48L58,23.8l4.2,28.1L36.7,36.5l14.7,25.4L24,57.8l22,18.4l-26.3,6.4l27.2,8.1l-22.7,15.8l27.9-2.6l-14.6,24.9L63,117.2
		l-2.3,27.3L77.9,124.3z"/>
</g>
<g>
	<path d="M70.5,85.6c0,2.3-1.3,3.6-3.6,3.6c-2.4,0-3.6-1.6-3.6-3.6h2.3c0,1,0.4,1.7,1.3,1.7s1.3-0.6,1.3-1.7v-6.4h2.3L70.5,85.6
		L70.5,85.6z"/>
	<path d="M72.4,85.6c0-1.9,1.4-3.6,3.7-3.6c2.4,0,3.8,1.6,3.8,3.6c0,1.9-1.4,3.6-3.8,3.6C73.8,89.2,72.4,87.6,72.4,85.6z M77.7,85.6
		c0-0.9-0.6-1.7-1.6-1.7s-1.6,0.8-1.6,1.7c0,1,0.6,1.7,1.6,1.7C77.1,87.3,77.7,86.6,77.7,85.6z"/>
	<path d="M83.9,89h-2.1v-9.8h2.1v4c0.3-0.6,1.2-1.1,2.1-1.1c1.9,0,3.3,1.5,3.3,3.5S88,89.1,86,89.1c-0.9,0-1.8-0.5-2.1-1.1V89z
		 M87.1,85.6c0-0.9-0.6-1.7-1.6-1.7s-1.6,0.8-1.6,1.7c0,0.9,0.6,1.7,1.6,1.7C86.5,87.3,87.1,86.6,87.1,85.6z"/>
	<path d="M97,87c0,1.6-1.4,2.2-3.1,2.2c-1.9,0-3.1-0.9-3.1-2.4h2.1c0,0.7,0.4,1,1.1,1c0.5,0,0.9-0.2,0.9-0.6c0-0.5-0.5-0.6-1.8-1
		c-1.1-0.4-2.1-0.7-2.1-2c0-1.4,1.2-2.1,3-2.1c2,0,2.9,1,2.9,2.3h-2.1c0-0.6-0.3-0.9-0.9-0.9c-0.4,0-0.8,0.2-0.8,0.6
		c0,0.5,0.6,0.6,1.7,1C96,85.4,97,85.7,97,87z"/>
	<path d="M100.4,86.4c0.8,0,1.5,0.6,1.5,1.4s-0.6,1.4-1.5,1.4c-0.8,0-1.4-0.7-1.4-1.4S99.6,86.4,100.4,86.4z M99.2,79.2h2.3v6.4
		h-2.3V79.2z"/>
</g>
</svg>
