<?xml version="1.0" encoding="utf-8"?>
<!-- Generator: Adobe Illustrator 22.1.0, SVG Export Plug-In . SVG Version: 6.00 Build 0)  -->
<svg version="1.1" id="Layer_1" xmlns="http://www.w3.org/2000/svg" xmlns:xlink="http://www.w3.org/1999/xlink" x="0px" y="0px"
	 viewBox="0 0 124.5 124.5" style="enable-background:new 0 0 124.5 124.5;" xml:space="preserve">
<g>
	<path d="M31.7,116.9c-3.7-1.8-5.2-6.3-3.4-9.9c1.8-3.7,6.3-5.2,9.9-3.4c2.6,1.3,4.2,3.9,4.2,6.8c0,0.2,0,0.4,0,0.5l-4.2-0.3
		c0-0.1,0-0.1,0-0.2c0-1.2-0.7-2.4-1.8-2.9c-1.6-0.8-3.5-0.1-4.3,1.5c-0.8,1.6-0.1,3.5,1.5,4.3c1.1,0.5,2.4,0.4,3.4-0.4l2.6,3.3
		C37.4,117.8,34.3,118.1,31.7,116.9"/>
	<path d="M19.7,39.8c-2.3,3.4-7,4.3-10.4,2c-3.4-2.3-4.3-7-2-10.4c1.6-2.4,4.5-3.6,7.3-3.2c0.2,0,0.4,0.1,0.5,0.1l-0.9,4.2
		c-0.1,0-0.1,0-0.2,0c-1.2-0.2-2.5,0.4-3.1,1.4c-1,1.5-0.6,3.5,0.8,4.5s3.5,0.6,4.5-0.9c0.7-1,0.7-2.4,0.1-3.4l3.7-2.1
		C21.4,34.3,21.3,37.4,19.7,39.8"/>
</g>
<polygon points="56.7,0 56.7,14.5 67.7,14.5 67.7,10.2 61,10.2 61,0 "/>
<g>
	<path d="M112.3,32.2l1.3,1.9l0.1,0.1c0,0,0.2,0.4,0.2,0.7c0,0.2-0.4,0.4-0.5,0.5c-0.3,0.2-0.7,0.5-1.2-0.2l-1.3-2L112.3,32.2z
		 M111.8,39.8c1.1,0.2,2.4,0.1,3.8-0.8c1.6-1.1,2.2-2.4,2.4-3.3c0.4-1.9-0.6-3.5-0.9-3.9l-1.2-1.9l0,0l-2.3-3.6l-12.1,7.8l2.3,3.6
		l3.4-2.2l0.6,1c0.6,1.2,0.1,1.9-0.5,2.3l-2,1.3l2.3,3.6l1.9-1.3C110.4,41.8,111.3,40.9,111.8,39.8"/>
	<path d="M90,107c-1.8,0-3.2,1.4-3.2,3.2c0,1.8,1.4,3.2,3.2,3.2c1.8,0,3.2-1.4,3.2-3.2C93.2,108.5,91.7,107,90,107 M90,117.6
		c-4.1,0-7.4-3.3-7.4-7.4s3.3-7.4,7.4-7.4c4.1,0,7.4,3.3,7.4,7.4S94.1,117.6,90,117.6"/>
	<path d="M14.1,88.8L14.1,88.8c0.5-0.3,1.8-1.1,2.7-0.9c0.3,0.1,0.7,0.2,1.1,0.9c0.4,0.7,0.4,1.1,0.3,1.3C18,91,16.9,91.8,16.5,92
		l-0.3,0.2L14.1,88.8z M22.4,91.2c0.4-1.5,0.1-3.1-0.8-4.6c-1-1.5-2.3-2.5-3.9-2.8c-2.8-0.5-5.3,1.1-5.9,1.5L5.9,89l2.2,3.6l2.8-1.8
		l2.1,3.4L10.2,96l2.2,3.6l6.2-3.8C19.2,95.4,21.7,93.9,22.4,91.2"/>
	<path d="M113.7,58.5h-3.5v4.2h3.6l0.1,0c0.3,0,1.9,0,2.7,0.7c0.2,0.2,0.5,0.5,0.5,1.3c0,0.8-0.3,1.2-0.5,1.3
		c-0.8,0.7-2.4,0.8-2.9,0.8l-3.4,0v4.2h3.2c0.7,0,3.9,0.1,6-1.9c0.7-0.6,1.2-1.4,1.5-2.3h3.7v-4.2h-3.7c-0.3-0.9-0.8-1.7-1.5-2.3
		C117.4,58.4,114.3,58.4,113.7,58.5"/>
</g>
<polygon points="0,59.7 0,63.9 3.4,63.9 3.4,68.2 7.6,68.2 7.6,63.9 10.1,63.9 10.1,70.6 14.4,70.6 14.4,59.7 "/>
<g>
	<path d="M105.8,91.4l1.2-1.9l0,0l0-0.1c0.5-0.7,0.9-0.5,1.2-0.2c0.3,0.2,0.7,0.4,0.3,1.1l-1.3,2L105.8,91.4z M112.9,88.8
		c-0.2-1.1-0.9-2.2-2.3-3.1c-1.6-1.1-3.1-1-4-0.8c-1.9,0.4-2.9,1.9-3.2,2.3l-1.2,1.9l0,0l-2.3,3.6l12,7.8l2.3-3.6l-3.4-2.2l0.6-0.9
		c0.9-1,1.7-0.8,2.3-0.5l2,1.3l2.3-3.6l-1.9-1.3C115.4,89.2,114.2,88.8,112.9,88.8"/>
	<path d="M33.3,12c-1.8,0-3.2,1.4-3.2,3.2c0,1.8,1.4,3.2,3.2,3.2c1.8,0,3.2-1.4,3.2-3.2C36.5,13.4,35.1,12,33.3,12 M33.3,22.7
		c-4.1,0-7.5-3.3-7.5-7.5c0-4.1,3.3-7.5,7.5-7.5s7.5,3.3,7.5,7.5C40.8,19.3,37.4,22.7,33.3,22.7"/>
	<path d="M90.5,11.6c-1.8,0-3.2,1.4-3.2,3.2c0,1.8,1.4,3.2,3.2,3.2c1.8,0,3.2-1.4,3.2-3.2C93.7,13,92.2,11.6,90.5,11.6 M90.5,22.2
		c-4.1,0-7.5-3.3-7.5-7.5c0-4.1,3.3-7.5,7.5-7.5c4.1,0,7.5,3.3,7.5,7.5C97.9,18.9,94.6,22.2,90.5,22.2"/>
</g>
<polygon points="64.4,110.1 60.2,110.1 56.8,110.1 56.8,114.4 60.2,114.4 60.2,124.5 64.4,124.5 64.4,114.4 67.8,114.4 67.8,110.1 
	"/>
<g>
	<path d="M43.5,58c2,0,3.5-1.6,3.5-3.5c0-2-1.6-3.5-3.5-3.5c-2,0-3.5,1.6-3.5,3.5C39.9,56.4,41.5,58,43.5,58"/>
	<path d="M80.6,58c2,0,3.5-1.6,3.5-3.5c0-2-1.6-3.5-3.5-3.5c-2,0-3.5,1.6-3.5,3.5C77,56.4,78.6,58,80.6,58"/>
</g>
<polygon points="67.9,69.4 57,69.4 57,54.9 61.3,54.9 61.3,65.1 67.9,65.1 "/>
<g>
	<path d="M62.4,84.1c-4,0-7.3-3.3-7.3-7.3h4.3c0,1.7,1.4,3,3,3c1.7,0,3-1.4,3-3h4.3C69.7,80.8,66.4,84.1,62.4,84.1z"/>
</g>
</svg>
