<?xml version="1.0" encoding="utf-8"?>
<!-- Generator: Adobe Illustrator 22.1.0, SVG Export Plug-In . SVG Version: 6.00 Build 0)  -->
<svg preserveAspectRatio="xMinYMid" version="1.1" id="MCW" xmlns="http://www.w3.org/2000/svg" xmlns:xlink="http://www.w3.org/1999/xlink" x="0px" y="0px"
	 viewBox="0 0 455 59" style="enable-background:new 0 0 455 59;" xml:space="preserve">
<g>
	<rect x="12" y="47.1" width="361.2" height="5"/>
	<path d="M372.9,43.6l-7.3-8.9l7.2-8.9h-6.4L361,33V20h-5.4v23.6h5.4v-7.5l5.3,7.5H372.9z M346.7,43.6h5.4V20h-5.4V43.6z
		 M333.9,30.4c1.1,0,2.1,0.4,2.8,1.2c0.7,0.8,1.1,1.8,1.1,3.2c0,1.3-0.4,2.4-1.1,3.2c-0.7,0.8-1.7,1.2-2.8,1.2
		c-1.2,0-2.1-0.4-2.8-1.1c-0.7-0.8-1.1-1.8-1.1-3.2c0-1.4,0.4-2.4,1.1-3.2C331.8,30.8,332.7,30.4,333.9,30.4 M332.2,25.6
		c-1.5,0-2.8,0.4-3.9,1.1c-1.2,0.7-2.1,1.8-2.7,3.2c-0.7,1.4-1,3-1,4.9c0,1.8,0.3,3.5,1,4.8c0.7,1.4,1.6,2.4,2.7,3.2
		c1.2,0.7,2.5,1.1,3.9,1.1c1.4,0,2.5-0.3,3.5-0.9c1-0.6,1.7-1.5,2.2-2.5v3.2h5.4V25.8h-5.4v3.2c-0.5-1.1-1.2-1.9-2.2-2.5
		C334.7,25.9,333.5,25.6,332.2,25.6 M318.4,21.1l-2.9,16.3l-3.9-16.3h-6l-4,16.3l-2.9-16.3h-5.9l5.4,22.5h6.8l3.6-15.1l3.6,15.1h6.8
		l5.4-22.5H318.4z M278.4,29.2v-3.3H273v17.8h5.4v-8.1c0-1.5,0.4-2.5,1.2-3.1c0.8-0.6,1.9-0.9,3.4-0.9h1.6v-5.8
		c-1.3,0-2.4,0.3-3.5,1C280,27.2,279.1,28.1,278.4,29.2 M261.6,30.3c1,0,1.9,0.4,2.6,1.1c0.7,0.8,1.1,1.8,1.1,3.3
		c0,1.4-0.4,2.5-1.1,3.2c-0.7,0.7-1.6,1.1-2.6,1.1c-1,0-1.9-0.4-2.6-1.1c-0.7-0.7-1.1-1.8-1.1-3.2c0-1.4,0.4-2.5,1.1-3.3
		C259.6,30.7,260.5,30.3,261.6,30.3 M261.6,25.6c-1.8,0-3.3,0.4-4.7,1.1c-1.4,0.7-2.5,1.8-3.3,3.2c-0.8,1.4-1.2,3-1.2,4.8
		c0,1.8,0.4,3.5,1.2,4.8c0.8,1.4,1.9,2.4,3.3,3.2c1.4,0.7,3,1.1,4.7,1.1c1.8,0,3.3-0.4,4.7-1.1c1.4-0.7,2.5-1.8,3.3-3.2
		c0.8-1.4,1.2-3,1.2-4.8c0-1.8-0.4-3.5-1.2-4.8c-0.8-1.4-1.9-2.4-3.3-3.2C264.9,26,263.3,25.6,261.6,25.6 M244.4,43.6h5.4V20h-5.4
		V43.6z M232.6,30.3c1,0,1.9,0.4,2.6,1.1c0.7,0.8,1.1,1.8,1.1,3.3c0,1.4-0.4,2.5-1.1,3.2c-0.7,0.7-1.6,1.1-2.6,1.1
		c-1,0-1.9-0.4-2.6-1.1c-0.7-0.7-1.1-1.8-1.1-3.2c0-1.4,0.4-2.5,1.1-3.3C230.7,30.7,231.6,30.3,232.6,30.3 M232.6,25.6
		c-1.8,0-3.3,0.4-4.7,1.1c-1.4,0.7-2.5,1.8-3.3,3.2c-0.8,1.4-1.2,3-1.2,4.8c0,1.8,0.4,3.5,1.2,4.8c0.8,1.4,1.9,2.4,3.3,3.2
		c1.4,0.7,3,1.1,4.7,1.1c1.8,0,3.3-0.4,4.7-1.1c1.4-0.7,2.5-1.8,3.3-3.2c0.8-1.4,1.2-3,1.2-4.8c0-1.8-0.4-3.5-1.2-4.8
		c-0.8-1.4-1.9-2.4-3.3-3.2C236,26,234.4,25.6,232.6,25.6 M210.7,20.9c-2.2,0-4.1,0.5-5.8,1.4c-1.7,1-2.9,2.3-3.8,4.1
		c-0.9,1.7-1.4,3.7-1.4,6s0.5,4.2,1.4,6c0.9,1.7,2.2,3.1,3.8,4.1c1.7,1,3.6,1.4,5.8,1.4c2.9,0,5.2-0.8,7.1-2.3
		c1.9-1.5,3.1-3.6,3.6-6.1h-5.8c-0.4,1-1.1,1.8-2,2.4c-0.9,0.6-1.9,0.9-3.1,0.9c-1.6,0-2.9-0.6-3.9-1.7c-1-1.2-1.5-2.7-1.5-4.7
		s0.5-3.5,1.5-4.7c1-1.2,2.3-1.8,3.9-1.8c1.2,0,2.3,0.3,3.1,0.9c0.9,0.6,1.5,1.4,2,2.5h5.8c-0.6-2.6-1.8-4.6-3.6-6.1
		C215.9,21.6,213.5,20.9,210.7,20.9 M184.7,25.6c-1.4,0-2.5,0.3-3.6,0.9c-1,0.6-1.8,1.5-2.3,2.5v-3.2h-5.4v17.8h5.4v-9.4
		c0-1.3,0.3-2.3,1-3c0.6-0.7,1.5-1.1,2.6-1.1c1,0,1.9,0.3,2.5,1c0.6,0.7,0.9,1.6,0.9,2.8v9.7h5.4V33.3c0-2.4-0.6-4.2-1.8-5.6
		C188.4,26.3,186.7,25.6,184.7,25.6 M161,30.4c1.1,0,2.1,0.4,2.8,1.2c0.7,0.8,1.1,1.8,1.1,3.2c0,1.3-0.4,2.4-1.1,3.2
		c-0.7,0.8-1.7,1.2-2.8,1.2c-1.2,0-2.1-0.4-2.8-1.1c-0.7-0.8-1.1-1.8-1.1-3.2c0-1.4,0.4-2.4,1.1-3.2C158.9,30.8,159.8,30.4,161,30.4
		 M159.2,25.6c-1.5,0-2.8,0.4-3.9,1.1c-1.2,0.7-2.1,1.8-2.7,3.2c-0.7,1.4-1,3-1,4.9c0,1.8,0.3,3.5,1,4.8c0.7,1.4,1.6,2.4,2.7,3.2
		c1.2,0.7,2.5,1.1,3.9,1.1c1.4,0,2.5-0.3,3.5-0.9c1-0.6,1.7-1.5,2.2-2.5v3.2h5.4V25.8h-5.4v3.2c-0.5-1.1-1.2-1.9-2.2-2.5
		C161.8,25.9,160.6,25.6,159.2,25.6 M148.2,38.9c-0.7,0-1.2-0.1-1.4-0.4c-0.3-0.3-0.4-0.8-0.4-1.5v-6.6h3.6v-4.6h-3.6v-4.4h-5.4v4.4
		h-2.4v4.6h2.4V37c0,2.4,0.6,4.1,1.7,5.1c1.2,1,2.8,1.5,4.9,1.5h2.5v-4.7H148.2z M134.6,38.9c-0.7,0-1.2-0.1-1.4-0.4
		c-0.3-0.3-0.4-0.8-0.4-1.5v-6.6h3.6v-4.6h-3.6v-4.4h-5.4v4.4h-2.4v4.6h2.4V37c0,2.4,0.6,4.1,1.7,5.1c1.2,1,2.8,1.5,4.9,1.5h2.5
		v-4.7H134.6z M113,30.4c1.1,0,2.1,0.4,2.8,1.2c0.7,0.8,1.1,1.8,1.1,3.2c0,1.3-0.4,2.4-1.1,3.2c-0.7,0.8-1.7,1.2-2.8,1.2
		c-1.2,0-2.1-0.4-2.8-1.1c-0.7-0.8-1.1-1.8-1.1-3.2c0-1.4,0.4-2.4,1.1-3.2C110.9,30.8,111.8,30.4,113,30.4 M111.2,25.6
		c-1.5,0-2.8,0.4-3.9,1.1c-1.2,0.7-2.1,1.8-2.7,3.2c-0.7,1.4-1,3-1,4.9c0,1.8,0.3,3.5,1,4.8c0.7,1.4,1.6,2.4,2.7,3.2
		c1.2,0.7,2.5,1.1,3.9,1.1c1.4,0,2.5-0.3,3.5-0.9c1-0.6,1.7-1.5,2.2-2.5v3.2h5.4V25.8h-5.4v3.2c-0.5-1.1-1.2-1.9-2.2-2.5
		C113.7,25.9,112.6,25.6,111.2,25.6 M94.5,25.6c-1.4,0-2.5,0.3-3.6,0.9c-1,0.6-1.8,1.5-2.3,2.5v-9h-5.4v23.6h5.4v-9.4
		c0-1.3,0.3-2.3,1-3c0.6-0.7,1.5-1.1,2.6-1.1c1,0,1.9,0.3,2.5,1c0.6,0.7,0.9,1.6,0.9,2.8v9.7h5.4V33.3c0-2.4-0.6-4.2-1.8-5.6
		C98.2,26.3,96.6,25.6,94.5,25.6 M73.5,25.6c-1.4,0-2.5,0.3-3.6,0.9c-1,0.6-1.8,1.5-2.3,2.5v-3.2h-5.4v17.8h5.4v-9.4
		c0-1.3,0.3-2.3,1-3c0.6-0.7,1.5-1.1,2.6-1.1c1,0,1.9,0.3,2.5,1c0.6,0.7,0.9,1.6,0.9,2.8v9.7h5.4V33.3c0-2.4-0.6-4.2-1.8-5.6
		C77.1,26.3,75.5,25.6,73.5,25.6 M49.6,30.4c1.1,0,2.1,0.4,2.8,1.2c0.7,0.8,1.1,1.8,1.1,3.2c0,1.3-0.4,2.4-1.1,3.2
		c-0.7,0.8-1.7,1.2-2.8,1.2c-1.2,0-2.1-0.4-2.8-1.1c-0.7-0.8-1.1-1.8-1.1-3.2c0-1.4,0.4-2.4,1.1-3.2C47.5,30.8,48.4,30.4,49.6,30.4
		 M47.8,25.6c-1.5,0-2.8,0.4-3.9,1.1c-1.2,0.7-2.1,1.8-2.7,3.2c-0.7,1.4-1,3-1,4.9c0,1.8,0.3,3.5,1,4.8c0.7,1.4,1.6,2.4,2.7,3.2
		c1.2,0.7,2.5,1.1,3.9,1.1c1.4,0,2.5-0.3,3.5-0.9c1-0.6,1.7-1.5,2.2-2.5v3.2h5.4V25.8h-5.4v3.2c-0.5-1.1-1.2-1.9-2.2-2.5
		C50.4,25.9,49.2,25.6,47.8,25.6 M30.7,21.2l-6,15.6l-6.1-15.6H12v22.4h5.4v-14l4.9,14H27l4.8-14v14h5.4V21.2H30.7z"/>
</g>
</svg>
