<?xml version="1.0" encoding="utf-8"?>
<!-- Generator: Adobe Illustrator 22.1.0, SVG Export Plug-In . SVG Version: 6.00 Build 0)  -->
<svg version="1.1" id="Layer_1" xmlns="http://www.w3.org/2000/svg" xmlns:xlink="http://www.w3.org/1999/xlink" x="0px" y="0px"
	 viewBox="0 0 240 35" style="enable-background:new 0 0 240 35;" xml:space="preserve">
<g id="XMLID_16_">
	<g>
		<g>
			<path id="XMLID_1340_" d="M21.5,7.2c0,0-5.7,10.7-5.9,11.1C15.4,17.9,9.7,7.2,9.7,7.2H7.6v13.7h1.9c0,0,0-9.2,0-10
				c0.4,0.7,5.3,10,5.3,10h1.5c0,0,5-9.3,5.3-10c0,0.8,0,10,0,10h1.9V7.2h0H21.5z"/>
			<path id="XMLID_1339_" d="M69.6,7.2h-1.3c0,0-4.9,6.1-5,6.3c-0.2-0.2-4.9-6.3-4.9-6.3h-2.5c0,0,6.4,8,6.5,8.1c0,0.1,0,5.7,0,5.7
				h1.9c0,0,0-5.6,0-5.7s6.5-8.1,6.5-8.1h-0.3H69.6z"/>
			<path id="XMLID_1338_" d="M107.1,14.7c0.2,0,8.9,0,8.9,0v-1.8c0,0-8.6,0-8.9,0c0-0.2,0-3.8,0-4c0.2,0,9.2,0,9.2,0V7.1h-0.1h-11
				v13.7h11.3V19c0,0-9.1,0-9.3,0C107.1,19,107.1,14.9,107.1,14.7z"/>
			<path id="XMLID_1337_" d="M131.1,7.2H131h-1.8v13.7h10.3v-1.8c0,0-8.1,0-8.3,0C131.1,19,131.1,7.2,131.1,7.2z"/>
			<path id="XMLID_1336_" d="M153,7.2h-0.1h-1.8v13.7h10.2v-1.8c0,0-8.1,0-8.3,0C153,19,153,7.2,153,7.2z"/>
			<polygon id="XMLID_1335_" points="172.3,7.2 172.3,20.9 174.2,20.9 174.2,7.2 174.1,7.2 			"/>
			<path id="XMLID_1334_" d="M198.4,7.2c0,0,0,10.1,0,10.6c-0.4-0.5-8.8-10.6-8.8-10.6h-1.8v13.7h1.9c0,0,0-10.1,0-10.6
				c0.4,0.4,8.8,10.6,8.8,10.6h1.8V7.2h-0.1H198.4z"/>
			<path id="XMLID_1333_" d="M214.7,19.2c0-0.2,0-4.3,0-4.5c0.2,0,8.9,0,8.9,0v-1.8c0,0-8.7,0-8.9,0c0-0.2,0-3.8,0-4
				c0.2,0,9.2,0,9.2,0V7.1h-0.1h-11v13.7H224V19C224,19.2,214.9,19.2,214.7,19.2z"/>
			<path id="XMLID_1330_" d="M42.2,7.2h-1.5l-6.3,13.7h2.1c0,0,1.8-4,1.9-4.1c0.1,0,6.2,0,6.4,0c0.1,0.1,1.9,4.1,1.9,4.1h2.1
				L42.2,7.2L42.2,7.2z M43.8,15.1c-0.3,0-4.4,0-4.7,0c0.1-0.3,2.3-5.1,2.4-5.2C41.6,10.3,43.7,14.8,43.8,15.1z"/>
			<path id="XMLID_1326_" d="M91.5,13.7c1-0.6,1.5-1.6,1.5-2.8c0-2.3-1.5-3.6-4.2-3.6h-6.9h-0.5V21h7.3c3.5,0,4.8-2.1,4.8-4
				C93.4,16.4,93.3,14.5,91.5,13.7z M88.4,13c0,0-4.9,0-5.1,0c0-0.2,0-3.8,0-4c0.2,0,5,0,5,0c1.7,0,2.9,0.1,2.9,1.9
				C91.1,12.3,90.2,13,88.4,13z M91.5,16.8c0,1.5-1,2.3-3.1,2.3c0,0-5,0-5.2,0c0-0.2,0-4.3,0-4.5c0.2,0,5,0,5,0
				C90,14.7,91.5,14.9,91.5,16.8z"/>
		</g>
		<g>
			<path id="XMLID_1324_" d="M151.1,23.1h1.4l3.5,4.3l0,0v-4.3h1.3v5.8h-1.4l-3.5-4.3l0,0v4.3h-1.3V23.1z"/>
			<path id="XMLID_1322_" d="M161.3,23.1h5.5V24h-4.1v1.5h3.8v0.8h-3.8V28h4.2v0.9h-5.5L161.3,23.1L161.3,23.1z"/>
			<path id="XMLID_1320_" d="M170.3,23.1h1.4l1.4,4.4l0,0l1.5-4.4h1.4l1.5,4.4l0,0l1.4-4.4h1.4l-2.1,5.8h-1.4l-1.5-4.4l0,0l-1.6,4.4
				h-1.4L170.3,23.1z"/>
			<path id="XMLID_1318_" d="M189.6,26.6l-2.9-3.5h1.5l2,2.6l2-2.6h1.5l-2.8,3.5v2.3h-1.3V26.6z"/>
			<path id="XMLID_1315_" d="M203.9,26c0,1.7-1.4,3-3.6,3c-2.3,0-3.6-1.4-3.6-3c0-1.7,1.4-3,3.6-3C202.6,23,203.9,24.4,203.9,26z
				 M198,26c0,1.1,0.7,2.2,2.3,2.2s2.3-1.1,2.3-2.2s-0.7-2.2-2.3-2.2S198,24.9,198,26z"/>
			<path id="XMLID_1312_" d="M207.7,23.1h3.6c1.7,0,2.5,0.6,2.5,1.6c0,1.1-1,1.4-1.3,1.5l0,0c0.5,0,1.1,0.3,1.1,1.2
				c0,0.7,0.1,1.3,0.4,1.5h-1.4c-0.2-0.3-0.2-0.6-0.2-0.9c0-1.1-0.3-1.5-1.5-1.5h-2v2.4h-1.3L207.7,23.1L207.7,23.1z M209,25.8h2.2
				c0.8,0,1.3-0.3,1.3-0.9c0-0.7-0.6-0.9-1.3-0.9H209V25.8z"/>
			<path id="XMLID_647_" d="M217.7,23.1h1.3v2.7l3.4-2.6h1.6l-3,2.3l3.2,3.5h-1.7l-2.5-2.8l-1.1,0.8v2h-1.3v-5.9H217.7z"/>
		</g>
	</g>
</g>
<g id="XMLID_8_">
	<g id="XMLID_9_">
		<g>
			<path id="XMLID_1_" d="M230.5,7.2c2.4,0,4.5,1.9,4.5,4.4c0,2.6-2,4.5-4.5,4.5s-4.5-1.9-4.5-4.5C226,9.1,228.1,7.2,230.5,7.2z
				 M230.5,15.5c2.1,0,3.7-1.7,3.7-3.8c0-2.1-1.6-3.8-3.7-3.8c-2.1,0-3.7,1.7-3.7,3.8S228.4,15.5,230.5,15.5z M228.9,9.2h1.9
				c1.2,0,1.7,0.5,1.7,1.4s-0.6,1.3-1.3,1.3l1.4,2.2h-0.8l-1.3-2.1h-0.8v2.1h-0.8L228.9,9.2L228.9,9.2z M229.6,11.4h0.8
				c0.7,0,1.3,0,1.3-0.8c0-0.7-0.6-0.8-1.1-0.8h-1V11.4z"/>
			<path d="M230.5,16.2c-2.6,0-4.6-2-4.6-4.6c0-2.5,2.1-4.5,4.6-4.5s4.6,2,4.6,4.5C235.1,14.2,233.1,16.2,230.5,16.2z M230.5,7.3
				c-2.4,0-4.4,2-4.4,4.4c0,2.5,1.9,4.4,4.4,4.4s4.4-1.9,4.4-4.4S232.9,7.3,230.5,7.3z M230.5,15.6c-2.2,0-3.8-1.7-3.8-3.9
				c0-2.2,1.7-3.9,3.8-3.9s3.8,1.7,3.8,3.9C234.3,13.9,232.7,15.6,230.5,15.6z M230.5,7.9c-2.1,0-3.6,1.6-3.6,3.7s1.6,3.8,3.6,3.8
				s3.6-1.6,3.6-3.8C234.1,9.6,232.5,7.9,230.5,7.9z M232.8,14.2h-1l0,0l-1.3-2.1h-0.7v2.1h-0.9V9.1h2c1.2,0,1.8,0.5,1.8,1.5
				c0,0.8-0.4,1.3-1.2,1.4L232.8,14.2z M231.8,14h0.6l-1.4-2.2h0.1c0.8-0.1,1.2-0.5,1.2-1.3c0-0.9-0.5-1.3-1.6-1.3h-1.8V14h0.6v-2.1
				h0.9l0,0L231.8,14z M230.4,11.5h-0.9V9.8h1.1c0.3,0,1.2,0,1.2,0.8C231.8,11.5,231,11.5,230.4,11.5z M229.7,11.3h0.7
				c0.7,0,1.2-0.1,1.2-0.7c0-0.5-0.3-0.7-1-0.7h-0.9V11.3z"/>
		</g>
	</g>
</g>
</svg>
