<?xml version="1.0" encoding="utf-8"?>
<!-- Generator: Adobe Illustrator 22.1.0, SVG Export Plug-In . SVG Version: 6.00 Build 0)  -->
<svg version="1.1" id="Layer_1" xmlns="http://www.w3.org/2000/svg" xmlns:xlink="http://www.w3.org/1999/xlink" x="0px" y="0px"
	 viewBox="0 0 858 443" style="enable-background:new 0 0 858 443;" xml:space="preserve">
<style type="text/css">
	.st0{fill:#FFFFFF;}
	.st1{fill:#A19C94;}
	.st2{fill:#F58020;}
	.st3{fill:#FEDC00;}
	.st4{fill:#02864A;}
	.st5{fill:#EF4323;}
	.st6{fill:#BF4C8F;}
	.st7{fill:#88983D;}
	.st8{fill:#2BACE2;}
	.st9{fill:#FCBD8E;}
	.st10{clip-path:url(#SVGID_2_);}
	.st11{fill:#A0653F;}
	.st12{fill:#0172B5;}
	.st13{fill:#F280A5;}
	.st14{clip-path:url(#SVGID_4_);}
</style>
<rect x="286" y="-0.3" class="st0" width="286" height="88.7"/>
<rect x="-0.1" y="177.1" class="st1" width="286" height="88.7"/>
<rect x="-0.1" y="354.6" class="st2" width="286" height="88.7"/>
<rect x="-0.1" y="88.4" class="st3" width="286" height="88.7"/>
<rect x="-0.1" y="265.9" class="st4" width="286" height="88.7"/>
<rect x="-0.1" y="-0.3" class="st5" width="286" height="88.7"/>
<rect x="286" y="177.1" class="st6" width="286" height="88.7"/>
<rect x="286" y="354.6" class="st7" width="286" height="88.7"/>
<rect x="286" y="88.4" class="st8" width="286" height="88.7"/>
<rect x="286" y="265.9" class="st9" width="286" height="88.7"/>
<g>
	<defs>
		<rect id="SVGID_1_" x="-0.1" y="-0.3" width="858.1" height="443.6"/>
	</defs>
	<clipPath id="SVGID_2_">
		<use xlink:href="#SVGID_1_"  style="overflow:visible;"/>
	</clipPath>
	<path class="st10" d="M511.8,395.6c-0.4-0.1-0.6-0.2-1.1-0.2c-1.6,0-2.8,1-3.3,2v-1.7h-4.3v10.9h4.3v-3.8c0-2.6,1.3-3.4,2.9-3.4
		c0.6,0,0.9,0,1.5,0.2V395.6z M501,402c0.1-0.6,0.1-1.1,0.1-1.6c0-2.6-2.2-5.1-6.2-5.1c-4.2,0-6.2,2.6-6.2,5.8
		c0,3.5,2.4,5.8,6.3,5.8c3.4,0,5.5-1.7,5.9-3.9h-4.2c-0.2,0.6-0.8,1.1-1.7,1.1c-1.5,0-2-1-2-2H501z M495,398c1.1,0,1.9,0.7,1.9,1.9
		h-3.8C493.1,398.7,493.9,398,495,398 M488.1,403.5c-0.4,0-0.7,0.1-1.2,0.1c-0.8,0-1.4-0.3-1.4-1.6v-3.3h2.5v-3h-2.5v-3.2h-4.3v3.2
		h-1.6v3h1.6v4.3c0,3.6,2.2,3.9,4.2,3.9c1.3,0,2.1-0.1,2.7-0.2V403.5z M479,403.5c-0.4,0-0.7,0.1-1.2,0.1c-0.8,0-1.4-0.3-1.4-1.6
		v-3.3h2.5v-3h-2.5v-3.2h-4.3v3.2h-1.6v3h1.6v4.3c0,3.6,2.2,3.9,4.2,3.9c1.3,0,2.1-0.1,2.7-0.2V403.5z M463.2,403.3
		c-1.2,0-2-1-2-2.2c0-1.2,0.8-2.2,2-2.2c1.3,0,2,0.9,2,2.2C465.3,402.3,464.5,403.3,463.2,403.3 M463.2,406.9c4.1,0,6.4-2.6,6.4-5.8
		c0-3.2-2.3-5.8-6.4-5.8s-6.4,2.6-6.4,5.8C456.9,404.2,459.2,406.9,463.2,406.9 M449.8,399.1h-1.9v-4.4h1.9c1.2,0,2,1,2,2.2
		S451,399.1,449.8,399.1 M443.3,406.6h4.6v-3.9h2.8c3.5,0,5.8-2.6,5.8-5.7c0-3.1-2.3-5.7-5.8-5.7h-7.4V406.6z M429.1,403.3
		c-1.2,0-2-1-2-2.2c0-1.2,0.8-2.2,2-2.2c1.2,0,2.1,1,2.1,2.2C431.2,402.3,430.4,403.3,429.1,403.3 M431.2,395.6v1.6
		c-0.4-0.9-1.8-1.9-3.3-1.9c-3,0-5.1,2.3-5.1,5.7s2.1,5.7,5.1,5.7c1.6,0,2.9-1,3.3-1.9v1.6h4.3v-10.9H431.2z M417.4,399.8
		c-1.7-0.5-2.6-0.6-2.6-1.3c0-0.5,0.5-0.8,1-0.8c0.7,0,1.1,0.4,1.1,1.2h4.3c0-2-1.3-3.7-5.2-3.7c-3.6,0-5.5,1-5.5,3.5
		c0,2.3,2,2.8,4.1,3.3c1.9,0.5,2.5,0.7,2.5,1.3c0,0.5-0.4,0.8-1.1,0.8c-0.9,0-1.4-0.4-1.4-1.3h-4.3c0,2.5,1.8,4,5.6,4
		c3,0,5.5-0.8,5.5-3.7C421.4,400.9,419.7,400.4,417.4,399.8 M404.9,399.8c-1.7-0.5-2.6-0.6-2.6-1.3c0-0.5,0.5-0.8,1-0.8
		c0.7,0,1.1,0.4,1.1,1.2h4.3c0-2-1.3-3.7-5.2-3.7c-3.6,0-5.5,1-5.5,3.5c0,2.3,2,2.8,4.1,3.3c1.9,0.5,2.5,0.7,2.5,1.3
		c0,0.5-0.4,0.8-1.1,0.8c-0.9,0-1.4-0.4-1.4-1.3h-4.3c0,2.5,1.8,4,5.6,4c3,0,5.5-0.8,5.5-3.7C409,400.9,407.2,400.4,404.9,399.8
		 M391.2,392.3c0,1.4,1.1,2.5,2.5,2.5c1.5,0,2.6-1.1,2.6-2.5c0-1.4-1.1-2.5-2.6-2.5C392.3,389.8,391.2,390.9,391.2,392.3
		 M391.6,406.6h4.3v-10.9h-4.3V406.6z M390.3,395.6c-0.4-0.1-0.6-0.2-1.1-0.2c-1.6,0-2.8,1-3.3,2v-1.7h-4.3v10.9h4.3v-3.8
		c0-2.6,1.3-3.4,2.9-3.4c0.6,0,0.9,0,1.5,0.2V395.6z M372.6,403.3c-1.2,0-2-1-2-2.2c0-1.2,0.8-2.2,2-2.2c1.2,0,2.1,1,2.1,2.2
		C374.7,402.3,373.9,403.3,372.6,403.3 M374.7,395.6v1.6c-0.4-0.9-1.8-1.9-3.3-1.9c-3,0-5.1,2.3-5.1,5.7s2.1,5.7,5.1,5.7
		c1.6,0,2.9-1,3.3-1.9v1.6h4.3v-10.9H374.7z M360.2,400.5c-0.3,1.3-1.5,2.3-3.2,2.3c-2.4,0-3.8-1.7-3.8-4c0-2.1,1.3-4,3.7-4
		c1.9,0,3,1.1,3.3,2.6h4.8c-0.4-3.7-3.2-6.8-8.2-6.8c-5.2,0-8.3,3.9-8.3,8.1c0,4.3,3.1,8.1,8.4,8.1c4.7,0,7.6-2.9,8.1-6.5H360.2z"/>
	<path class="st10" d="M221.3,225.3c0-0.7-0.2-1.3-0.5-1.7c-0.3-0.4-0.7-0.8-1.1-1c-0.4-0.2-1-0.5-1.7-0.7c-0.6-0.2-1.1-0.4-1.3-0.6
		c-0.3-0.2-0.4-0.4-0.4-0.7c0-0.2,0.1-0.4,0.2-0.5c0.1-0.1,0.3-0.2,0.5-0.2c0.3,0,0.5,0.1,0.7,0.2c0.2,0.2,0.3,0.4,0.3,0.7h3.2
		c-0.1-1-0.5-1.8-1.2-2.4c-0.7-0.6-1.7-0.9-2.9-0.9c-0.8,0-1.4,0.1-2,0.4c-0.6,0.2-1.1,0.6-1.4,1.1s-0.5,1-0.5,1.7
		c0,0.7,0.2,1.3,0.5,1.7s0.7,0.8,1.1,1c0.4,0.2,1,0.4,1.7,0.7c0.6,0.2,1.1,0.4,1.4,0.6s0.4,0.4,0.4,0.7c0,0.2-0.1,0.4-0.2,0.6
		c-0.1,0.1-0.3,0.2-0.6,0.2c-0.3,0-0.5-0.1-0.7-0.3c-0.2-0.2-0.3-0.5-0.3-0.8h-3.1c0.1,1.1,0.5,1.9,1.3,2.5c0.8,0.6,1.8,0.9,3,0.9
		c0.8,0,1.5-0.1,2.1-0.4s1-0.7,1.3-1.1C221.1,226.4,221.3,225.9,221.3,225.3 M209.3,220.1v-2.4h-6.8v10.6h6.8V226h-3.9v-1.9h3.4
		v-2.2h-3.4v-1.8H209.3z M198.1,217.8h-3v6l-3.9-6h-3v10.6h3v-5.9l3.9,5.9h3V217.8z M178.9,220.3c0.8,0,1.3,0.2,1.8,0.7
		c0.4,0.5,0.6,1.1,0.6,2c0,0.8-0.2,1.5-0.6,2c-0.4,0.5-1,0.7-1.8,0.7c-0.8,0-1.3-0.2-1.8-0.7c-0.4-0.5-0.6-1.1-0.6-2
		c0-0.8,0.2-1.5,0.6-2C177.5,220.6,178.1,220.3,178.9,220.3 M178.9,217.6c-1,0-1.9,0.2-2.7,0.7c-0.8,0.5-1.5,1.1-2,1.9
		s-0.7,1.8-0.7,2.8c0,1,0.2,2,0.7,2.8s1.1,1.5,2,1.9c0.8,0.5,1.7,0.7,2.7,0.7c1,0,1.9-0.2,2.7-0.7c0.8-0.5,1.5-1.1,2-1.9
		s0.7-1.8,0.7-2.8c0-1-0.2-2-0.7-2.8c-0.5-0.8-1.1-1.5-2-1.9C180.8,217.8,179.9,217.6,178.9,217.6 M166.6,217.8v7.1
		c0,0.7-0.3,1-0.8,1c-0.6,0-0.9-0.4-0.9-1.3h-2.9c0,1.3,0.4,2.3,1.1,3c0.7,0.7,1.7,1,2.9,1c1.1,0,2-0.3,2.7-0.9
		c0.6-0.6,0.9-1.5,0.9-2.7v-7.1H166.6z M152.7,217.8h-3v6l-3.9-6h-3v10.6h3v-5.9l3.9,5.9h3V217.8z M133.5,220.3
		c0.8,0,1.3,0.2,1.8,0.7c0.4,0.5,0.6,1.1,0.6,2c0,0.8-0.2,1.5-0.6,2c-0.4,0.5-1,0.7-1.8,0.7c-0.8,0-1.3-0.2-1.8-0.7
		c-0.4-0.5-0.6-1.1-0.6-2c0-0.8,0.2-1.5,0.6-2C132.1,220.6,132.7,220.3,133.5,220.3 M133.5,217.6c-1,0-1.9,0.2-2.7,0.7
		c-0.8,0.5-1.5,1.1-2,1.9c-0.5,0.8-0.7,1.8-0.7,2.8c0,1,0.2,2,0.7,2.8c0.5,0.8,1.1,1.5,2,1.9c0.8,0.5,1.7,0.7,2.7,0.7
		c1,0,1.9-0.2,2.7-0.7c0.8-0.5,1.5-1.1,2-1.9c0.5-0.8,0.7-1.8,0.7-2.8c0-1-0.2-2-0.7-2.8s-1.1-1.5-1.9-1.9
		C135.4,217.8,134.5,217.6,133.5,217.6 M116.1,217.8v2.4h2.8v8.3h2.9v-8.3h2.9v-2.4H116.1z M112.4,217.8h-3v6l-3.9-6h-3v10.6h3v-5.9
		l3.9,5.9h3V217.8z M92.2,224.4l1.2-3.4l1.1,3.4H92.2z M95.9,228.4H99l-3.9-10.6h-3.4l-3.9,10.6h3.1l0.6-1.8h3.8L95.9,228.4z
		 M76.3,217.8v2.4h2.8v8.3H82v-8.3h2.9v-2.4H76.3z M72.9,225.3c0-0.7-0.2-1.3-0.5-1.7s-0.7-0.8-1.1-1c-0.4-0.2-1-0.5-1.7-0.7
		c-0.6-0.2-1.1-0.4-1.3-0.6c-0.3-0.2-0.4-0.4-0.4-0.7c0-0.2,0.1-0.4,0.2-0.5c0.1-0.1,0.3-0.2,0.5-0.2c0.3,0,0.5,0.1,0.7,0.2
		c0.2,0.2,0.3,0.4,0.3,0.7h3.2c-0.1-1-0.5-1.8-1.2-2.4c-0.7-0.6-1.7-0.9-2.9-0.9c-0.8,0-1.4,0.1-2,0.4c-0.6,0.2-1.1,0.6-1.4,1.1
		c-0.3,0.5-0.5,1-0.5,1.7c0,0.7,0.2,1.3,0.5,1.7c0.3,0.4,0.7,0.8,1.1,1c0.4,0.2,1,0.4,1.7,0.7c0.6,0.2,1.1,0.4,1.4,0.6
		c0.3,0.2,0.4,0.4,0.4,0.7c0,0.2-0.1,0.4-0.2,0.6c-0.1,0.1-0.3,0.2-0.6,0.2c-0.3,0-0.5-0.1-0.7-0.3c-0.2-0.2-0.3-0.5-0.3-0.8h-3.1
		c0.1,1.1,0.5,1.9,1.3,2.5c0.8,0.6,1.8,0.9,3,0.9c0.8,0,1.5-0.1,2.1-0.4s1-0.7,1.3-1.1C72.8,226.4,72.9,225.9,72.9,225.3"/>
	<path class="st10" d="M490.1,224.8c0.1-0.6,0.1-1.1,0.1-1.6c0-2.6-2.2-5.1-6.2-5.1c-4.2,0-6.2,2.6-6.2,5.8c0,3.5,2.4,5.8,6.3,5.8
		c3.4,0,5.5-1.7,5.9-3.9h-4.2c-0.2,0.6-0.8,1.1-1.7,1.1c-1.5,0-2-1-2-2H490.1z M484,220.8c1.1,0,1.9,0.7,1.9,1.9h-3.8
		C482.1,221.5,482.9,220.8,484,220.8 M477.4,226.3c-0.4,0-0.7,0.1-1.2,0.1c-0.8,0-1.4-0.3-1.4-1.7v-3.3h2.5v-3h-2.5v-3.2h-4.3v3.2
		h-1.6v3h1.6v4.3c0,3.6,2.2,3.9,4.2,3.9c1.3,0,2.1-0.1,2.7-0.2V226.3z M461.6,234.1c2.2,0,3.3-0.3,4.4-1.2c1-0.8,1.6-2.2,1.6-4
		v-10.5h-4.3v5.3c0,1.5-0.6,2.3-1.6,2.3c-1.1,0-1.5-0.8-1.5-2.1v-5.5h-4.3v6.1c0,1.6,0.2,2.7,1,3.6c0.6,0.6,1.7,1.1,3,1.1
		c1.6,0,2.9-0.7,3.4-1.8v2c0,1.4-0.6,1.9-1.7,1.9c-1,0-1.6-0.6-1.7-1.5h-4.3c0,1.4,0.7,2.5,1.5,3.2
		C458.2,233.8,459.5,234.1,461.6,234.1 M447,226c-1.2,0-2-1-2-2.2c0-1.2,0.8-2.2,2-2.2c1.2,0,2.1,1,2.1,2.2
		C449.1,225.1,448.3,226,447,226 M449.1,218.4v1.6c-0.4-0.9-1.8-1.9-3.3-1.9c-3,0-5.1,2.3-5.1,5.7c0,3.4,2.1,5.7,5.1,5.7
		c1.6,0,2.9-1,3.3-1.9v1.6h4.3v-10.9H449.1z M440,226.3c-0.4,0-0.7,0.1-1.2,0.1c-0.8,0-1.4-0.3-1.4-1.7v-3.3h2.5v-3h-2.5v-3.2h-4.3
		v3.2h-1.6v3h1.6v4.3c0,3.6,2.2,3.9,4.2,3.9c1.3,0,2.1-0.1,2.7-0.2V226.3z M418.2,224.2c0,3.6,2.5,5.6,6.3,5.6c3.9,0,6.3-1.8,6.3-5
		s-2.9-4.2-5.6-5.1c-1.4-0.5-2.1-1-2.1-1.8c0-0.8,0.7-1.2,1.4-1.2c1,0,1.5,0.7,1.5,1.9h4.6c0-2.4-1.5-5-6-5c-3.1,0-6.1,1.3-6.1,4.5
		c0,3.1,2.5,4.1,5.4,5.2c1.6,0.6,2.3,1,2.3,1.8c0,0.8-0.6,1.3-1.5,1.3c-1.2,0-1.9-0.8-1.9-2.2H418.2z M411.6,229.3v-6.6
		c0-2.6-0.7-4.6-3.8-4.6c-1.6,0-2.9,0.8-3.5,2c-0.4-1.2-1.4-2-3.2-2c-1.6,0-2.8,0.8-3.3,1.9v-1.6h-4.1v10.9h4.1V224
		c0-1.7,0.6-2.3,1.5-2.3c0.9,0,1.3,0.7,1.3,1.9v5.7h4.1v-5.5c0-1.6,0.6-2.2,1.5-2.2c0.9,0,1.3,0.7,1.3,1.9v5.7H411.6z M385.8,226
		c-1.2,0-2-1-2-2.2c0-1.2,0.8-2.2,2-2.2c1.3,0,2,0.9,2,2.2C387.8,225.1,387,226,385.8,226 M385.8,229.7c4.1,0,6.4-2.6,6.4-5.8
		c0-3.2-2.3-5.8-6.4-5.8s-6.4,2.6-6.4,5.8C379.4,227,381.7,229.7,385.8,229.7 M372.6,229.3h4.6v-11.5h3.2v-3.9h-10.9v3.9h3.2V229.3z
		"/>
	<path class="st10" d="M230,384.2h-3.3l-1.4,12.1l-1.5-12.1h-3.3l2.9,17.8v11.5h3.4V402L230,384.2z M214.2,396.4
		c0,0.9-0.2,1.2-0.6,1.2h-0.9v-9.9h0.9c0.4,0,0.6,0.4,0.6,1.2V396.4z M218.1,413.5v-0.1c-0.2-1.4-0.4-2.9-0.4-4.8v-6.2
		c0-1.4-0.7-2.3-1.7-3c0.9-0.8,1.6-1.7,1.6-3v-7.5c0-3.7-2.2-4.6-3.9-4.6h-4.4v29.3h3.4v-12.6h0.8c0.5,0,0.7,0.5,0.7,1.1v6.9
		c0,1.5,0.3,4.5,0.8,4.5H218.1z M205.6,413.5V410h-3.7v-9.8h2.5v-3.5h-2.5v-8.9h3.7v-3.5h-7.1v29.3H205.6z M194.3,413.5v-29.3H190
		l-1.2,11.5l-0.5,7.4l-0.6-7.4l-1.3-11.5h-4.5v29.3h2.9v-23.6l0.3,6.4l1.5,17.2h2.4l1.7-17.2l0.4-6.4v23.6H194.3z M174.7,404.4h-1.5
		l0.9-12.9L174.7,404.4z M178.6,413.5l-2.7-29.3h-3.8l-2.6,29.3h3l0.4-5.3h2l0.2,5.3H178.6z M166.9,413.5V410h-3.7v-9.8h2.5v-3.5
		h-2.5v-8.9h3.7v-3.5h-7.1v29.3H166.9z M152.4,396.4c0,0.9-0.2,1.2-0.6,1.2h-0.9v-9.9h0.9c0.4,0,0.6,0.4,0.6,1.2V396.4z
		 M156.3,413.5v-0.1c-0.2-1.4-0.4-2.9-0.4-4.8v-6.2c0-1.4-0.7-2.3-1.7-3c0.9-0.8,1.6-1.7,1.6-3v-7.5c0-3.7-2.2-4.6-3.9-4.6h-4.4
		v29.3h3.4v-12.6h0.8c0.5,0,0.7,0.5,0.7,1.1v6.9c0,1.5,0.3,4.5,0.8,4.5H156.3z M143.8,408.8v-5.6h-2.9v5.8c0,0.7-0.3,1.2-1,1.2
		s-1-0.5-1-1.2v-20.2c0-0.7,0.3-1.2,1-1.2s1,0.5,1,1.2v5.7h2.9v-5.6c0-2.9-1.4-5-3.9-5c-2.4,0-4.4,2.1-4.4,5v20c0,3,2.1,5,4.4,5
		C142.4,413.8,143.8,411.8,143.8,408.8 M125.4,413.5v-29.3h-2.8v18.3l-0.5-4l-2.4-14.3h-3.5v29.3h2.9v-18.4l0.7,4l2.9,14.5H125.4z
		 M112.6,413.5V410h-3.7v-9.8h2.5v-3.5h-2.5v-8.9h3.7v-3.5h-7.1v29.3H112.6z M98.1,408.8c0,0.8-0.3,1.2-0.8,1.2h-0.9v-22.3h0.9
		c0.6,0,0.8,0.4,0.8,1.2V408.8z M101.5,408.9v-20.1c0-3.7-2.2-4.6-3.9-4.6H93v29.3h4.7C99.4,413.5,101.5,412.6,101.5,408.9
		 M85.5,396.4c0,0.9-0.2,1.2-0.6,1.2H84v-9.9h0.9c0.4,0,0.6,0.4,0.6,1.2V396.4z M89.4,413.5v-0.1c-0.2-1.4-0.4-2.9-0.4-4.8v-6.2
		c0-1.4-0.7-2.3-1.7-3c0.9-0.8,1.6-1.7,1.6-3v-7.5c0-3.7-2.2-4.6-3.9-4.6h-4.4v29.3H84v-12.6h0.8c0.5,0,0.7,0.5,0.7,1.1v6.9
		c0,1.5,0.3,4.5,0.8,4.5H89.4z M73.3,404.4h-1.5l0.9-12.9L73.3,404.4z M77.3,413.5l-2.7-29.3h-3.8l-2.6,29.3h3l0.4-5.3h2l0.2,5.3
		H77.3z M65.4,413.5v-14.3h-4.2v3.1H62v7.1c0,0.7-0.4,1.1-0.9,1.1c-0.6,0-0.9-0.4-0.9-1.1v-20.9c0-0.7,0.4-1.1,0.9-1.1
		c0.6,0,1,0.4,1,1.1v6.2h3.1v-6c0-2.9-1.7-5-4.1-5s-4.2,2.1-4.2,5v20c0,3.3,1.5,5,3.8,5c0.9,0,1.8-0.4,2.3-1.5l0.3,1.1H65.4z"/>
	<path class="st10" d="M230.1,41.5h-4.3v1.6c-0.6-1.2-1.9-1.9-3.4-1.9c-3.1,0-5,2.3-5,5.7c0,3.4,2.1,5.3,5.1,5.3
		c1.5,0,2.8-0.7,3.3-1.7v1.7c0,1.4-0.8,2-2.1,2c-1.2,0-1.9-0.7-1.9-1.4h-4.3c0,1.2,0.7,2.4,1.7,3.1c0.9,0.7,2.2,1.1,4.5,1.1
		c2.2,0,3.5-0.4,4.6-1.1c1.3-0.9,1.8-2.2,1.8-4.2V41.5z M223.7,44.8c1.2,0,2,1,2,2.2c0,1.2-0.8,2.2-2,2.2c-1.2,0-2-1-2-2.2
		C221.7,45.8,222.5,44.8,223.7,44.8 M217,41.4c-0.4-0.1-0.6-0.2-1.1-0.2c-1.6,0-2.8,1-3.3,2v-1.7h-4.3v10.9h4.3v-3.9
		c0-2.6,1.3-3.4,2.9-3.4c0.6,0,0.9,0,1.5,0.2V41.4z M206.4,47.8c0.1-0.6,0.1-1.1,0.1-1.6c0-2.6-2.2-5.1-6.2-5.1
		c-4.2,0-6.2,2.6-6.2,5.8c0,3.5,2.4,5.8,6.3,5.8c3.4,0,5.5-1.7,5.9-3.9h-4.2c-0.2,0.6-0.8,1.1-1.7,1.1c-1.5,0-2-1-2-2H206.4z
		 M200.3,43.8c1.1,0,1.9,0.7,1.9,1.9h-3.8C198.4,44.5,199.2,43.8,200.3,43.8 M186.7,49.1c-1.2,0-2-1-2-2.2c0-1.2,0.8-2.2,2-2.2
		c1.2,0,2,1,2,2.2C188.7,48.1,187.9,49.1,186.7,49.1 M184.6,50.8c0.4,0.9,1.8,1.9,3.3,1.9c3,0,5.1-2.3,5.1-5.7s-2.1-5.7-5.1-5.7
		c-1.5,0-2.9,1-3.3,1.9V37h-4.3v15.4h4.3V50.8z M166.3,52.4h4.3v-5.3c0-1.5,0.6-2.3,1.7-2.3c1.1,0,1.5,0.8,1.5,2.1v5.5h4.3v-6.5
		c0-1.6-0.2-2.8-1-3.7c-0.6-0.6-1.6-1-2.9-1c-1.8,0-3,0.7-3.6,1.9v-1.6h-4.3V52.4z M164.4,47.8c0.1-0.6,0.1-1.1,0.1-1.6
		c0-2.6-2.2-5.1-6.2-5.1c-4.2,0-6.2,2.6-6.2,5.8c0,3.5,2.4,5.8,6.3,5.8c3.4,0,5.5-1.7,5.9-3.9h-4.2c-0.2,0.6-0.8,1.1-1.7,1.1
		c-1.5,0-2-1-2-2H164.4z M158.4,43.8c1.1,0,1.9,0.7,1.9,1.9h-3.8C156.5,44.5,157.3,43.8,158.4,43.8 M147.1,45.7
		c-1.7-0.5-2.6-0.6-2.6-1.3c0-0.6,0.5-0.8,1-0.8c0.7,0,1.1,0.4,1.1,1.2h4.3c0-2-1.3-3.7-5.2-3.7c-3.6,0-5.5,1-5.5,3.5
		c0,2.3,2,2.8,4.1,3.3c1.9,0.5,2.5,0.7,2.5,1.3c0,0.5-0.4,0.8-1.1,0.8c-0.9,0-1.4-0.4-1.4-1.3H140c0,2.5,1.8,4,5.6,4
		c3,0,5.5-0.8,5.5-3.7C151.1,46.7,149.4,46.2,147.1,45.7 M132.6,49.1c-1.2,0-2-1-2-2.2c0-1.2,0.8-2.2,2-2.2c1.3,0,2,0.9,2,2.2
		C134.6,48.1,133.9,49.1,132.6,49.1 M132.6,52.7c4.1,0,6.4-2.6,6.4-5.8c0-3.2-2.3-5.8-6.4-5.8s-6.4,2.6-6.4,5.8
		C126.2,50.1,128.5,52.7,132.6,52.7 M118.7,44.9h-1.9v-4.4h1.9c1.2,0,2,1,2,2.2C120.8,43.9,120,44.9,118.7,44.9 M112.3,52.4h4.6
		v-3.9h0.9l2.6,3.9h5.4l-3.1-4.7c1.8-1,2.8-2.9,2.8-5c0-3.1-2.3-5.7-5.8-5.7h-7.4V52.4z M93.7,52.4h4.1v-5.3c0-1.5,0.6-2.3,1.7-2.3
		s1.5,0.8,1.5,2.1v5.5h4.1V46c0-1.6-0.2-2.9-1-3.8c-0.6-0.6-1.5-1-2.7-1c-1.7,0-2.9,0.8-3.5,1.9V37h-4.1V52.4z M85,49.1
		c-1.2,0-2-1-2-2.2c0-1.2,0.8-2.2,2-2.2c1.2,0,2.1,1,2.1,2.2C87.1,48.1,86.2,49.1,85,49.1 M87.1,41.5v1.6c-0.4-0.9-1.8-1.9-3.3-1.9
		c-3,0-5.1,2.3-5.1,5.7s2.1,5.7,5.1,5.7c1.6,0,2.9-1,3.3-1.9v1.6h4.3V41.5H87.1z M77.3,47.8c0.1-0.6,0.1-1.1,0.1-1.6
		c0-2.6-2.2-5.1-6.2-5.1c-4.2,0-6.2,2.6-6.2,5.8c0,3.5,2.4,5.8,6.3,5.8c3.4,0,5.5-1.7,5.9-3.9h-4.2c-0.2,0.6-0.8,1.1-1.7,1.1
		c-1.5,0-2-1-2-2H77.3z M71.3,43.8c1.1,0,1.9,0.7,1.9,1.9h-3.8C69.4,44.5,70.2,43.8,71.3,43.8 M60.6,48.5V37H56v15.4h8.6v-3.9H60.6z
		"/>
	<path class="st10" d="M533.2,135.6c0-0.7-0.2-1.3-0.5-1.7s-0.7-0.8-1.1-1c-0.4-0.2-1-0.5-1.7-0.7c-0.6-0.2-1.1-0.4-1.3-0.6
		c-0.3-0.2-0.4-0.4-0.4-0.7c0-0.2,0.1-0.4,0.2-0.5s0.3-0.2,0.5-0.2c0.3,0,0.5,0.1,0.7,0.2c0.2,0.2,0.3,0.4,0.3,0.7h3.2
		c-0.1-1-0.5-1.8-1.2-2.4c-0.7-0.6-1.7-0.9-2.9-0.9c-0.8,0-1.4,0.1-2,0.4c-0.6,0.2-1.1,0.6-1.4,1.1c-0.3,0.5-0.5,1-0.5,1.7
		c0,0.7,0.2,1.3,0.5,1.7s0.7,0.8,1.1,1s1,0.4,1.7,0.7c0.6,0.2,1.1,0.4,1.4,0.6c0.3,0.2,0.4,0.4,0.4,0.7c0,0.2-0.1,0.4-0.2,0.6
		c-0.1,0.1-0.3,0.2-0.6,0.2c-0.3,0-0.5-0.1-0.7-0.3c-0.2-0.2-0.3-0.5-0.3-0.8H525c0.1,1.1,0.5,1.9,1.3,2.5s1.8,0.9,3,0.9
		c0.8,0,1.5-0.1,2.1-0.4c0.6-0.3,1-0.7,1.3-1.1C533.1,136.7,533.2,136.2,533.2,135.6 M521,128h-3v6l-3.9-6h-3v10.6h3v-5.9l3.9,5.9h3
		V128z M501.7,130.6c0.8,0,1.3,0.2,1.8,0.7c0.4,0.5,0.6,1.1,0.6,2c0,0.8-0.2,1.5-0.6,2c-0.4,0.5-1,0.7-1.8,0.7
		c-0.8,0-1.3-0.2-1.8-0.7c-0.4-0.5-0.6-1.1-0.6-2c0-0.8,0.2-1.5,0.6-2C500.4,130.8,501,130.6,501.7,130.6 M501.7,127.9
		c-1,0-1.9,0.2-2.7,0.7c-0.8,0.5-1.5,1.1-2,1.9c-0.5,0.8-0.7,1.8-0.7,2.8c0,1,0.2,2,0.7,2.8c0.5,0.8,1.1,1.5,2,1.9
		c0.8,0.5,1.7,0.7,2.7,0.7s1.9-0.2,2.7-0.7c0.8-0.5,1.5-1.1,2-1.9c0.5-0.8,0.7-1.8,0.7-2.8c0-1-0.2-2-0.7-2.8
		c-0.5-0.8-1.1-1.5-1.9-1.9C503.7,128.1,502.7,127.9,501.7,127.9 M487.2,130.6c0.8,0,1.3,0.2,1.8,0.7c0.4,0.5,0.6,1.1,0.6,2
		c0,0.8-0.2,1.5-0.6,2c-0.4,0.5-1,0.7-1.8,0.7c-0.8,0-1.3-0.2-1.8-0.7c-0.4-0.5-0.6-1.1-0.6-2c0-0.8,0.2-1.5,0.6-2
		C485.9,130.8,486.5,130.6,487.2,130.6 M487.2,127.9c-1,0-1.9,0.2-2.7,0.7c-0.8,0.5-1.5,1.1-2,1.9c-0.5,0.8-0.7,1.8-0.7,2.8
		c0,1,0.2,2,0.7,2.8c0.5,0.8,1.1,1.5,2,1.9c0.8,0.5,1.7,0.7,2.7,0.7s1.9-0.2,2.7-0.7c0.8-0.5,1.5-1.1,2-1.9c0.5-0.8,0.7-1.8,0.7-2.8
		c0-1-0.2-2-0.7-2.8c-0.5-0.8-1.1-1.5-2-1.9C489.1,128.1,488.2,127.9,487.2,127.9 M475,128h-3v10.6h6.3v-2.2H475V128z M464.9,128h-3
		v10.6h6.3v-2.2h-3.3V128z M451.6,134.7l1.2-3.4l1.1,3.4H451.6z M455.2,138.7h3.1l-3.9-10.6h-3.4l-3.9,10.6h3.1l0.6-1.8h3.8
		L455.2,138.7z M439.8,136.3h-1.7v-2h1.7c0.8,0,1.2,0.3,1.2,1C441,136,440.6,136.3,439.8,136.3 M438.2,130.4h1.5
		c0.8,0,1.1,0.3,1.1,1c0,0.6-0.4,0.9-1.1,0.9h-1.5V130.4z M442,133.2c0.5-0.1,1-0.4,1.3-0.8c0.3-0.4,0.5-1,0.5-1.6
		c0-0.9-0.3-1.6-0.9-2c-0.6-0.5-1.4-0.7-2.5-0.7h-5.1v10.6h5.2c1.1,0,2-0.3,2.6-0.8c0.6-0.5,0.9-1.2,0.9-2.1c0-0.6-0.2-1.2-0.5-1.6
		C443.1,133.7,442.6,133.3,442,133.2 M420.3,130.6c0.8,0,1.3,0.2,1.8,0.7c0.4,0.5,0.6,1.1,0.6,2c0,0.8-0.2,1.5-0.6,2
		c-0.4,0.5-1,0.7-1.8,0.7c-0.8,0-1.3-0.2-1.8-0.7c-0.4-0.5-0.6-1.1-0.6-2c0-0.8,0.2-1.5,0.6-2C419,130.8,419.6,130.6,420.3,130.6
		 M420.3,127.9c-1,0-1.9,0.2-2.7,0.7c-0.8,0.5-1.5,1.1-2,1.9c-0.5,0.8-0.7,1.8-0.7,2.8c0,1,0.2,2,0.7,2.8c0.5,0.8,1.1,1.5,2,1.9
		c0.8,0.5,1.7,0.7,2.7,0.7s1.9-0.2,2.7-0.7c0.8-0.5,1.5-1.1,2-1.9c0.5-0.8,0.7-1.8,0.7-2.8c0-1-0.2-2-0.7-2.8
		c-0.5-0.8-1.1-1.5-1.9-1.9C422.2,128.1,421.3,127.9,420.3,127.9 M407.3,128.1l-2.5,6.9l-2.6-6.9h-3.6v10.6h3v-6l2,6h2.5l2-6v6h2.9
		v-10.6H407.3z M391.2,138.7h3V128h-3V138.7z M386.9,128h-3v6l-3.9-6h-3v10.6h3v-5.9l3.9,5.9h3V128z M367.7,130.6
		c0.8,0,1.3,0.2,1.8,0.7c0.4,0.5,0.6,1.1,0.6,2c0,0.8-0.2,1.5-0.6,2c-0.4,0.5-1,0.7-1.8,0.7c-0.8,0-1.3-0.2-1.8-0.7
		c-0.4-0.5-0.6-1.1-0.6-2c0-0.8,0.2-1.5,0.6-2C366.3,130.8,366.9,130.6,367.7,130.6 M367.7,127.9c-1,0-1.9,0.2-2.7,0.7
		c-0.8,0.5-1.5,1.1-2,1.9c-0.5,0.8-0.7,1.8-0.7,2.8c0,1,0.2,2,0.7,2.8c0.5,0.8,1.1,1.5,2,1.9s1.7,0.7,2.7,0.7c1,0,1.9-0.2,2.7-0.7
		s1.5-1.1,2-1.9c0.5-0.8,0.7-1.8,0.7-2.8c0-1-0.2-2-0.7-2.8c-0.5-0.8-1.1-1.5-1.9-1.9C369.6,128.1,368.7,127.9,367.7,127.9
		 M353,130.5h1.5c0.4,0,0.7,0.1,0.9,0.3c0.2,0.2,0.3,0.5,0.3,0.8c0,0.7-0.4,1.1-1.2,1.1H353V130.5z M358.7,138.7l-2.4-4.1
		c0.8-0.2,1.4-0.6,1.8-1.1c0.4-0.5,0.6-1.2,0.6-1.9c0-0.6-0.1-1.2-0.5-1.8c-0.3-0.5-0.7-0.9-1.3-1.2c-0.6-0.3-1.3-0.4-2.2-0.4h-4.7
		v10.6h3v-3.9h0.3l2.1,3.9H358.7z M346,130.4V128h-6.8v10.6h6.8v-2.4h-3.9v-1.9h3.4v-2.2h-3.4v-1.8H346z M330.1,127.9
		c-1.1,0-2,0.2-2.8,0.7c-0.8,0.5-1.4,1.1-1.9,1.9c-0.4,0.8-0.7,1.7-0.7,2.8c0,1.1,0.2,2,0.7,2.8c0.4,0.8,1.1,1.5,1.9,1.9
		c0.8,0.5,1.8,0.7,2.8,0.7c1.3,0,2.3-0.3,3.2-0.9c0.8-0.6,1.4-1.4,1.8-2.3v-2.9h-5.4v2.1h2.9c-0.2,0.5-0.5,0.8-0.9,1.1
		s-0.8,0.4-1.3,0.4c-0.9,0-1.5-0.2-2-0.7c-0.5-0.5-0.7-1.2-0.7-2.1c0-0.8,0.2-1.5,0.6-1.9c0.4-0.5,1-0.7,1.7-0.7
		c0.4,0,0.8,0.1,1.1,0.3c0.3,0.2,0.5,0.4,0.7,0.7h3.1c-0.2-1.1-0.7-2-1.6-2.7C332.6,128.3,331.5,127.9,330.1,127.9"/>
	<path class="st10" d="M528.4,318.5c0.1,0,0.3-0.1,0.3-0.3v-3.4c0-0.1-0.1-0.3-0.3-0.3h-6.1v-1.4h4.3c0.2,0,0.3-0.1,0.3-0.3v-2.8
		c0-0.1-0.1-0.3-0.3-0.3h-4.3v-1.4h6.1c0.1,0,0.3-0.1,0.3-0.3v-3.4c0-0.1-0.1-0.3-0.3-0.3h-10.8c-0.1,0-0.3,0.1-0.3,0.3v13.4
		c0,0.2,0.1,0.3,0.3,0.3H528.4z M499.7,318.3c0,0.2,0.1,0.3,0.3,0.3h4.3c0.1,0,0.3-0.1,0.3-0.3v-5h3.6v5c0,0.2,0.1,0.3,0.3,0.3h4.3
		c0.2,0,0.3-0.1,0.3-0.3v-13.4c0-0.1-0.1-0.3-0.3-0.3h-4.3c-0.1,0-0.3,0.1-0.3,0.3v4.5h-3.6v-4.5c0-0.1-0.1-0.3-0.3-0.3H500
		c-0.2,0-0.3,0.1-0.3,0.3V318.3z M493.5,313.2c-0.1-0.1-0.3,0-0.4,0.1c0,0-0.9,1.3-2.8,1.3c-2,0-3.1-1.5-3.1-3.2
		c0-1.7,1.1-3.1,3.1-3.1c1.8,0,2.4,0.9,2.4,0.9c0.1,0.1,0.3,0.2,0.4,0.1l3.1-2c0.1-0.1,0.2-0.3,0.1-0.4c0,0-1.5-2.8-6.1-2.8
		c-4.5,0-7.9,3.1-7.9,7.3s3.4,7.4,7.9,7.4c4.7,0,6.2-3.5,6.2-3.5c0.1-0.1,0-0.3-0.1-0.4L493.5,313.2z M468.1,316
		c0,0,1.9,2.9,6.1,2.9c4.2,0,5.9-2.8,5.9-4.5c0-1.4-0.5-2.2-1.3-2.9c-0.8-0.8-3-1.5-4.3-1.9c-1.3-0.4-1.3-1.5-0.3-1.6
		c1.2-0.1,2.3,1.1,2.3,1.1c0.1,0.1,0.3,0.1,0.4,0.1l2.6-1.5c0.1-0.1,0.2-0.3,0.1-0.4c0,0-1.2-3.1-5.3-3.1c-3.9,0-6.2,2.1-6.2,4.2
		c0,1.7,0.7,2.7,1.7,3.3c0.9,0.6,2.7,1.4,4.1,1.8c1.4,0.5,0.9,1.5-0.2,1.4c-1.4-0.1-2.6-1-2.6-1c-0.1-0.1-0.3-0.1-0.4,0l-2.5,1.7
		C468,315.7,468,315.9,468.1,316 M459.7,318.3c0,0.2,0.1,0.3,0.3,0.3h4.3c0.1,0,0.3-0.1,0.3-0.3v-13.4c0-0.1-0.1-0.3-0.3-0.3H460
		c-0.2,0-0.3,0.1-0.3,0.3V318.3z M442.1,318.3c0,0.2,0.1,0.3,0.3,0.3h4.3c0.1,0,0.3-0.1,0.3-0.3v-5h3.6v5c0,0.2,0.1,0.3,0.3,0.3h4.3
		c0.2,0,0.3-0.1,0.3-0.3v-13.4c0-0.1-0.1-0.3-0.3-0.3h-4.3c-0.1,0-0.3,0.1-0.3,0.3v4.5H447v-4.5c0-0.1-0.1-0.3-0.3-0.3h-4.3
		c-0.2,0-0.3,0.1-0.3,0.3V318.3z M423.5,312.9H421l1.2-3.9L423.5,312.9z M425.4,304.8c-0.1-0.1-0.2-0.3-0.4-0.3h-5.9
		c-0.2,0-0.3,0.1-0.4,0.3l-4.8,13.5c-0.1,0.1,0,0.3,0.2,0.3h4.8c0.1,0,0.3-0.1,0.4-0.3l0.6-1.7c0.1-0.1,0.2-0.3,0.4-0.3h3.8
		c0.1,0,0.3,0.1,0.4,0.3l0.6,1.7c0.1,0.1,0.2,0.3,0.4,0.3h4.8c0.2,0,0.3-0.1,0.2-0.3L425.4,304.8z M409.3,313.2
		c-0.1-0.1-0.3,0-0.4,0.1c0,0-0.9,1.3-2.8,1.3c-2,0-3.1-1.5-3.1-3.2c0-1.7,1.1-3.1,3.1-3.1c1.8,0,2.4,0.9,2.4,0.9
		c0.1,0.1,0.3,0.2,0.4,0.1l3.1-2c0.1-0.1,0.2-0.3,0.1-0.4c0,0-1.5-2.8-6.1-2.8c-4.5,0-7.9,3.1-7.9,7.3s3.4,7.4,7.9,7.4
		c4.7,0,6.2-3.5,6.2-3.5c0.1-0.1,0-0.3-0.1-0.4L409.3,313.2z M389.9,318.3c0,0.2,0.1,0.3,0.3,0.3h4.3c0.1,0,0.3-0.1,0.3-0.3v-13.4
		c0-0.1-0.1-0.3-0.3-0.3h-4.3c-0.2,0-0.3,0.1-0.3,0.3V318.3z M374.5,316c0,0,1.9,2.9,6.1,2.9c4.2,0,5.9-2.8,5.9-4.5
		c0-1.4-0.5-2.2-1.3-2.9c-0.8-0.8-3-1.5-4.3-1.9c-1.3-0.4-1.3-1.5-0.3-1.6c1.2-0.1,2.3,1.1,2.3,1.1c0.1,0.1,0.3,0.1,0.4,0.1l2.6-1.5
		c0.1-0.1,0.2-0.3,0.1-0.4c0,0-1.2-3.1-5.3-3.1c-3.9,0-6.2,2.1-6.2,4.2c0,1.7,0.7,2.7,1.7,3.3c0.9,0.6,2.7,1.4,4.1,1.8
		c1.4,0.5,0.9,1.5-0.2,1.4c-1.4-0.1-2.6-1-2.6-1c-0.1-0.1-0.3-0.1-0.4,0l-2.5,1.7C374.5,315.7,374.4,315.9,374.5,316 M360.1,316
		c0,0,1.9,2.9,6.1,2.9c4.2,0,5.9-2.8,5.9-4.5c0-1.4-0.5-2.2-1.3-2.9c-0.8-0.8-3-1.5-4.3-1.9c-1.3-0.4-1.3-1.5-0.3-1.6
		c1.2-0.1,2.3,1.1,2.3,1.1c0.1,0.1,0.3,0.1,0.4,0.1l2.6-1.5c0.1-0.1,0.2-0.3,0.1-0.4c0,0-1.2-3.1-5.3-3.1c-3.9,0-6.2,2.1-6.2,4.2
		c0,1.7,0.7,2.7,1.7,3.3c0.9,0.6,2.7,1.4,4.1,1.8c1.4,0.5,0.9,1.5-0.2,1.4c-1.4-0.1-2.6-1-2.6-1c-0.1-0.1-0.3-0.1-0.4,0l-2.5,1.7
		C360.1,315.7,360.1,315.9,360.1,316 M357.1,318.5c0.1,0,0.3-0.1,0.3-0.3v-3.4c0-0.1-0.1-0.3-0.3-0.3h-6.1v-1.4h4.3
		c0.2,0,0.3-0.1,0.3-0.3v-2.8c0-0.1-0.1-0.3-0.3-0.3h-4.3v-1.4h6.1c0.1,0,0.3-0.1,0.3-0.3v-3.4c0-0.1-0.1-0.3-0.3-0.3h-10.8
		c-0.1,0-0.3,0.1-0.3,0.3v13.4c0,0.2,0.1,0.3,0.3,0.3H357.1z M330,315.7c0.4,0.6,1.7,3.2,5.7,3.2c4.2,0,6-2.5,6-5.3v-8.9
		c0-0.1-0.1-0.3-0.3-0.3h-4.3c-0.1,0-0.3,0.1-0.3,0.3v7.3c0,1.4-0.2,2.8-1.5,2.9c-1.5,0.1-2.2-1.3-2.2-1.3c-0.1-0.1-0.3-0.2-0.4-0.1
		l-2.6,1.7C330,315.4,329.9,315.6,330,315.7"/>
	<path class="st10" d="M221.4,148v-29.3h-2.8V137l-0.5-4l-2.4-14.3h-3.5V148h2.9v-18.4l0.7,4l2.9,14.5H221.4z M208.7,148v-3.5H205
		v-9.8h2.5v-3.5H205v-8.9h3.7v-3.5h-7.1V148H208.7z M194.2,130.9c0,0.9-0.2,1.2-0.6,1.2h-0.9v-9.9h0.9c0.4,0,0.6,0.4,0.6,1.2V130.9z
		 M198.1,148v-0.1c-0.2-1.4-0.4-2.9-0.4-4.8v-6.2c0-1.4-0.7-2.3-1.7-3c0.9-0.8,1.6-1.7,1.6-3v-7.5c0-3.7-2.2-4.6-3.9-4.6h-4.4V148
		h3.4v-12.6h0.8c0.5,0,0.7,0.5,0.7,1.1v6.9c0,1.5,0.3,4.5,0.8,4.5H198.1z M185.4,148v-14.3h-4.2v3.1h0.8v7.1c0,0.7-0.4,1.1-0.9,1.1
		c-0.6,0-0.9-0.4-0.9-1.1v-20.9c0-0.7,0.4-1.1,0.9-1.1c0.6,0,1,0.4,1,1.1v6.2h3.1v-6c0-2.9-1.7-5-4.1-5c-2.4,0-4.2,2.1-4.2,5v20
		c0,3.3,1.5,5,3.8,5c0.9,0,1.8-0.4,2.3-1.5l0.3,1.1H185.4z M174,148v-3.4h-3.5v-25.9h-3.4V148H174z M162.9,148v-29.3h-3.4v13h-1.8
		v-13h-3.4V148h3.4v-12.6h1.8V148H162.9z M147,138.9h-1.5l0.9-12.9L147,138.9z M151,148l-2.7-29.3h-3.8l-2.6,29.3h3l0.4-5.3h2
		l0.2,5.3H151z M135.5,143.3c0,0.8-0.3,1.2-0.8,1.2h-0.9v-22.3h0.9c0.6,0,0.8,0.4,0.8,1.2V143.3z M138.9,143.4v-20.1
		c0-3.7-2.2-4.6-3.9-4.6h-4.7V148h4.7C136.7,148,138.9,147.1,138.9,143.4 M116.8,143.3c0,0.8-0.2,1.2-0.7,1.2h-0.9v-9.7h0.9
		c0.4,0,0.7,0.4,0.7,1.2V143.3z M116.8,130.4c0,0.8-0.2,1.2-0.7,1.2h-0.9v-9.3h0.9c0.4,0,0.7,0.4,0.7,1.2V130.4z M120.2,143.4v-7.3
		c0-1.4-0.6-2.2-1.6-3c1-0.7,1.6-1.6,1.6-3v-6.7c0-3.7-2.2-4.6-3.9-4.6h-4.4V148h4.4C118,148,120.2,147.1,120.2,143.4 M104.4,143.6
		c0,0.7-0.3,1.1-0.9,1.1s-0.9-0.4-0.9-1.1v-20.5c0-0.7,0.3-1.1,0.9-1.1s0.9,0.4,0.9,1.1V143.6z M107.8,143.3v-20c0-2.9-1.9-5-4.4-5
		c-2.4,0-4.4,2.1-4.4,5v20c0,3,2,5,4.4,5C105.9,148.4,107.8,146.3,107.8,143.3 M95.6,143.3v-5.6h-2.9v5.8c0,0.7-0.3,1.2-1,1.2
		c-0.7,0-1-0.5-1-1.2v-20.2c0-0.7,0.3-1.2,1-1.2c0.7,0,1,0.5,1,1.2v5.7h2.9v-5.6c0-2.9-1.4-5-3.9-5c-2.4,0-4.4,2.1-4.4,5v20
		c0,3,2.1,5,4.4,5C94.3,148.4,95.6,146.3,95.6,143.3 M80.3,138.9h-1.5l0.9-12.9L80.3,138.9z M84.3,148l-2.7-29.3h-3.8L75.1,148h3
		l0.4-5.3h2l0.2,5.3H84.3z M72.1,143.6v-24.9h-3.4v24.9c0,0.7-0.3,1.1-0.9,1.1s-0.9-0.4-0.9-1.1v-7.3h-3.1v7.3
		c0,2.8,1.8,4.8,4.2,4.8S72.1,146.4,72.1,143.6"/>
</g>
<rect x="572" y="-0.3" class="st11" width="286" height="88.7"/>
<rect x="572" y="177.1" class="st3" width="286" height="88.7"/>
<rect x="572" y="354.6" class="st12" width="286" height="88.7"/>
<rect x="572" y="88.4" class="st2" width="286" height="88.7"/>
<rect x="572" y="265.9" class="st13" width="286" height="88.7"/>
<g>
	<defs>
		<rect id="SVGID_3_" x="-0.1" y="-0.3" width="858.1" height="443.6"/>
	</defs>
	<clipPath id="SVGID_4_">
		<use xlink:href="#SVGID_3_"  style="overflow:visible;"/>
	</clipPath>
	<path class="st14" d="M835,318.6c0-3.1-1.4-6.9-2.9-10.6c-1.6-3.9-2.3-5.1-2.3-8.9c0-0.9,0.5-1.3,1.1-1.3c0.6,0,1,0.4,1,1.3v4.4
		h2.9v-3.9c0-3.7-1.6-5.4-4-5.4c-3.2,0-4.6,2.4-4.6,5.8c0,3,1.9,7.7,3.2,10.6c1.5,3.4,2.2,5.8,2.2,8.7c0,0.9-0.4,1.5-1.2,1.5
		c-0.9,0-1.2-0.6-1.2-1.5v-4.1h-2.9v3.6c0,3.5,1.6,5.4,4.4,5.4C832.4,324.3,835,323.2,835,318.6 M822.7,294.6h-3.4v29.3h3.4V294.6z
		 M811.8,306.8c0,0.9-0.2,1.2-0.6,1.2h-0.9v-9.9h0.9c0.4,0,0.6,0.4,0.6,1.2V306.8z M815.7,323.9v-0.1c-0.2-1.4-0.4-2.9-0.4-4.8v-6.2
		c0-1.4-0.7-2.3-1.7-3c0.9-0.8,1.6-1.7,1.6-3v-7.5c0-3.7-2.2-4.6-3.9-4.6h-4.4v29.3h3.4v-12.6h0.8c0.5,0,0.7,0.5,0.7,1.1v6.9
		c0,1.5,0.3,4.5,0.8,4.5H815.7z M799.4,306.8c0,0.9-0.2,1.2-0.6,1.2h-0.9v-9.9h0.9c0.4,0,0.6,0.4,0.6,1.2V306.8z M803.3,323.9v-0.1
		c-0.2-1.4-0.4-2.9-0.4-4.8v-6.2c0-1.4-0.7-2.3-1.7-3c0.9-0.8,1.6-1.7,1.6-3v-7.5c0-3.7-2.2-4.6-3.9-4.6h-4.4v29.3h3.4v-12.6h0.8
		c0.5,0,0.7,0.5,0.7,1.1v6.9c0,1.5,0.3,4.5,0.8,4.5H803.3z M787.2,314.8h-1.5l0.9-12.9L787.2,314.8z M791.2,323.9l-2.7-29.3h-3.8
		l-2.6,29.3h3l0.4-5.3h2l0.2,5.3H791.2z M778.9,323.9v-29.3h-3.4v13h-1.8v-13h-3.4v29.3h3.4v-12.6h1.8v12.6H778.9z M759.9,323.9
		v-29.3h-2.8v18.3l-0.5-4l-2.4-14.3h-3.5v29.3h2.9v-18.4l0.7,4l2.9,14.5H759.9z M743.5,314.8H742l0.9-12.9L743.5,314.8z
		 M747.5,323.9l-2.7-29.3H741l-2.6,29.3h3l0.4-5.3h2l0.2,5.3H747.5z M735.1,323.9v-29.3h-4.4l-1.2,11.5l-0.5,7.4l-0.6-7.4l-1.3-11.5
		h-4.5v29.3h2.9v-23.6l0.3,6.4l1.5,17.2h2.4l1.7-17.2l0.4-6.4v23.6H735.1z M719.3,323.9l-2.3-16.8l2.2-12.5H716l-2,13v-13h-3.4v29.3
		h3.4v-7.5l0.7-4.4l1.1,11.9H719.3z M703.1,319.5c0,0.7-0.3,1.1-0.9,1.1c-0.6,0-0.9-0.4-0.9-1.1V299c0-0.7,0.3-1.1,0.9-1.1
		c0.6,0,0.9,0.4,0.9,1.1V319.5z M706.5,319.2v-20c0-2.9-1.9-5-4.4-5c-2.4,0-4.4,2.1-4.4,5v20c0,3,2,5,4.4,5
		C704.6,324.3,706.5,322.2,706.5,319.2 M690.5,319.5c0,0.7-0.3,1.1-0.9,1.1c-0.6,0-0.9-0.4-0.9-1.1V299c0-0.7,0.3-1.1,0.9-1.1
		c0.6,0,0.9,0.4,0.9,1.1V319.5z M694,319.2v-20c0-2.9-1.9-5-4.4-5c-2.4,0-4.4,2.1-4.4,5v20c0,3,2,5,4.4,5
		C692.1,324.3,694,322.2,694,319.2 M678.1,306.8c0,0.9-0.2,1.2-0.6,1.2h-0.9v-9.9h0.9c0.4,0,0.6,0.4,0.6,1.2V306.8z M682,323.9v-0.1
		c-0.2-1.4-0.4-2.9-0.4-4.8v-6.2c0-1.4-0.7-2.3-1.7-3c0.9-0.8,1.6-1.7,1.6-3v-7.5c0-3.7-2.2-4.6-3.9-4.6h-4.4v29.3h3.4v-12.6h0.8
		c0.5,0,0.7,0.5,0.7,1.1v6.9c0,1.5,0.3,4.5,0.8,4.5H682z M665.9,319.2c0,0.8-0.2,1.2-0.7,1.2h-0.9v-9.7h0.9c0.4,0,0.7,0.4,0.7,1.2
		V319.2z M665.9,306.3c0,0.8-0.2,1.2-0.7,1.2h-0.9v-9.3h0.9c0.4,0,0.7,0.4,0.7,1.2V306.3z M669.2,319.3V312c0-1.4-0.6-2.2-1.6-3
		c1-0.7,1.6-1.6,1.6-3v-6.7c0-3.7-2.2-4.6-3.9-4.6h-4.4v29.3h4.4C667.1,323.9,669.2,323,669.2,319.3 M650.5,294.6h-3.4v29.3h3.4
		V294.6z M639.6,319.2c0,0.8-0.3,1.2-0.8,1.2h-0.9v-22.3h0.9c0.6,0,0.8,0.4,0.8,1.2V319.2z M643.1,319.3v-20.1
		c0-3.7-2.2-4.6-3.9-4.6h-4.7v29.3h4.7C640.9,323.9,643.1,323,643.1,319.3 M630.3,323.9v-29.3h-2.8v18.3l-0.5-4l-2.4-14.3h-3.5v29.3
		h2.9v-18.4l0.7,4l2.9,14.5H630.3z M613.9,314.8h-1.5l0.9-12.9L613.9,314.8z M617.9,323.9l-2.7-29.3h-3.8l-2.6,29.3h3l0.4-5.3h2
		l0.2,5.3H617.9z M602.4,306.8c0,0.9-0.2,1.2-0.6,1.2h-0.9v-9.9h0.9c0.4,0,0.6,0.4,0.6,1.2V306.8z M606.3,323.9v-0.1
		c-0.2-1.4-0.4-2.9-0.4-4.8v-6.2c0-1.4-0.7-2.3-1.7-3c0.9-0.8,1.6-1.7,1.6-3v-7.5c0-3.7-2.2-4.6-3.9-4.6h-4.4v29.3h3.4v-12.6h0.8
		c0.5,0,0.7,0.5,0.7,1.1v6.9c0,1.5,0.3,4.5,0.8,4.5H606.3z"/>
	<path class="st14" d="M796.5,223H794l1.2-3.9L796.5,223z M798.4,214.9c-0.1-0.1-0.2-0.3-0.4-0.3h-5.9c-0.2,0-0.3,0.1-0.4,0.3
		l-4.8,13.5c-0.1,0.1,0,0.3,0.2,0.3h4.8c0.1,0,0.3-0.1,0.4-0.3l0.6-1.7c0.1-0.1,0.2-0.3,0.4-0.3h3.8c0.1,0,0.3,0.1,0.4,0.3l0.6,1.7
		c0.1,0.1,0.2,0.3,0.4,0.3h4.8c0.2,0,0.3-0.1,0.2-0.3L798.4,214.9z M779.2,228.3c0,0.2,0.1,0.3,0.3,0.3h4.3c0.1,0,0.3-0.1,0.3-0.3
		v-13.4c0-0.1-0.1-0.3-0.3-0.3h-4.3c-0.2,0-0.3,0.1-0.3,0.3V228.3z M773,223.3c-0.1-0.1-0.3,0-0.4,0.1c0,0-0.9,1.3-2.8,1.3
		c-2,0-3.1-1.5-3.1-3.2c0-1.7,1.1-3.1,3.1-3.1c1.8,0,2.4,0.9,2.4,0.9c0.1,0.1,0.3,0.2,0.4,0.1l3.1-2c0.1-0.1,0.2-0.3,0.1-0.4
		c0,0-1.5-2.8-6.1-2.8c-4.5,0-7.9,3.1-7.9,7.3c0,4.2,3.4,7.4,7.9,7.4c4.7,0,6.2-3.5,6.2-3.5c0.1-0.1,0-0.3-0.1-0.4L773,223.3z
		 M748.9,228.6c0.1,0,0.3-0.1,0.3-0.3v-6.5l4.4,6.6c0.1,0.2,0.3,0.2,0.4,0.2h4.2c0.2,0,0.3-0.1,0.3-0.3v-13.4c0-0.1-0.1-0.3-0.3-0.3
		h-3.7c-0.1,0-0.3,0.1-0.3,0.3v5.3l-3.9-5.3c-0.1-0.1-0.2-0.2-0.4-0.2h-4.7c-0.2,0-0.3,0.1-0.3,0.3v13.4c0,0.2,0.1,0.3,0.3,0.3
		H748.9z M740.9,228.6c0.1,0,0.3-0.1,0.3-0.3V225c0-0.1-0.1-0.3-0.3-0.3h-6.1v-1.4h4.3c0.2,0,0.3-0.1,0.3-0.3v-2.8
		c0-0.1-0.1-0.3-0.3-0.3h-4.3v-1.4h6.1c0.1,0,0.3-0.1,0.3-0.3v-3.4c0-0.1-0.1-0.3-0.3-0.3h-10.8c-0.1,0-0.3,0.1-0.3,0.3v13.4
		c0,0.2,0.1,0.3,0.3,0.3H740.9z M716,228.3c0,0.2,0.1,0.3,0.3,0.3h10.2c0.2,0,0.3-0.1,0.3-0.3V225c0-0.1-0.1-0.3-0.3-0.3h-5.6v-9.8
		c0-0.1-0.1-0.3-0.3-0.3h-4.3c-0.1,0-0.3,0.1-0.3,0.3V228.3z M706.1,223h-2.5l1.2-3.9L706.1,223z M708.1,214.9
		c-0.1-0.1-0.2-0.3-0.4-0.3h-5.9c-0.2,0-0.3,0.1-0.4,0.3l-4.8,13.5c-0.1,0.1,0,0.3,0.2,0.3h4.8c0.1,0,0.3-0.1,0.4-0.3l0.6-1.7
		c0.1-0.1,0.2-0.3,0.4-0.3h3.8c0.1,0,0.3,0.1,0.4,0.3l0.6,1.7c0.1,0.1,0.2,0.3,0.4,0.3h4.8c0.2,0,0.3-0.1,0.2-0.3L708.1,214.9z
		 M686.5,228.2c0.1,0.2,0.3,0.3,0.4,0.3h4.1c0.1,0,0.3-0.1,0.4-0.3l5.3-13.3c0.1-0.1,0-0.3-0.2-0.3H692c-0.1,0-0.3,0.1-0.4,0.3
		l-2.5,6.6l-3.1-6.6c-0.1-0.1-0.2-0.3-0.4-0.3h-4.8c-0.2,0-0.2,0.1-0.2,0.3L686.5,228.2z M664.9,225.6c-0.8,0-1.5-0.6-1.5-1.4
		c0-0.8,0.6-1.4,1.5-1.4c0.8,0,1.4,0.5,1.4,1.4C666.4,225,665.7,225.6,664.9,225.6 M665.9,219.5c-1.1,0-2.2,0.1-3.1,1.2
		c-0.1-0.2-0.1-0.5-0.1-0.7c0-1.5,1.3-2.2,2.6-2.2c1.4,0,2.3,0.8,2.3,0.8c0.1,0.1,0.3,0.1,0.4,0l1.7-1.7c0.1-0.1,0.1-0.3,0-0.4
		c0,0-1.6-2-4.4-2c-2.8,0-6.6,1.8-6.6,7.4c0,5.6,3.5,7.3,6,7.3c3.4,0,5.4-2.1,5.4-5.3C670.1,221.2,668.3,219.5,665.9,219.5
		 M647.7,219.6c0,0,0.8-1.9,2.3-1.3c1.5,0.7,0.8,2.4-0.4,3.6c-1.2,1.2-4.5,3.6-4.5,3.6c-0.1,0.1-0.2,0.3-0.2,0.4l0.4,2.4
		c0,0.2,0.2,0.3,0.3,0.3h9.3c0.1,0,0.3-0.1,0.3-0.3V225c0-0.1-0.1-0.3-0.3-0.3h-4.2c0.2-0.1,4.8-1.9,4.8-5.3c0-2.8-1.6-5-5.8-5
		c-4.2,0-5.5,3.9-5.5,3.9c-0.1,0.2,0,0.3,0.2,0.4l3.1,1.1C647.4,219.8,647.6,219.7,647.7,219.6 M635.2,220.1c-0.7,0-1.2-0.5-1.2-1.5
		s0.6-1.5,1.2-1.5c0.7,0,1.3,0.5,1.3,1.5S635.9,220.1,635.2,220.1 M635.2,226c-0.7,0-1.2-0.5-1.2-1.5c0-1,0.6-1.5,1.2-1.5
		c0.7,0,1.3,0.5,1.3,1.5C636.5,225.5,635.9,226,635.2,226 M638.4,221.1c0.1-0.1,1.9-1,1.9-2.8c0-3.2-3-4-5.1-4
		c-2.1,0-5.5,0.7-5.5,3.9c0,2.2,1.7,2.9,1.8,2.9c-0.1,0.1-2.2,0.6-2.2,3.5c0,3.5,3.8,4.3,6,4.3c2.2,0,5.8-0.8,5.8-4.3
		C641.1,221.9,638.6,221.2,638.4,221.1"/>
	<path class="st14" d="M792.2,394.4v2.4h2.8v8.3h2.9v-8.3h2.9v-2.4H792.2z M785.5,394.4v4h-3.6v-4h-3V405h3v-4.3h3.6v4.3h2.9v-10.6
		H785.5z M770,394.3c-1.1,0-2,0.2-2.8,0.7c-0.8,0.5-1.4,1.1-1.9,1.9s-0.7,1.7-0.7,2.8c0,1,0.2,2,0.7,2.8s1.1,1.5,1.9,1.9
		s1.8,0.7,2.8,0.7c1.3,0,2.3-0.3,3.2-0.9c0.8-0.6,1.4-1.4,1.8-2.3V399h-5.4v2.1h2.9c-0.2,0.5-0.5,0.8-0.9,1.1
		c-0.4,0.2-0.8,0.4-1.3,0.4c-0.9,0-1.5-0.2-2-0.7c-0.5-0.5-0.7-1.2-0.7-2.1c0-0.8,0.2-1.5,0.6-1.9c0.4-0.5,1-0.7,1.7-0.7
		c0.4,0,0.8,0.1,1.1,0.3c0.3,0.2,0.5,0.4,0.7,0.7h3.1c-0.2-1.1-0.7-2-1.6-2.7C772.4,394.7,771.3,394.3,770,394.3 M757.6,405h3v-10.6
		h-3V405z M748.1,396.9h1.5c0.4,0,0.7,0.1,0.9,0.3c0.2,0.2,0.3,0.5,0.3,0.8c0,0.7-0.4,1.1-1.2,1.1h-1.5V396.9z M753.8,405l-2.4-4.1
		c0.8-0.2,1.4-0.6,1.8-1.1c0.4-0.5,0.6-1.2,0.6-1.9c0-0.7-0.2-1.2-0.5-1.8c-0.3-0.5-0.7-0.9-1.3-1.2c-0.6-0.3-1.3-0.4-2.2-0.4h-4.7
		V405h3v-3.9h0.3l2.1,3.9H753.8z M738,394.4l-1.2,7.2l-1.6-7.2H732l-1.6,7.2l-1.2-7.2H726l2.5,10.6h3.7l1.5-6.6l1.5,6.6h3.7
		l2.5-10.6H738z M710.5,401l1.2-3.5l1.1,3.5H710.5z M714.1,405h3.1l-3.9-10.6H710l-3.9,10.6h3.1l0.6-1.8h3.8L714.1,405z
		 M697.7,394.3c-1.1,0-2,0.2-2.8,0.7c-0.8,0.5-1.4,1.1-1.8,1.9c-0.4,0.8-0.6,1.8-0.6,2.8c0,1,0.2,2,0.6,2.8s1,1.5,1.8,1.9
		c0.8,0.5,1.7,0.7,2.8,0.7c1.4,0,2.5-0.4,3.4-1.1c0.9-0.7,1.5-1.7,1.7-3h-3.1c-0.2,0.4-0.4,0.8-0.8,1c-0.4,0.2-0.8,0.4-1.2,0.4
		c-0.6,0-1.2-0.2-1.6-0.7c-0.4-0.5-0.6-1.1-0.6-1.9c0-0.8,0.2-1.5,0.6-1.9c0.4-0.5,0.9-0.7,1.6-0.7c0.5,0,0.9,0.1,1.2,0.4
		c0.4,0.2,0.6,0.6,0.8,1h3.1c-0.2-0.8-0.5-1.5-0.9-2.1c-0.5-0.6-1-1.1-1.7-1.4C699.5,394.5,698.6,394.3,697.7,394.3 M683.7,394.3
		c-1,0-2,0.2-2.8,0.7c-0.8,0.5-1.4,1.1-1.8,1.9c-0.4,0.8-0.6,1.8-0.6,2.8c0,1,0.2,2,0.6,2.8s1,1.5,1.8,1.9c0.8,0.5,1.7,0.7,2.8,0.7
		c1.4,0,2.5-0.4,3.4-1.1c0.9-0.7,1.5-1.7,1.7-3h-3.1c-0.2,0.4-0.4,0.8-0.8,1s-0.8,0.4-1.2,0.4c-0.7,0-1.2-0.2-1.6-0.7
		c-0.4-0.5-0.6-1.1-0.6-1.9c0-0.8,0.2-1.5,0.6-1.9c0.4-0.5,0.9-0.7,1.6-0.7c0.5,0,0.9,0.1,1.2,0.4c0.4,0.2,0.6,0.6,0.8,1h3.1
		c-0.2-0.8-0.5-1.5-0.9-2.1c-0.4-0.6-1-1.1-1.7-1.4C685.4,394.5,684.6,394.3,683.7,394.3 M674.8,396.8v-2.4h-6.8V405h6.8v-2.4h-3.9
		v-1.9h3.4v-2.2h-3.4v-1.8H674.8z M659.8,402.7h-1.7v-2h1.7c0.8,0,1.2,0.3,1.2,1C661,402.3,660.6,402.7,659.8,402.7 M658.1,396.8
		h1.5c0.8,0,1.1,0.3,1.1,1c0,0.6-0.4,0.9-1.1,0.9h-1.5V396.8z M661.9,399.6c0.5-0.1,1-0.4,1.3-0.8c0.3-0.4,0.5-1,0.5-1.6
		c0-0.9-0.3-1.6-0.9-2c-0.6-0.5-1.4-0.7-2.5-0.7h-5.1V405h5.2c1.1,0,2-0.3,2.6-0.8c0.6-0.5,0.9-1.2,0.9-2.1c0-0.6-0.2-1.2-0.5-1.6
		S662.6,399.7,661.9,399.6 M651.1,396.8v-2.4h-6.8V405h6.8v-2.4h-3.9v-1.9h3.4v-2.2h-3.4v-1.8H651.1z M634.8,396.9h1.5
		c0.4,0,0.7,0.1,0.9,0.3c0.2,0.2,0.3,0.5,0.3,0.8c0,0.7-0.4,1.1-1.2,1.1h-1.5V396.9z M640.5,405l-2.4-4.1c0.8-0.2,1.4-0.6,1.8-1.1
		c0.4-0.5,0.6-1.2,0.6-1.9c0-0.7-0.2-1.2-0.5-1.8c-0.3-0.5-0.7-0.9-1.3-1.2c-0.6-0.3-1.3-0.4-2.2-0.4h-4.7V405h3v-3.9h0.3l2.1,3.9
		H640.5z"/>
	<path class="st14" d="M795.5,136.7c0.1-0.6,0.1-1.1,0.1-1.6c0-2.6-2.2-5.1-6.2-5.1c-4.2,0-6.2,2.6-6.2,5.8c0,3.5,2.4,5.8,6.3,5.8
		c3.4,0,5.5-1.7,5.9-3.9h-4.2c-0.2,0.6-0.8,1.1-1.7,1.1c-1.5,0-2-1-2-2H795.5z M789.5,132.7c1.1,0,1.9,0.7,1.9,1.9h-3.8
		C787.5,133.4,788.3,132.7,789.5,132.7 M781.7,130.4h-4.3v1.6c-0.6-1.2-1.9-1.9-3.4-1.9c-3.1,0-5,2.3-5,5.7c0,3.4,2.1,5.3,5.1,5.3
		c1.5,0,2.8-0.7,3.3-1.6v1.7c0,1.4-0.8,2-2.1,2c-1.2,0-1.9-0.7-1.9-1.4H769c0,1.2,0.7,2.4,1.7,3.1c0.9,0.7,2.2,1.1,4.5,1.1
		c2.2,0,3.5-0.4,4.6-1.1c1.3-0.9,1.8-2.2,1.8-4.2V130.4z M775.3,133.7c1.2,0,2,1,2,2.2c0,1.2-0.8,2.2-2,2.2s-2-1-2-2.2
		C773.2,134.7,774.1,133.7,775.3,133.7 M760.8,138c-1.2,0-2-1-2-2.2c0-1.2,0.8-2.2,2-2.2c1.2,0,2.1,1,2.1,2.2
		C762.8,137,762,138,760.8,138 M762.8,130.4v1.6c-0.4-0.9-1.8-1.9-3.3-1.9c-3,0-5.1,2.3-5.1,5.7c0,3.4,2.1,5.7,5.1,5.7
		c1.6,0,2.9-1,3.3-1.9v1.6h4.3v-10.9H762.8z M752.8,141.3v-6.6c0-2.6-0.7-4.6-3.8-4.6c-1.6,0-2.9,0.8-3.5,2c-0.4-1.2-1.4-2-3.2-2
		c-1.6,0-2.8,0.8-3.3,1.9v-1.6H735v10.9h4.1V136c0-1.7,0.6-2.3,1.5-2.3c0.9,0,1.3,0.7,1.3,1.9v5.7h4.1v-5.5c0-1.6,0.6-2.2,1.5-2.2
		c0.9,0,1.3,0.7,1.3,1.9v5.7H752.8z M728,127.1c0,1.4,1.1,2.5,2.5,2.5c1.5,0,2.6-1.1,2.6-2.5c0-1.4-1.1-2.5-2.6-2.5
		C729.1,124.5,728,125.7,728,127.1 M728.3,141.3h4.3v-10.9h-4.3V141.3z M727,138.2c-0.4,0-0.7,0.1-1.2,0.1c-0.8,0-1.4-0.3-1.4-1.7
		v-3.3h2.5v-3h-2.5v-3.2h-4.3v3.2h-1.6v3h1.6v4.3c0,3.6,2.2,3.9,4.2,3.9c1.3,0,2.1-0.1,2.7-0.2V138.2z M705.1,136.1
		c0,3.6,2.5,5.6,6.3,5.6c3.9,0,6.3-1.8,6.3-5s-2.9-4.2-5.6-5.1c-1.4-0.5-2.1-1-2.1-1.8c0-0.8,0.7-1.2,1.4-1.2c1,0,1.5,0.7,1.5,1.9
		h4.6c0-2.4-1.5-5-6-5c-3.1,0-6.1,1.3-6.1,4.5c0,3.1,2.5,4.1,5.4,5.2c1.6,0.6,2.3,1,2.3,1.8c0,0.8-0.6,1.3-1.5,1.3
		c-1.2,0-1.9-0.8-1.9-2.2H705.1z M692,138c-1.2,0-2-1-2-2.2c0-1.2,0.8-2.2,2-2.2c1.2,0,2.1,1,2.1,2.2C694.1,137,693.2,138,692,138
		 M694.1,130.4v1.6c-0.4-0.9-1.8-1.9-3.3-1.9c-3,0-5.1,2.3-5.1,5.7c0,3.4,2.1,5.7,5.1,5.7c1.6,0,2.9-1,3.3-1.9v1.6h4.3v-10.9H694.1z
		 M672.7,141.3h4.1V136c0-1.5,0.5-2.3,1.6-2.3c1.1,0,1.5,0.8,1.5,2.1v5.5h4.1v-6.4c0-1.6-0.2-2.9-1-3.8c-0.6-0.6-1.5-1-2.7-1
		c-1.7,0-2.9,0.8-3.5,1.9v-6.1h-4.1V141.3z M666.9,134.6c-1.7-0.5-2.6-0.6-2.6-1.3c0-0.5,0.5-0.8,1-0.8c0.7,0,1.1,0.4,1.1,1.2h4.3
		c0-2-1.3-3.7-5.2-3.7c-3.6,0-5.5,1-5.5,3.5c0,2.3,2,2.8,4.1,3.3c1.9,0.5,2.5,0.7,2.5,1.3c0,0.5-0.4,0.8-1.1,0.8
		c-0.9,0-1.4-0.4-1.4-1.3h-4.3c0,2.5,1.8,4,5.6,4c3,0,5.5-0.8,5.5-3.7C670.9,135.6,669.2,135.1,666.9,134.6 M652.4,138
		c-1.2,0-2-1-2-2.2c0-1.2,0.8-2.2,2-2.2c1.3,0,2,0.9,2,2.2C654.5,137,653.7,138,652.4,138 M652.4,141.6c4.1,0,6.4-2.6,6.4-5.8
		c0-3.2-2.3-5.8-6.4-5.8s-6.4,2.6-6.4,5.8C646.1,139,648.4,141.6,652.4,141.6 M639.2,141.3h4.6v-11.5h3.2v-3.9h-10.9v3.9h3.2V141.3z
		"/>
	<path class="st14" d="M119.3,317c-0.4-0.1-0.6-0.2-1.1-0.2c-1.6,0-2.8,1-3.3,2v-1.7h-4.3V328h4.3v-3.9c0-2.6,1.3-3.4,2.9-3.4
		c0.6,0,0.9,0,1.5,0.2V317z M108.7,323.4c0.1-0.6,0.1-1.1,0.1-1.6c0-2.6-2.2-5.1-6.2-5.1c-4.2,0-6.2,2.6-6.2,5.8
		c0,3.5,2.4,5.8,6.3,5.8c3.4,0,5.5-1.7,5.9-3.9h-4.2c-0.2,0.6-0.8,1.1-1.7,1.1c-1.5,0-2-1-2-2H108.7z M102.7,319.4
		c1.1,0,1.9,0.7,1.9,1.9h-3.8C100.8,320.1,101.6,319.4,102.7,319.4 M88.8,332.7c2.2,0,3.3-0.3,4.4-1.2c1-0.8,1.6-2.2,1.6-4v-10.5
		h-4.3v5.3c0,1.5-0.6,2.3-1.7,2.3c-1.1,0-1.5-0.8-1.5-2.1v-5.5h-4.3v6.1c0,1.6,0.2,2.7,1,3.6c0.6,0.6,1.7,1.1,3,1.1
		c1.7,0,2.9-0.7,3.4-1.8v2c0,1.4-0.6,1.9-1.7,1.9c-1,0-1.6-0.6-1.6-1.5h-4.3c0,1.4,0.7,2.5,1.5,3.2
		C85.4,332.5,86.8,332.7,88.8,332.7 M81.2,323.4c0.1-0.6,0.1-1.1,0.1-1.6c0-2.6-2.2-5.1-6.2-5.1c-4.2,0-6.2,2.6-6.2,5.8
		c0,3.5,2.4,5.8,6.3,5.8c3.4,0,5.5-1.7,5.9-3.9H77c-0.2,0.6-0.8,1.1-1.7,1.1c-1.5,0-2-1-2-2H81.2z M75.2,319.4
		c1.1,0,1.9,0.7,1.9,1.9h-3.8C73.3,320.1,74.1,319.4,75.2,319.4 M57.7,312.6h-4.7V328h4.6v-8.8l5,8.8h4.7v-15.4h-4.6v9.1L57.7,312.6
		z"/>
	<path class="st14" d="M121.2,307h3.8l3.9-10.9h-4.4l-1.7,6.1l-1.4-6.1h-3.8l-1.4,6.1l-1.7-6.1h-4.4L114,307h3.8l1.7-5.9L121.2,307z
		 M110,302.4c0.1-0.6,0.1-1.1,0.1-1.6c0-2.6-2.2-5.1-6.2-5.1c-4.2,0-6.2,2.6-6.2,5.8c0,3.5,2.4,5.8,6.3,5.8c3.4,0,5.5-1.7,5.9-3.9
		h-4.2c-0.2,0.6-0.8,1.1-1.7,1.1c-1.5,0-2-1-2-2H110z M103.9,298.4c1.1,0,1.9,0.7,1.9,1.9H102C102,299.1,102.8,298.4,103.9,298.4
		 M97,296c-0.4-0.1-0.6-0.2-1.1-0.2c-1.6,0-2.8,1-3.3,2v-1.7h-4.3V307h4.3v-3.9c0-2.6,1.3-3.4,2.9-3.4c0.6,0,0.9,0,1.5,0.2V296z
		 M79.6,303.7c-1.2,0-2-1-2-2.2c0-1.2,0.8-2.2,2-2.2c1.2,0,2.1,1,2.1,2.2C81.7,302.7,80.9,303.7,79.6,303.7 M81.7,307H86v-15.4h-4.3
		v6.1c-0.4-0.9-1.8-1.9-3.3-1.9c-3,0-5.1,2.3-5.1,5.7s2.1,5.7,5.1,5.7c1.6,0,2.9-1,3.3-1.9V307z M59.8,307h4.3v-5.3
		c0-1.5,0.5-2.3,1.7-2.3c1.1,0,1.5,0.8,1.5,2.1v5.5h4.3v-6.5c0-1.6-0.2-2.8-1-3.7c-0.6-0.6-1.6-1-2.9-1c-1.8,0-3,0.7-3.6,1.9v-1.6
		h-4.3V307z M52,301.9h-3.3l1.6-5.7L52,301.9z M58.6,307l-5.8-15.4H48L42.3,307h5l0.5-1.8H53l0.5,1.8H58.6z"/>
	<path class="st14" d="M234.8,317c-0.4-0.1-0.6-0.2-1.1-0.2c-1.6,0-2.8,1-3.3,2v-1.7H226V328h4.3v-3.9c0-2.6,1.3-3.4,2.9-3.4
		c0.6,0,0.9,0,1.5,0.2V317z M224.2,323.4c0.1-0.6,0.1-1.1,0.1-1.6c0-2.6-2.2-5.1-6.2-5.1c-4.2,0-6.2,2.6-6.2,5.8
		c0,3.5,2.4,5.8,6.3,5.8c3.4,0,5.5-1.7,5.9-3.9h-4.2c-0.2,0.6-0.8,1.1-1.7,1.1c-1.5,0-2-1-2-2H224.2z M218.1,319.4
		c1.1,0,1.9,0.7,1.9,1.9h-3.8C216.2,320.1,217,319.4,218.1,319.4 M205.9,328h4.3v-15.4h-4.3V328z M199.3,328h4.3v-15.4h-4.3V328z
		 M192.2,313.8c0,1.4,1.1,2.5,2.5,2.5c1.5,0,2.6-1.1,2.6-2.5c0-1.4-1.1-2.5-2.6-2.5C193.3,311.2,192.2,312.4,192.2,313.8 M192.6,328
		h4.3v-10.9h-4.3V328z M190.2,312.6h-5.7l-3.3,9.9l-3.3-9.9h-5.8V328h4.4v-9.5l3,9.5h3.4l2.8-9.5v9.5h4.4V312.6z"/>
	<path class="st14" d="M238.6,304.6c0,1.5,1.2,2.6,2.7,2.6c1.5,0,2.7-1.2,2.7-2.6s-1.2-2.6-2.7-2.6
		C239.7,302,238.6,303.2,238.6,304.6 M237.4,291.6h-4.6v9.8c0,1.4-0.6,2.1-1.7,2.1c-1.1,0-1.6-0.9-1.6-2.2h-4.6c0,3.4,2,6,6.2,6
		c3.8,0,6.2-1.7,6.2-6V291.6z M212.6,311.7c2.2,0,3.3-0.3,4.4-1.2c1-0.8,1.7-2.2,1.7-4v-10.5h-4.3v5.3c0,1.5-0.6,2.3-1.7,2.3
		c-1.1,0-1.5-0.8-1.5-2.1v-5.5h-4.3v6.1c0,1.6,0.2,2.7,1,3.6c0.6,0.6,1.7,1.1,3,1.1c1.6,0,2.9-0.7,3.4-1.8v2c0,1.4-0.6,1.9-1.7,1.9
		c-1,0-1.6-0.6-1.6-1.5h-4.3c0,1.4,0.7,2.5,1.5,3.2C209.2,311.5,210.6,311.7,212.6,311.7 M198.1,303.7c-1.2,0-2-1-2-2.2
		c0-1.2,0.8-2.2,2-2.2c1.2,0,2.1,1,2.1,2.2C200.2,302.7,199.3,303.7,198.1,303.7 M200.2,307h4.3v-15.4h-4.3v6.1
		c-0.4-0.9-1.8-1.9-3.3-1.9c-3,0-5.1,2.3-5.1,5.7s2.1,5.7,5.1,5.7c1.6,0,2.9-1,3.3-1.9V307z M178.4,307h4.3v-5.3
		c0-1.5,0.6-2.3,1.6-2.3c1.1,0,1.5,0.8,1.5,2.1v5.5h4.3v-6.5c0-1.6-0.2-2.8-1-3.7c-0.6-0.6-1.6-1-2.9-1c-1.8,0-3,0.7-3.6,1.9v-1.6
		h-4.3V307z M170.6,301.9h-3.3l1.6-5.7L170.6,301.9z M177.2,307l-5.8-15.4h-4.8l-5.7,15.4h5l0.5-1.8h5.2l0.5,1.8H177.2z"/>
	<path class="st14" d="M144.3,306.7c0,0-0.7-0.6-0.8-1.2c-0.1-0.7,0.2-1.1,0.7-1.1c0.5,0,0.8,0.5,0.7,1.1
		C144.8,306.2,144.4,306.6,144.3,306.7 M142.4,313.3c-0.9-1.2,0.4-2.2,0.4-2.2c0.1-0.1,0.3-0.1,0.4,0.1l1.4,2.1
		c0.1,0.1,0.1,0.3-0.1,0.4C144.5,313.7,143.2,314.5,142.4,313.3 M149.5,313.9c-0.1-0.1-0.2-0.2-0.1-0.4c1.8-1.8,1.6-3.9,1.6-3.8
		c0-0.2-0.2-0.3-0.3-0.3h-2.5c-0.2,0-0.3,0.1-0.3,0.2c-0.3,1-0.5,1.3-0.5,1.3l-1.6-2.2c1.5-0.5,2.6-2,2.6-3.5c0-2.4-2-3.4-4.2-3.4
		s-4.1,1.1-4.1,3.4c0,1.3,0.5,2.2,1.4,3c-0.3,0.1-3.4,0.9-3.4,4.9c0,3,2.5,4.5,4.7,4.5c1.5,0,3.1-0.7,3.8-1.7l0.6,1
		c0.1,0.1,0.3,0.2,0.5,0.2h3.8c0.2,0,0.2-0.1,0.2-0.2L149.5,313.9z"/>
	<path class="st14" d="M514.9,50.7c0.1,0,0.3-0.1,0.3-0.3v-5c0-0.2,0-0.3,0.1-0.5l5.5-8c0.1-0.1,0-0.2-0.1-0.2h-5.3
		c-0.2,0-0.3,0.1-0.4,0.3l-2.3,3.7l-2.6-3.7c-0.1-0.1-0.3-0.2-0.4-0.2h-5.4c-0.1,0-0.2,0.1-0.1,0.2l5.9,8c0.1,0.1,0.2,0.4,0.2,0.5v5
		c0,0.2,0.1,0.3,0.3,0.3H514.9z M498.2,45.1h-2.5l1.2-3.9L498.2,45.1z M500.2,37c-0.1-0.1-0.2-0.3-0.4-0.3h-5.9
		c-0.2,0-0.3,0.1-0.4,0.3l-4.8,13.5c-0.1,0.1,0,0.3,0.2,0.3h4.8c0.1,0,0.3-0.1,0.4-0.3l0.6-1.7c0.1-0.1,0.2-0.3,0.4-0.3h3.8
		c0.1,0,0.3,0.1,0.4,0.3l0.6,1.7c0.1,0.1,0.2,0.3,0.4,0.3h4.8c0.2,0,0.3-0.1,0.2-0.3L500.2,37z M478.4,46.8v-6.2h0.7
		c0.7,0,2.8,0,2.8,3.1c0,3.1-2.5,3.1-2.5,3.1H478.4z M478.4,36.7h-4.6c-0.1,0-0.3,0.1-0.3,0.3v13.4c0,0.2,0.1,0.3,0.3,0.3h4.6
		c4.1,0,8.4-0.7,8.4-7C486.8,37.4,481.2,36.7,478.4,36.7 M458,50.7c0.1,0,0.3-0.1,0.3-0.3v-5c0-0.2,0-0.3,0.1-0.5l5.5-8
		c0.1-0.1,0-0.2-0.1-0.2h-5.3c-0.2,0-0.3,0.1-0.4,0.3l-2.3,3.7l-2.6-3.7c-0.1-0.1-0.3-0.2-0.4-0.2h-5.4c-0.1,0-0.2,0.1-0.1,0.2
		l5.9,8c0.1,0.1,0.2,0.4,0.2,0.5v5c0,0.2,0.1,0.3,0.3,0.3H458z M439.7,43.2h-1.4v-2.5h1.4c0.7,0,1.4,0.4,1.4,1.3
		S440.4,43.2,439.7,43.2 M433.7,36.7c-0.1,0-0.3,0.1-0.3,0.3v13.4c0,0.2,0.1,0.3,0.3,0.3h4.4c0.1,0,0.3-0.1,0.3-0.3v-3.6h1.7
		c2.8,0,6-1.4,6-4.9s-3.2-5.2-6-5.2H433.7z M424,43.2h-1.4v-2.5h1.4c0.7,0,1.4,0.4,1.4,1.3S424.7,43.2,424,43.2 M417.9,36.7
		c-0.1,0-0.3,0.1-0.3,0.3v13.4c0,0.2,0.1,0.3,0.3,0.3h4.4c0.1,0,0.3-0.1,0.3-0.3v-3.6h1.7c2.8,0,6-1.4,6-4.9s-3.2-5.2-6-5.2H417.9z
		 M408,45.1h-2.5l1.2-3.9L408,45.1z M409.9,37c-0.1-0.1-0.2-0.3-0.4-0.3h-5.9c-0.2,0-0.3,0.1-0.4,0.3l-4.8,13.5
		c-0.1,0.1,0,0.3,0.2,0.3h4.8c0.1,0,0.3-0.1,0.4-0.3l0.6-1.7c0.1-0.1,0.2-0.3,0.4-0.3h3.8c0.1,0,0.3,0.1,0.4,0.3l0.6,1.7
		c0.1,0.1,0.2,0.3,0.4,0.3h4.8c0.2,0,0.3-0.1,0.2-0.3L409.9,37z M382.3,50.4c0,0.2,0.1,0.3,0.3,0.3h4.3c0.1,0,0.3-0.1,0.3-0.3v-5
		h3.6v5c0,0.2,0.1,0.3,0.3,0.3h4.3c0.2,0,0.3-0.1,0.3-0.3V37c0-0.1-0.1-0.3-0.3-0.3h-4.3c-0.1,0-0.3,0.1-0.3,0.3v4.5h-3.6V37
		c0-0.1-0.1-0.3-0.3-0.3h-4.3c-0.2,0-0.3,0.1-0.3,0.3V50.4z M357.7,50.4c0,0.2,0.1,0.3,0.3,0.3h4.3c0.1,0,0.3-0.1,0.3-0.3v-5h3.6v5
		c0,0.2,0.1,0.3,0.3,0.3h4.3c0.2,0,0.3-0.1,0.3-0.3V37c0-0.1-0.1-0.3-0.3-0.3h-4.3c-0.1,0-0.3,0.1-0.3,0.3v4.5h-3.6V37
		c0-0.1-0.1-0.3-0.3-0.3h-4.3c-0.2,0-0.3,0.1-0.3,0.3V50.4z M346.4,46.9c-2,0-3.1-1.5-3.1-3.2c0-1.7,1.1-3.1,3.1-3.1
		c2,0,3.1,1.4,3.1,3.1C349.5,45.3,348.3,46.9,346.4,46.9 M346.4,36.4c-4.5,0-7.9,3.1-7.9,7.3c0,4.2,3.4,7.4,7.9,7.4
		c4.5,0,7.9-3.2,7.9-7.4C354.2,39.5,350.8,36.4,346.4,36.4"/>
	<path class="st14" d="M761,40c-1.1,0-2,0.2-2.8,0.7c-0.8,0.5-1.4,1.1-1.9,1.9s-0.7,1.7-0.7,2.8c0,1.1,0.2,2,0.7,2.8
		c0.4,0.8,1.1,1.5,1.9,1.9c0.8,0.5,1.8,0.7,2.8,0.7c1.3,0,2.3-0.3,3.2-0.9c0.8-0.6,1.4-1.4,1.8-2.3v-2.9h-5.4v2.1h2.9
		c-0.2,0.5-0.5,0.8-0.9,1.1s-0.8,0.4-1.3,0.4c-0.9,0-1.5-0.2-2-0.7s-0.7-1.2-0.7-2.1c0-0.8,0.2-1.5,0.6-1.9c0.4-0.5,1-0.7,1.7-0.7
		c0.4,0,0.8,0.1,1.1,0.3c0.3,0.2,0.5,0.4,0.7,0.7h3.1c-0.2-1.1-0.7-2-1.6-2.7S762.3,40,761,40 M751.6,40.1h-3v6l-3.9-6h-3v10.6h3
		v-5.9l3.9,5.9h3V40.1z M731.5,46.7l1.2-3.5l1.1,3.5H731.5z M735.1,50.7h3.1l-3.9-10.6H731l-3.9,10.6h3.1l0.6-1.8h3.8L735.1,50.7z
		 M720.6,40.1v7c0,0.7-0.3,1-0.8,1c-0.6,0-0.9-0.4-0.9-1.3H716c0,1.3,0.4,2.3,1.1,3c0.7,0.7,1.7,1,2.9,1c1.1,0,2-0.3,2.7-0.9
		s0.9-1.5,0.9-2.7v-7H720.6z M706.8,40.1h-3v6l-3.9-6h-3v10.6h3v-5.9l3.9,5.9h3V40.1z M689.7,50.7h3V40.1h-3V50.7z M680.1,42.5h1.5
		c0.4,0,0.7,0.1,0.9,0.3c0.2,0.2,0.3,0.5,0.3,0.8c0,0.7-0.4,1.1-1.2,1.1h-1.5V42.5z M685.8,50.7l-2.4-4.1c0.8-0.2,1.4-0.6,1.8-1.1
		c0.4-0.5,0.6-1.2,0.6-1.9c0-0.6-0.2-1.2-0.5-1.8c-0.3-0.5-0.7-0.9-1.3-1.2c-0.6-0.3-1.3-0.4-2.2-0.4h-4.7v10.6h3v-3.9h0.3l2.1,3.9
		H685.8z M673.1,42.4v-2.4h-6.8v10.6h6.8v-2.4h-3.9v-1.9h3.4v-2.2h-3.4v-1.8H673.1z"/>
</g>
</svg>
