<?xml version="1.0" encoding="utf-8"?>
<!-- Generator: Adobe Illustrator 22.1.0, SVG Export Plug-In . SVG Version: 6.00 Build 0)  -->
<svg version="1.1" id="Layer_1" xmlns="http://www.w3.org/2000/svg" xmlns:xlink="http://www.w3.org/1999/xlink" x="0px" y="0px"
	 viewBox="0 0 286 89" style="enable-background:new 0 0 286 89;" xml:space="preserve">
<style type="text/css">
	.st0{fill:#374148;}
	.st1{clip-path:url(#SVGID_2_);fill:#FFFFFF;}
</style>
<rect y="0.3" class="st0" width="286" height="88.7"/>
<g>
	<defs>
		<rect id="SVGID_1_" y="0.3" width="286" height="88.7"/>
	</defs>
	<clipPath id="SVGID_2_">
		<use xlink:href="#SVGID_1_"  style="overflow:visible;"/>
	</clipPath>
	<path class="st1" d="M180.1,45.8l1.2-3.5l1.1,3.5H180.1z M183.7,49.8h3.1l-3.9-10.6h-3.4l-3.9,10.6h3.1l0.6-1.8h3.8L183.7,49.8z
		 M168.5,39.2l-2.5,6.9l-2.6-6.9h-3.6v10.6h3v-6l2,6h2.5l2-6v6h2.9V39.2H168.5z M150.3,41.7c0.8,0,1.3,0.2,1.8,0.7
		c0.4,0.5,0.6,1.1,0.6,2c0,0.8-0.2,1.5-0.6,2c-0.4,0.5-1,0.7-1.8,0.7c-0.8,0-1.3-0.2-1.8-0.7c-0.4-0.5-0.6-1.1-0.6-2
		c0-0.8,0.2-1.5,0.6-2C149,41.9,149.5,41.7,150.3,41.7 M150.3,39c-1,0-1.9,0.2-2.7,0.7c-0.8,0.5-1.5,1.1-2,1.9
		c-0.5,0.8-0.7,1.8-0.7,2.8s0.2,2,0.7,2.8c0.5,0.8,1.1,1.5,2,1.9c0.8,0.5,1.7,0.7,2.7,0.7c1,0,1.9-0.2,2.7-0.7
		c0.8-0.5,1.5-1.1,2-1.9c0.5-0.8,0.7-1.8,0.7-2.8s-0.2-2-0.7-2.8c-0.5-0.8-1.1-1.5-1.9-1.9C152.2,39.2,151.3,39,150.3,39
		 M137.3,39.2l-2.5,6.9l-2.6-6.9h-3.6v10.6h3v-6l2,6h2.5l2-6v6h2.9V39.2H137.3z M111.9,39.1v10.6h3v-4.2h3.2v-2.2h-3.2v-1.9h4.3
		v-2.4H111.9z M107.9,46.7c0-0.7-0.2-1.3-0.5-1.7c-0.3-0.4-0.7-0.8-1.1-1c-0.4-0.2-1-0.5-1.7-0.7c-0.6-0.2-1.1-0.4-1.3-0.6
		c-0.3-0.2-0.4-0.4-0.4-0.7c0-0.2,0.1-0.4,0.2-0.5c0.1-0.1,0.3-0.2,0.5-0.2c0.3,0,0.5,0.1,0.7,0.2c0.2,0.2,0.3,0.4,0.3,0.7h3.2
		c-0.1-1-0.5-1.8-1.2-2.4c-0.7-0.6-1.7-0.9-2.9-0.9c-0.8,0-1.4,0.1-2,0.4c-0.6,0.2-1.1,0.6-1.4,1.1c-0.3,0.5-0.5,1-0.5,1.7
		c0,0.7,0.2,1.3,0.5,1.7c0.3,0.4,0.7,0.8,1.1,1c0.4,0.2,1,0.4,1.7,0.7c0.6,0.2,1.1,0.4,1.4,0.6c0.3,0.2,0.4,0.4,0.4,0.7
		c0,0.2-0.1,0.4-0.2,0.6c-0.1,0.1-0.3,0.2-0.6,0.2c-0.3,0-0.5-0.1-0.7-0.3c-0.2-0.2-0.3-0.5-0.3-0.8h-3.1c0.1,1.1,0.5,1.9,1.3,2.5
		c0.8,0.6,1.8,0.9,3,0.9c0.8,0,1.5-0.1,2.1-0.4c0.6-0.3,1-0.7,1.3-1.1C107.8,47.8,107.9,47.3,107.9,46.7"/>
</g>
</svg>
