<?xml version="1.0" encoding="utf-8"?>
<!-- Generator: Adobe Illustrator 22.1.0, SVG Export Plug-In . SVG Version: 6.00 Build 0)  -->
<svg version="1.1" id="Layer_1" xmlns="http://www.w3.org/2000/svg" xmlns:xlink="http://www.w3.org/1999/xlink" x="0px" y="0px"
	 viewBox="0 0 133 133" style="enable-background:new 0 0 133 133;" xml:space="preserve">
<style type="text/css">
	.st0{clip-path:url(#SVGID_2_);fill:#00B4EB;}
	.st1{clip-path:url(#SVGID_4_);}
</style>
<g>
	<g>
		<g>
			<defs>
				<rect id="SVGID_1_" width="133" height="133"/>
			</defs>
			<clipPath id="SVGID_2_">
				<use xlink:href="#SVGID_1_"  style="overflow:visible;"/>
			</clipPath>
			<path class="st0" d="M66.5,130.5c35.3,0,64-28.7,64-64s-28.7-64-64-64s-64,28.7-64,64S31.2,130.5,66.5,130.5"/>
		</g>
	</g>
	<g>
		<g>
			<defs>
				<rect id="SVGID_3_" width="133" height="133"/>
			</defs>
			<clipPath id="SVGID_4_">
				<use xlink:href="#SVGID_3_"  style="overflow:visible;"/>
			</clipPath>
			<path class="st1" d="M66.5,133C29.8,133,0,103.2,0,66.5S29.8,0,66.5,0S133,29.8,133,66.5S103.2,133,66.5,133z M66.5,5
				C32.6,5,5,32.6,5,66.5S32.6,128,66.5,128S128,100.4,128,66.5S100.4,5,66.5,5z"/>
		</g>
	</g>
</g>
<g>
	<path d="M53.1,44.2c0,1.1,0.6,1.7,1.6,1.7c0.7,0,1.3-0.5,1.3-1.1c0-0.8-0.7-1.1-1.5-1.4c-1.8-0.7-3.3-1.2-3.3-3.2
		c0-1.8,1.7-2.8,3.4-2.8c2.3,0,3.5,1.5,3.5,3.1h-2.3c0-0.9-0.4-1.4-1.2-1.4c-0.6,0-1.2,0.3-1.2,1c0,0.6,0.6,1,1.4,1.3
		c1.6,0.6,3.4,1.2,3.4,3.2s-1.5,3.1-3.7,3.1c-2.1,0-3.7-1.3-3.7-3.5C50.8,44.2,53.1,44.2,53.1,44.2z"/>
	<path d="M59.8,44.1c0-1.9,1.4-3.6,3.7-3.6c2.4,0,3.8,1.6,3.8,3.6s-1.4,3.6-3.8,3.6C61.2,47.7,59.8,46.1,59.8,44.1z M65.2,44.1
		c0-0.9-0.6-1.7-1.6-1.7S62,43.2,62,44.1c0,1,0.6,1.7,1.6,1.7C64.5,45.8,65.2,45.1,65.2,44.1z"/>
	<path d="M71,44.8c0.8,0,1.4,0.6,1.4,1.4c0,0.8-0.6,1.4-1.4,1.4s-1.4-0.6-1.4-1.4C69.6,45.5,70.2,44.8,71,44.8z"/>
	<path d="M75.8,44.8c0.8,0,1.4,0.6,1.4,1.4c0,0.8-0.6,1.4-1.4,1.4s-1.4-0.6-1.4-1.4C74.4,45.5,75,44.8,75.8,44.8z"/>
	<path d="M80.6,44.8c0.8,0,1.4,0.6,1.4,1.4c0,0.8-0.6,1.4-1.4,1.4s-1.4-0.6-1.4-1.4C79.1,45.5,79.8,44.8,80.6,44.8z"/>
</g>
<g>
	<path d="M46.3,58.2l-1.4,4.3h-1.7l-2.5-6.8h2.2l1.2,4l1.2-4h2l1.2,4l1.2-4h2.2l-2.5,6.8h-1.7L46.3,58.2z"/>
	<path d="M53.4,52.7h2.1v4c0.4-0.7,1.1-1.1,2.2-1.1c0.9,0,1.5,0.3,1.8,0.8c0.4,0.5,0.5,1.2,0.5,2.2v4h-2.1V59c0-1-0.3-1.6-1.2-1.6
		s-1.3,0.7-1.3,1.7v3.4h-2.1L53.4,52.7L53.4,52.7z"/>
	<path d="M69.4,55.7v6.8h-2.1v-1c-0.3,0.6-1.2,1.1-2.1,1.1c-1.9,0-3.3-1.5-3.3-3.5s1.3-3.5,3.3-3.5c0.9,0,1.7,0.5,2.1,1.1v-1
		C67.3,55.7,69.4,55.7,69.4,55.7z M67.2,59.1c0-0.9-0.6-1.7-1.6-1.7S64,58.2,64,59.1s0.6,1.7,1.6,1.7S67.2,60.1,67.2,59.1z"/>
	<path d="M75.9,62.5c-0.3,0.1-0.8,0.1-1.4,0.1c-1,0-2.4-0.1-2.4-2.4v-2.9H71v-1.6h1.1v-2h2.1v2h1.5v1.6h-1.5v2.4
		c0,1,0.4,1.1,0.9,1.1c0.3,0,0.6,0,0.8,0V62.5z"/>
	<path d="M82.6,52.1c0.8,0,1.4,0.6,1.4,1.4c0,0.7-0.6,1.4-1.4,1.4s-1.4-0.6-1.4-1.4C81.3,52.7,81.9,52.1,82.6,52.1z M81.6,55.7h2.1
		v6.8h-2.1V55.7z"/>
	<path d="M91.8,60.5c0,1.6-1.4,2.2-3.1,2.2c-1.9,0-3.1-0.9-3.1-2.4h2.1c0,0.7,0.4,1,1.1,1c0.5,0,0.9-0.2,0.9-0.6
		c0-0.5-0.5-0.6-1.8-1c-1.1-0.4-2.1-0.7-2.1-2c0-1.4,1.2-2.1,3-2.1c2,0,2.9,1,2.9,2.3h-2.1c0-0.6-0.3-0.9-0.9-0.9
		c-0.4,0-0.8,0.2-0.8,0.6c0,0.5,0.6,0.6,1.7,1C90.8,58.9,91.8,59.2,91.8,60.5z"/>
</g>
<g>
	<path d="M57.2,74c-0.4,2.1-2.2,3.8-4.9,3.8c-3.3,0-5.3-2.4-5.3-5.2c0-2.7,1.9-5.1,5.1-5.1c3,0,4.7,1.8,5,4.1h-2.4
		c-0.2-1.1-1.1-2-2.5-2c-1.9,0-3,1.5-3,3.1c0,1.7,1.1,3.1,3.1,3.1c1.1,0,2.1-0.7,2.4-1.7h2.5C57.2,74.1,57.2,74,57.2,74z"/>
	<path d="M58.6,74.1c0-1.9,1.4-3.6,3.7-3.6c2.4,0,3.8,1.6,3.8,3.6c0,1.9-1.4,3.6-3.8,3.6C60,77.7,58.6,76,58.6,74.1z M64,74.1
		c0-0.9-0.6-1.7-1.6-1.7s-1.6,0.8-1.6,1.7c0,1,0.6,1.7,1.6,1.7C63.3,75.8,64,75.1,64,74.1z"/>
	<path d="M68,67.7h2.1v9.8H68V67.7z"/>
	<path d="M72.1,74.1c0-1.9,1.4-3.6,3.7-3.6c2.4,0,3.8,1.6,3.8,3.6c0,1.9-1.4,3.6-3.8,3.6C73.5,77.7,72.1,76,72.1,74.1z M77.4,74.1
		c0-0.9-0.6-1.7-1.6-1.7s-1.6,0.8-1.6,1.7c0,1,0.6,1.7,1.6,1.7C76.8,75.8,77.4,75.1,77.4,74.1z"/>
	<path d="M86.3,72.7c-0.3-0.1-0.5-0.1-0.8-0.1c-1.2,0-1.9,0.6-1.9,2.3v2.6h-2.1v-6.8h2.1v1.1c0.3-0.6,1.1-1.2,2.1-1.2
		c0.3,0,0.4,0,0.6,0.1C86.3,70.7,86.3,72.7,86.3,72.7z"/>
</g>
<g>
	<path d="M37.6,84.6v2.6h3.7v1.9h-3.7v3.4h-2.3v-9.8h6v1.9H37.6z"/>
	<path d="M50.6,85.7v6.8h-2.1v-1c-0.3,0.6-1.2,1.1-2.1,1.1c-1.9,0-3.3-1.5-3.3-3.5s1.3-3.5,3.3-3.5c0.9,0,1.7,0.5,2.1,1.1v-1H50.6z
		 M48.5,89.1c0-0.9-0.6-1.7-1.6-1.7s-1.6,0.8-1.6,1.7c0,0.9,0.6,1.7,1.6,1.7C47.8,90.8,48.5,90,48.5,89.1z"/>
	<path d="M57.5,88.4c-0.1-0.6-0.5-1-1.3-1c-1,0-1.5,0.8-1.5,1.7c0,0.9,0.5,1.7,1.6,1.7c0.7,0,1.1-0.3,1.3-0.9h2.1
		c-0.2,1.5-1.4,2.7-3.5,2.7c-2.4,0-3.6-1.7-3.6-3.6s1.3-3.6,3.6-3.6s3.3,1.4,3.5,2.8h-2.2C57.5,88.2,57.5,88.4,57.5,88.4z"/>
	<path d="M65.8,92.5c-0.3,0.1-0.8,0.1-1.4,0.1c-1,0-2.4-0.1-2.4-2.4v-2.9h-1.1v-1.6H62v-2h2.1v2h1.5v1.6h-1.5v2.4
		c0,1,0.4,1.1,0.9,1.1c0.3,0,0.6,0,0.8,0V92.5z"/>
	<path d="M67,89.1c0-1.9,1.4-3.6,3.7-3.6c2.4,0,3.8,1.6,3.8,3.6c0,1.9-1.4,3.6-3.8,3.6C68.4,92.7,67,91,67,89.1z M72.3,89.1
		c0-0.9-0.6-1.7-1.6-1.7s-1.6,0.8-1.6,1.7c0,1,0.6,1.7,1.6,1.7C71.7,90.8,72.3,90.1,72.3,89.1z"/>
	<path d="M81.2,87.7c-0.3-0.1-0.5-0.1-0.8-0.1c-1.2,0-1.9,0.6-1.9,2.3v2.6h-2.1v-6.8h2.1v1.1c0.3-0.6,1.1-1.2,2.1-1.2
		c0.3,0,0.4,0,0.6,0.1C81.2,85.7,81.2,87.7,81.2,87.7z"/>
	<path d="M83.6,95c-0.5-0.4-0.9-1.1-0.9-2h2.1c0,0.8,0.6,1.2,1.3,1.2c0.8,0,1.3-0.3,1.3-1.4v-1.4c-0.4,0.7-1.1,1.1-2.2,1.1
		c-0.9,0-1.6-0.3-1.9-0.8c-0.4-0.5-0.5-1.1-0.5-2.1v-3.9H85v3.5c0,1,0.3,1.6,1.2,1.6c0.9,0,1.3-0.7,1.3-1.7v-3.4h2.1v6.9
		c0,1.1-0.4,1.9-0.9,2.3c-0.6,0.5-1.4,0.7-2.5,0.7C85,95.7,84.2,95.5,83.6,95z"/>
	<path d="M94.7,86.9c0.5-0.4,1.2-0.8,1.2-1.6c0-0.7-0.5-1.1-1.2-1.1s-1.2,0.4-1.2,1.4h-2.2c0-1.8,1.2-3.1,3.4-3.1
		c1.8,0,3.4,1,3.4,2.8c0,1.4-1,2.1-1.5,2.5c-0.7,0.6-0.9,0.8-0.9,1.7h-2.2C93.5,88.2,93.7,87.5,94.7,86.9z M94.6,89.8
		c0.8,0,1.5,0.6,1.5,1.4s-0.6,1.4-1.5,1.4c-0.8,0-1.5-0.7-1.5-1.4S93.8,89.8,94.6,89.8z"/>
</g>
</svg>
