<?xml version="1.0" encoding="utf-8"?>
<!-- Generator: Adobe Illustrator 22.1.0, SVG Export Plug-In . SVG Version: 6.00 Build 0)  -->
<svg preserveAspectRatio="xMinYMid" version="1.1" id="tickets" xmlns="http://www.w3.org/2000/svg" xmlns:xlink="http://www.w3.org/1999/xlink" x="0px" y="0px"
	 viewBox="0 0 455 59" style="enable-background:new 0 0 455 59;" xml:space="preserve">
<g>
	<path d="M119.3,33.8c-2.8-0.9-4.3-1.2-4.3-2.4c0-1,0.9-1.5,2-1.5c1.5,0,2.2,0.8,2.2,2.2h5.3c0-3.2-2.4-5.7-7.3-5.7
		c-4.5,0-7.5,1.6-7.5,5.1c0,3.3,2.4,4.1,5.2,4.9c3.2,1.1,4.5,1.2,4.5,2.5c0,1.1-0.9,1.6-2.2,1.6c-1.6,0-2.7-0.7-2.7-2.5h-5.2
		c0,3.9,3,6.1,7.8,6.1c4.2,0,7.6-1.4,7.6-5.4C124.8,35.5,122.3,34.7,119.3,33.8 M107.6,39.7c-0.5,0.1-1.3,0.1-1.9,0.1
		c-1.3,0-2.3-0.4-2.3-2.9v-6h3.9v-4h-3.9v-5h-5.3v5h-2.7v4h2.7v7.2c0,5.6,3.5,6,6,6c1.6,0,2.8-0.1,3.6-0.3L107.6,39.7L107.6,39.7z
		 M85.4,30c2,0,3.5,1.4,3.5,3.5h-7.1C81.8,31.3,83.3,30,85.4,30 M94,36.6c0.2-1,0.2-1.8,0.2-2.5c0-4.1-3.4-7.7-8.7-7.7
		c-5.8,0-9,4-9,8.9c0,5.2,3.2,8.9,9.1,8.9c4.8,0,7.8-2.6,8.3-5.8h-5.2c-0.3,1.1-1.3,1.9-3.1,1.9c-2.8,0-3.6-1.7-3.7-3.7H94z
		 M76.8,26.9h-6.4L65.2,34V19.3h-5.4v24.5h5.4v-7.1l5.2,7.1h6.4l-6.5-8.4L76.8,26.9z M57.6,33.5c-0.3-3.6-3-7.1-8.7-7.1
		c-5.9,0-9.1,4.2-9.1,8.9s3.2,8.9,9.1,8.9c5.4,0,8.2-3,8.8-6.8h-5.4c-0.5,1.4-1.3,2.2-3.2,2.2c-2.8,0-4-2-4-4.3s1.2-4.3,3.7-4.3
		c2.2,0,3.1,1,3.3,2.5H57.6z M32.1,43.8h5.4V26.9h-5.4V43.8z M31.3,21.3c0,1.9,1.5,3.4,3.4,3.4c2,0,3.5-1.5,3.5-3.4
		s-1.5-3.4-3.5-3.4C32.8,17.9,31.3,19.4,31.3,21.3 M17.5,43.8h5.7V24.2h5.6v-4.9H12v4.9h5.5V43.8z"/>
</g>
</svg>
