<?xml version="1.0" encoding="utf-8"?>
<!-- Generator: Adobe Illustrator 22.1.0, SVG Export Plug-In . SVG Version: 6.00 Build 0)  -->
<svg version="1.1" id="Layer_1" xmlns="http://www.w3.org/2000/svg" xmlns:xlink="http://www.w3.org/1999/xlink" x="0px" y="0px"
	 viewBox="0 0 127 48" style="enable-background:new 0 0 127 48;" xml:space="preserve">
<style type="text/css">
	.st0{fill:#FCEE1D;}
</style>
<rect x="2.5" y="2.5" class="st0" width="122" height="43"/>
<g>
	<path d="M127,48H0V0h127V48z M5,43h117V5H5V43z"/>
</g>
<g>
	<path d="M27.2,29.5H24L20.1,19h3.4l2.1,7.2l2.1-7.2h3.5L27.2,29.5z"/>
	<path d="M34.4,19h3.1v10.5h-3.1V19z"/>
	<path d="M44.6,26c0,0.9,0.5,1.5,1.3,1.5c0.6,0,1-0.3,1-0.9c0-0.6-0.5-0.8-1.6-1.3c-1.9-0.8-3.7-1.4-3.7-3.5c0-2.2,2.1-3,4.2-3
		c3.1,0,4.1,1.8,4.1,3.4h-3.1c0-0.9-0.3-1.3-1-1.3c-0.5,0-1,0.3-1,0.8c0,0.5,0.5,0.9,1.4,1.2c1.8,0.6,3.8,1.3,3.8,3.5
		c0,2.2-1.6,3.4-4.3,3.4c-2.6,0-4.3-1.4-4.3-3.8H44.6z"/>
	<path d="M54,19h3.1v10.5H54V19z"/>
	<path d="M63,21.7h-2.2V19h7.4v2.7h-2.2v7.8H63V21.7z"/>
	<path d="M77.4,19h3.1v6.8c0,0.7,0.5,1.3,1.3,1.3c0.8,0,1.3-0.6,1.3-1.3V19h3.1v6.9c0,2.3-1.6,3.9-4.4,3.9c-2.7,0-4.4-1.7-4.4-3.9
		V19z"/>
	<path d="M93,26c0,0.9,0.5,1.5,1.3,1.5c0.6,0,1-0.3,1-0.9c0-0.6-0.5-0.8-1.6-1.3c-1.9-0.8-3.7-1.4-3.7-3.5c0-2.2,2.1-3,4.2-3
		c3.1,0,4.1,1.8,4.1,3.4h-3.1c0-0.9-0.3-1.3-1-1.3c-0.5,0-1,0.3-1,0.8c0,0.5,0.5,0.9,1.4,1.2c1.8,0.6,3.8,1.3,3.8,3.5
		c0,2.2-1.6,3.4-4.3,3.4c-2.6,0-4.3-1.4-4.3-3.8H93z"/>
	<path d="M104.1,26.1c1,0,1.8,0.8,1.8,1.8c0,1-0.8,1.8-1.8,1.8s-1.8-0.8-1.8-1.8C102.2,27,103,26.1,104.1,26.1z M102.5,19h3.1v6.6
		h-3.1V19z"/>
</g>
</svg>
