<?xml version="1.0" encoding="utf-8"?>
<!-- Generator: Adobe Illustrator 22.1.0, SVG Export Plug-In . SVG Version: 6.00 Build 0)  -->
<svg version="1.1" id="visting_us" xmlns="http://www.w3.org/2000/svg" xmlns:xlink="http://www.w3.org/1999/xlink" x="0px" y="0px"
	 viewBox="0 0 455 59" style="enable-background:new 0 0 455 59;" xml:space="preserve">
<g>
	<path d="M170.3,33.8c-2.8-0.9-4.3-1.2-4.3-2.4c0-1,0.9-1.5,2-1.5c1.5,0,2.2,0.8,2.2,2.2h5.3c0-3.2-2.4-5.7-7.3-5.7
		c-4.6,0-7.5,1.6-7.5,5.1c0,3.3,2.4,4.1,5.2,4.9c3.2,1.1,4.5,1.2,4.5,2.5c0,1.1-0.9,1.6-2.2,1.6c-1.6,0-2.7-0.7-2.7-2.5h-5.2
		c0,3.9,3,6.1,7.8,6.1c4.2,0,7.6-1.4,7.6-5.4C175.7,35.5,173.3,34.7,170.3,33.8 M152.6,26.8v8.5c0,2.6-1.1,4.3-3.3,4.3s-3-1.7-3-4.1
		v-8.6H141v10c0,2.4,0.2,4.1,1.3,5.4c0.9,1.2,2.6,1.9,4.7,1.9c2.6,0,4.6-1.1,5.5-2.8v2.4h5.4v-17H152.6z M132.5,26.8h-5.4v2.4
		c-0.9-1.8-3.1-2.8-5.2-2.8c-4.9,0-8.2,3.8-8.2,8.9c0,5,3.4,8.5,8.3,8.5c2.2,0,4.2-1.1,5.1-2.6v3.2c0,2.6-1.6,3.8-4.1,3.8
		c-2.3,0-3.6-1.1-3.7-2.6H114c0.1,1.9,1,3.6,2.4,4.9c1.4,1.2,3.6,2.3,6.7,2.3s5.1-0.9,6.7-2.1c1.8-1.3,2.7-3.3,2.7-6.4V26.8z
		 M123.1,31c2.4,0,4.1,2,4.1,4.3s-1.6,4.3-4.1,4.3c-2.4,0-4-2-4-4.3S120.7,31,123.1,31 M94.2,43.7h5.4v-8.5c0-2.6,1.1-4.3,3.3-4.3
		c2.2,0,3,1.7,3,4.1v8.6h5.4v-10c0-2.4-0.3-4.1-1.3-5.4c-0.9-1.2-2.6-1.9-4.7-1.9c-2.6,0-4.6,1-5.5,2.9v-2.5h-5.4v17H94.2z
		 M85.6,43.7H91V26.8h-5.4V43.7z M84.8,21.2c0,1.9,1.5,3.4,3.4,3.4c2,0,3.5-1.5,3.5-3.4s-1.5-3.4-3.5-3.4
		C86.3,17.9,84.8,19.4,84.8,21.2 M82.9,39.6c-0.5,0.1-1.3,0.1-1.9,0.1c-1.3,0-2.3-0.4-2.3-2.9v-6h3.8v-4h-3.8v-5h-5.3v5h-2.7v4h2.7
		V38c0,5.6,3.5,5.9,6,5.9c1.6,0,2.8-0.1,3.6-0.3L82.9,39.6L82.9,39.6z M63,43.7h5.4V26.8H63V43.7z M62.2,21.2c0,1.9,1.5,3.4,3.4,3.4
		c2,0,3.5-1.5,3.5-3.4s-1.5-3.4-3.5-3.4C63.7,17.9,62.2,19.4,62.2,21.2 M55.2,33.8c-2.8-0.9-4.3-1.2-4.3-2.4c0-1,0.9-1.5,2-1.5
		c1.5,0,2.2,0.8,2.2,2.2h5.3c0-3.2-2.4-5.7-7.3-5.7c-4.6,0-7.5,1.6-7.5,5.1c0,3.3,2.4,4.1,5.2,4.9c3.2,1.1,4.5,1.2,4.5,2.5
		c0,1.1-0.9,1.6-2.2,1.6c-1.6,0-2.7-0.7-2.7-2.5h-5.2c0,3.9,3,6.1,7.8,6.1c4.2,0,7.6-1.4,7.6-5.4C60.6,35.5,58.2,34.7,55.2,33.8
		 M37.7,43.7H43V26.8h-5.4v16.9H37.7z M36.9,21.2c0,1.9,1.5,3.4,3.4,3.4c2,0,3.5-1.5,3.5-3.4s-1.5-3.4-3.5-3.4
		C38.4,17.9,36.9,19.4,36.9,21.2 M34.8,19.2h-6.2l-5.3,17.3L18,19.2h-6l8.8,24.5H26L34.8,19.2z"/>
</g>
</svg>
